<svg id="Layer_1" data-name="Layer 1" xmlns="http://www.w3.org/2000/svg" xmlns:xlink="http://www.w3.org/1999/xlink" viewBox="0 0 138.54 27.84"><defs><linearGradient id="linear-gradient" x1="32.1" y1="0.33" x2="32.1" y2="25.77" gradientUnits="userSpaceOnUse"><stop offset="0" stop-color="#f48180"/><stop offset="1" stop-color="#ed2224"/></linearGradient><clipPath id="clip-path"><polyline points="15.81 8.01 15.81 17.49 47.31 17.49 47.31 12.75 49.71 12.75 49.71 8.01" style="fill:none;clip-rule:evenodd"/></clipPath><clipPath id="clip-path-2"><rect x="-102.78" y="-419.25" width="792" height="612" style="fill:none"/></clipPath><linearGradient id="linear-gradient-2" x1="104.7" y1="0.33" x2="104.7" y2="25.77" xlink:href="#linear-gradient"/><clipPath id="clip-path-3"><polyline points="92.61 8.01 92.61 17.49 116.13 17.49 116.13 12.75 118.53 12.75 118.53 8.01" style="fill:none;clip-rule:evenodd"/></clipPath></defs><title>acq.apply</title><path d="M65.67,14.85c0,7.02-14.22,12.72-31.8,12.72-17.52,0-31.74-5.7-31.74-12.72S16.35,2.13,33.87,2.13c17.58,0,31.8,5.7,31.8,12.72" style="fill:#928788;fill-rule:evenodd"/><path d="M65.61,14.85c0,7.02-14.16,12.66-31.74,12.66-17.52,0-31.74-5.64-31.74-12.66S16.35,2.13,33.87,2.13C51.45,2.13,65.61,7.83,65.61,14.85Z" style="fill:none;stroke:#928788;stroke-linecap:round;stroke-miterlimit:10;stroke-width:0.6600000262260437px"/><path d="M63.87,13.05c0,7.02-14.22,12.72-31.8,12.72C14.55,25.77.33,20.07.33,13.05S14.55.33,32.07.33c17.58,0,31.8,5.7,31.8,12.72" style="fill-rule:evenodd;fill:url(#linear-gradient)"/><path d="M63.81,13.05c0,7.02-14.16,12.66-31.74,12.66C14.55,25.71.33,20.07.33,13.05S14.55.33,32.07.33C49.65.33,63.81,6.03,63.81,13.05Z" style="fill:none;stroke:#5053a4;stroke-linecap:round;stroke-miterlimit:10;stroke-width:0.6600000262260437px"/><g style="clip-path:url(#clip-path)"><g style="clip-path:url(#clip-path-2)"><path d="M21.886,15.87h-1.33l-.528-1.376H17.607l-.5,1.376h-1.3l2.358-6.056h1.293Zm-2.251-2.4L18.8,11.227l-.818,2.248Z" style="fill:#fff"/><path d="M26.124,12.78l-1.145.206a.823.823,0,0,0-.263-.516.787.787,0,0,0-.53-.174.868.868,0,0,0-.692.3,1.535,1.535,0,0,0-.258,1,1.776,1.776,0,0,0,.263,1.1.86.86,0,0,0,.7.322.78.78,0,0,0,.541-.188,1.133,1.133,0,0,0,.3-.646l1.14.194a2.02,2.02,0,0,1-.682,1.186,2.107,2.107,0,0,1-1.351.4,2.012,2.012,0,0,1-1.535-.607,2.358,2.358,0,0,1-.571-1.682,2.358,2.358,0,0,1,.574-1.691,2.038,2.038,0,0,1,1.553-.605,2.123,2.123,0,0,1,1.274.345A1.915,1.915,0,0,1,26.124,12.78Z" style="fill:#fff"/><path d="M29.844,17.539V15.333a1.648,1.648,0,0,1-.565.465,1.6,1.6,0,0,1-.731.172,1.551,1.551,0,0,1-1.23-.562,2.623,2.623,0,0,1-.57-1.78,2.372,2.372,0,0,1,.535-1.65,1.718,1.718,0,0,1,1.328-.593,1.483,1.483,0,0,1,.758.187,1.724,1.724,0,0,1,.567.562v-.648h1.07v6.056Zm.038-3.916a1.534,1.534,0,0,0-.275-1,.859.859,0,0,0-.687-.328.885.885,0,0,0-.7.334,1.632,1.632,0,0,0-.283,1.063,1.6,1.6,0,0,0,.272,1.043.852.852,0,0,0,.674.319.9.9,0,0,0,.7-.359A1.628,1.628,0,0,0,29.882,13.623Z" style="fill:#fff"/><path d="M35.034,15.87v-.657a1.694,1.694,0,0,1-.63.554,1.771,1.771,0,0,1-.824.2,1.62,1.62,0,0,1-.794-.194,1.15,1.15,0,0,1-.508-.546,2.433,2.433,0,0,1-.157-.971V11.483h1.161V13.5a5.547,5.547,0,0,0,.064,1.134.615.615,0,0,0,.233.331.717.717,0,0,0,.43.121.908.908,0,0,0,.532-.163.825.825,0,0,0,.322-.4,4.708,4.708,0,0,0,.087-1.184V11.483h1.161V15.87Z" style="fill:#fff"/><path d="M37.314,10.889V9.814h1.16v1.074Zm0,4.981V11.483h1.16V15.87Z" style="fill:#fff"/><path d="M40.776,15.87H39.615V11.483h1.078v.623a1.882,1.882,0,0,1,.5-.582.915.915,0,0,1,.5-.141,1.477,1.477,0,0,1,.764.219L42.1,12.615a1.016,1.016,0,0,0-.545-.19.642.642,0,0,0-.413.135.91.91,0,0,0-.267.485,6.915,6.915,0,0,0-.1,1.471Z" style="fill:#fff"/><path d="M45.5,14.474l1.157.194a1.9,1.9,0,0,1-.705.969,2.067,2.067,0,0,1-1.2.333,1.964,1.964,0,0,1-1.693-.748,2.513,2.513,0,0,1-.434-1.512A2.421,2.421,0,0,1,43.188,12a1.876,1.876,0,0,1,1.441-.618,1.948,1.948,0,0,1,1.545.646,2.863,2.863,0,0,1,.541,1.98H43.807a1.174,1.174,0,0,0,.281.8.878.878,0,0,0,.669.287.715.715,0,0,0,.459-.148A.92.92,0,0,0,45.5,14.474Zm.066-1.173a1.117,1.117,0,0,0-.261-.767.838.838,0,0,0-1.23.015,1.072,1.072,0,0,0-.244.752Z" style="fill:#fff"/></g></g><path d="M138.27,14.85c0,7.02-14.22,12.72-31.8,12.72-17.52,0-31.74-5.7-31.74-12.72S88.95,2.13,106.47,2.13c17.58,0,31.8,5.7,31.8,12.72" style="fill:#928788;fill-rule:evenodd"/><path d="M138.21,14.85c0,7.02-14.16,12.66-31.74,12.66-17.52,0-31.74-5.64-31.74-12.66S88.95,2.13,106.47,2.13C124.05,2.13,138.21,7.83,138.21,14.85Z" style="fill:none;stroke:#928788;stroke-linecap:round;stroke-miterlimit:10;stroke-width:0.6600000262260437px"/><path d="M136.47,13.05c0,7.02-14.22,12.72-31.8,12.72-17.52,0-31.74-5.7-31.74-12.72S87.15.33,104.67.33c17.58,0,31.8,5.7,31.8,12.72" style="fill-rule:evenodd;fill:url(#linear-gradient-2)"/><path d="M136.41,13.05c0,7.02-14.16,12.66-31.74,12.66-17.52,0-31.74-5.64-31.74-12.66S87.15.33,104.67.33C122.25.33,136.41,6.03,136.41,13.05Z" style="fill:none;stroke:#5053a4;stroke-linecap:round;stroke-miterlimit:10;stroke-width:0.6600000262260437px"/><g style="clip-path:url(#clip-path-3)"><g style="clip-path:url(#clip-path-2)"><path d="M98.687,15.87h-1.33l-.528-1.376H94.408l-.5,1.376h-1.3l2.358-6.056h1.293Zm-2.251-2.4L95.6,11.227l-.818,2.248Z" style="fill:#fff"/><path d="M99.066,11.483h1.082v.645a1.621,1.621,0,0,1,.57-.537,1.569,1.569,0,0,1,.8-.207,1.674,1.674,0,0,1,1.3.6,2.425,2.425,0,0,1,.532,1.668,2.5,2.5,0,0,1-.537,1.709,1.671,1.671,0,0,1-1.3.609,1.478,1.478,0,0,1-.659-.146,2.2,2.2,0,0,1-.621-.5v2.21H99.066Zm1.148,2.119a1.693,1.693,0,0,0,.293,1.093.9.9,0,0,0,.715.353.839.839,0,0,0,.674-.324,1.671,1.671,0,0,0,.268-1.063,1.584,1.584,0,0,0-.276-1.024.855.855,0,0,0-.686-.335.886.886,0,0,0-.706.329A1.46,1.46,0,0,0,100.214,13.6Z" style="fill:#fff"/><path d="M104.234,11.483h1.082v.645a1.621,1.621,0,0,1,.57-.537,1.569,1.569,0,0,1,.8-.207,1.674,1.674,0,0,1,1.3.6,2.425,2.425,0,0,1,.532,1.668,2.5,2.5,0,0,1-.537,1.709,1.671,1.671,0,0,1-1.3.609,1.478,1.478,0,0,1-.659-.146,2.2,2.2,0,0,1-.621-.5v2.21h-1.161Zm1.148,2.119a1.693,1.693,0,0,0,.293,1.093.9.9,0,0,0,.715.353.839.839,0,0,0,.674-.324,1.671,1.671,0,0,0,.268-1.063,1.584,1.584,0,0,0-.276-1.024.855.855,0,0,0-.686-.335.886.886,0,0,0-.706.329A1.46,1.46,0,0,0,105.382,13.6Z" style="fill:#fff"/><path d="M109.435,15.87V9.814h1.16V15.87Z" style="fill:#fff"/><path d="M111.236,11.483h1.235L113.52,14.6l1.024-3.114h1.2L114.2,15.705l-.276.764a3.161,3.161,0,0,1-.291.587,1.293,1.293,0,0,1-.318.328,1.4,1.4,0,0,1-.442.2,2.29,2.29,0,0,1-.593.07,3.07,3.07,0,0,1-.656-.07l-.1-.908a2.62,2.62,0,0,0,.491.054.727.727,0,0,0,.6-.238,1.644,1.644,0,0,0,.3-.6Z" style="fill:#fff"/></g></g></svg>