<svg id="Layer_1" data-name="Layer 1" xmlns="http://www.w3.org/2000/svg" xmlns:xlink="http://www.w3.org/1999/xlink" viewBox="0 0 356.67 76.86"><defs><linearGradient id="linear-gradient" x1="105.63" y1="0.03" x2="105.63" y2="26.07" gradientUnits="userSpaceOnUse"><stop offset="0" stop-color="#457cbf"/><stop offset="1" stop-color="#3a53a4"/></linearGradient><clipPath id="clip-path" transform="translate(0.33)"><polyline points="90.75 8.07 90.75 17.55 118.47 17.55 118.47 12.81 120.87 12.81 120.87 8.07" style="fill:none;clip-rule:evenodd"/></clipPath><clipPath id="clip-path-2" transform="translate(0.33)"><rect x="-399.24" y="-165.75" width="792" height="612" style="fill:none"/></clipPath><linearGradient id="linear-gradient-2" x1="178.23" y1="0.03" x2="178.23" y2="26.07" xlink:href="#linear-gradient"/><clipPath id="clip-path-3" transform="translate(0.33)"><polyline points="154.89 8.07 154.89 17.55 200.49 17.55 200.49 12.81 202.89 12.81 202.89 8.07" style="fill:none;clip-rule:evenodd"/></clipPath><linearGradient id="linear-gradient-3" x1="105" y1="49.35" x2="105" y2="74.79" gradientUnits="userSpaceOnUse"><stop offset="0" stop-color="#f48180"/><stop offset="1" stop-color="#ed2224"/></linearGradient><clipPath id="clip-path-5" transform="translate(0.33)"><polyline points="91.65 57.03 91.65 66.51 117.03 66.51 117.03 61.77 119.43 61.77 119.43 57.03" style="fill:none;clip-rule:evenodd"/></clipPath><clipPath id="clip-path-6" transform="translate(0.33)"><rect x="-326.34" y="-165.75" width="792" height="612" style="fill:none"/></clipPath><linearGradient id="linear-gradient-4" x1="250.53" y1="0.03" x2="250.53" y2="26.07" xlink:href="#linear-gradient"/><clipPath id="clip-path-7" transform="translate(0.33)"><polyline points="223.23 8.07 223.23 17.55 277.29 17.55 277.29 12.81 279.69 12.81 279.69 8.07" style="fill:none;clip-rule:evenodd"/></clipPath><linearGradient id="linear-gradient-5" x1="31.77" y1="49.35" x2="31.77" y2="74.79" xlink:href="#linear-gradient-3"/><clipPath id="clip-path-9" transform="translate(0.33)"><polyline points="17.22 57.03 17.22 66.51 45.42 66.51 45.42 61.77 47.82 61.77 47.82 57.03" style="fill:none;clip-rule:evenodd"/></clipPath><clipPath id="clip-path-10" transform="translate(0.33)"><rect x="-472.17" y="-165.75" width="792" height="612" style="fill:none"/></clipPath><linearGradient id="linear-gradient-6" x1="250.5" y1="49.35" x2="250.5" y2="74.79" xlink:href="#linear-gradient-3"/><clipPath id="clip-path-11" transform="translate(0.33)"><polyline points="238.35 57.03 238.35 66.51 261.87 66.51 261.87 61.77 264.27 61.77 264.27 57.03" style="fill:none;clip-rule:evenodd"/></clipPath><linearGradient id="linear-gradient-7" x1="323.43" y1="0.03" x2="323.43" y2="26.07" xlink:href="#linear-gradient"/><clipPath id="clip-path-13" transform="translate(0.33)"><polyline points="308.55 8.07 308.55 17.55 336.27 17.55 336.27 12.81 338.67 12.81 338.67 8.07" style="fill:none;clip-rule:evenodd"/></clipPath><linearGradient id="linear-gradient-8" x1="177.9" y1="49.35" x2="177.9" y2="74.79" xlink:href="#linear-gradient-3"/><clipPath id="clip-path-15" transform="translate(0.33)"><polyline points="162.15 57.03 162.15 66.51 192.69 66.51 192.69 61.77 195.09 61.77 195.09 57.03" style="fill:none;clip-rule:evenodd"/></clipPath><linearGradient id="linear-gradient-9" x1="322.5" y1="49.35" x2="322.5" y2="74.79" xlink:href="#linear-gradient-3"/><clipPath id="clip-path-17" transform="translate(0.33)"><polyline points="307.35 57.03 307.35 66.51 336.51 66.51 336.51 61.77 338.91 61.77 338.91 57.03" style="fill:none;clip-rule:evenodd"/></clipPath><linearGradient id="linear-gradient-10" x1="32.4" y1="0.03" x2="32.4" y2="26.07" xlink:href="#linear-gradient"/><clipPath id="clip-path-19" transform="translate(0.33)"><polyline points="18.15 8.07 18.15 17.55 45.87 17.55 45.87 12.81 48.27 12.81 48.27 8.07" style="fill:none;clip-rule:evenodd"/></clipPath></defs><title>layperson</title><rect x="75.36" y="1.83" width="64.14" height="26.04" style="fill:#928788"/><path d="M75.33,2.13m0,25.38V2.13h63.48V27.51Z" transform="translate(0.33)" style="fill:none;stroke:#928788;stroke-linecap:round;stroke-miterlimit:10;stroke-width:0.660000026226044px"/><rect x="73.56" y="0.03" width="64.14" height="26.04" style="fill:url(#linear-gradient)"/><path d="M73.53.33m0,25.38V.33h63.48V25.71Z" transform="translate(0.33)" style="fill:none;stroke:#5053a4;stroke-linecap:round;stroke-miterlimit:10;stroke-width:0.660000026226044px"/><g style="clip-path:url(#clip-path)"><g style="clip-path:url(#clip-path-2)"><path d="M91.378,15.93V9.874h1.189l2.479,4.044V9.874h1.136V15.93H94.955L92.513,11.98V15.93Z" transform="translate(0.33)" style="fill:#fff"/><path d="M98.318,12.881l-1.054-.19a1.642,1.642,0,0,1,.611-.942,2.239,2.239,0,0,1,1.289-.306,2.774,2.774,0,0,1,1.156.184,1.159,1.159,0,0,1,.535.467,2.4,2.4,0,0,1,.155,1.039L101,14.488a4.711,4.711,0,0,0,.056.853,2.458,2.458,0,0,0,.209.589h-1.148a3.59,3.59,0,0,1-.111-.343c-.02-.069-.033-.114-.042-.136a2.1,2.1,0,0,1-.636.434,1.828,1.828,0,0,1-.723.145,1.5,1.5,0,0,1-1.068-.368,1.223,1.223,0,0,1-.391-.929,1.249,1.249,0,0,1,.178-.663,1.169,1.169,0,0,1,.5-.446,3.9,3.9,0,0,1,.924-.271,6.3,6.3,0,0,0,1.127-.285v-.116a.6.6,0,0,0-.165-.477.993.993,0,0,0-.624-.143.827.827,0,0,0-.482.122A.84.84,0,0,0,98.318,12.881Zm1.553.941a7.217,7.217,0,0,1-.706.178,2.109,2.109,0,0,0-.632.2.482.482,0,0,0-.228.409.569.569,0,0,0,.182.421.634.634,0,0,0,.463.178,1,1,0,0,0,.6-.207.732.732,0,0,0,.277-.384,2.351,2.351,0,0,0,.045-.566Z" transform="translate(0.33)" style="fill:#fff"/><path d="M102.051,11.542h1.069v.6a1.722,1.722,0,0,1,1.367-.7,1.477,1.477,0,0,1,.732.174,1.341,1.341,0,0,1,.508.524,2.027,2.027,0,0,1,.623-.524,1.531,1.531,0,0,1,.715-.174,1.592,1.592,0,0,1,.818.2,1.213,1.213,0,0,1,.5.576,2.5,2.5,0,0,1,.119.909v2.8h-1.16V13.422a1.875,1.875,0,0,0-.12-.843.55.55,0,0,0-.5-.248.79.79,0,0,0-.459.149.829.829,0,0,0-.311.436,3.176,3.176,0,0,0-.094.907V15.93H104.7v-2.4a3.309,3.309,0,0,0-.062-.826.521.521,0,0,0-.192-.277.6.6,0,0,0-.353-.091.847.847,0,0,0-.483.145.8.8,0,0,0-.308.417,3.118,3.118,0,0,0-.093.9V15.93h-1.161Z" transform="translate(0.33)" style="fill:#fff"/><path d="M112.184,14.534l1.156.194a1.9,1.9,0,0,1-.7.969,2.069,2.069,0,0,1-1.2.333,1.965,1.965,0,0,1-1.694-.748,2.513,2.513,0,0,1-.434-1.512,2.423,2.423,0,0,1,.57-1.708,1.88,1.88,0,0,1,1.441-.618,1.947,1.947,0,0,1,1.545.646,2.853,2.853,0,0,1,.541,1.981h-2.908a1.177,1.177,0,0,0,.281.8.879.879,0,0,0,.67.287.71.71,0,0,0,.458-.148A.919.919,0,0,0,112.184,14.534Zm.065-1.173a1.116,1.116,0,0,0-.26-.766.837.837,0,0,0-1.23.014,1.067,1.067,0,0,0-.244.752Z" transform="translate(0.33)" style="fill:#fff"/><path d="M113.922,14.678l1.165-.178a.855.855,0,0,0,.3.514,1.022,1.022,0,0,0,.637.176,1.148,1.148,0,0,0,.678-.166.369.369,0,0,0,.152-.31.307.307,0,0,0-.082-.219.937.937,0,0,0-.389-.153,6.269,6.269,0,0,1-1.78-.566,1.131,1.131,0,0,1-.521-.987,1.217,1.217,0,0,1,.45-.958,2.1,2.1,0,0,1,1.4-.389,2.441,2.441,0,0,1,1.339.293,1.5,1.5,0,0,1,.6.868l-1.095.2a.677.677,0,0,0-.267-.392.971.971,0,0,0-.56-.137,1.257,1.257,0,0,0-.656.128.273.273,0,0,0-.133.235.258.258,0,0,0,.115.21,4.379,4.379,0,0,0,1.085.327,3.227,3.227,0,0,1,1.295.516,1.074,1.074,0,0,1,.363.863,1.325,1.325,0,0,1-.5,1.037,2.231,2.231,0,0,1-1.491.434,2.449,2.449,0,0,1-1.419-.363A1.676,1.676,0,0,1,113.922,14.678Z" transform="translate(0.33)" style="fill:#fff"/></g></g><rect x="147.96" y="1.83" width="64.14" height="26.04" style="fill:#928788"/><path d="M147.93,2.13m0,25.38V2.13h63.48V27.51Z" transform="translate(0.33)" style="fill:none;stroke:#928788;stroke-linecap:round;stroke-miterlimit:10;stroke-width:0.660000026226044px"/><rect x="146.16" y="0.03" width="64.14" height="26.04" style="fill:url(#linear-gradient-2)"/><path d="M146.13.33m0,25.38V.33h63.48V25.71Z" transform="translate(0.33)" style="fill:none;stroke:#5053a4;stroke-linecap:round;stroke-miterlimit:10;stroke-width:0.660000026226044px"/><g style="clip-path:url(#clip-path-3)"><g style="clip-path:url(#clip-path-2)"><path d="M155.2,13.959l1.189-.116a1.451,1.451,0,0,0,.436.88,1.318,1.318,0,0,0,.887.281,1.364,1.364,0,0,0,.89-.25.742.742,0,0,0,.3-.584.553.553,0,0,0-.127-.366,1.009,1.009,0,0,0-.439-.262q-.214-.074-.979-.264a3.32,3.32,0,0,1-1.38-.6,1.574,1.574,0,0,1-.558-1.219,1.557,1.557,0,0,1,.262-.865,1.649,1.649,0,0,1,.756-.613,3.032,3.032,0,0,1,1.192-.211,2.553,2.553,0,0,1,1.716.5,1.763,1.763,0,0,1,.605,1.334l-1.223.054a1.036,1.036,0,0,0-.337-.671,1.23,1.23,0,0,0-.774-.2,1.4,1.4,0,0,0-.834.219.441.441,0,0,0-.194.376.466.466,0,0,0,.182.368,3.216,3.216,0,0,0,1.124.4,5.938,5.938,0,0,1,1.319.436,1.691,1.691,0,0,1,.669.615,1.9,1.9,0,0,1-.047,1.939,1.733,1.733,0,0,1-.818.675,3.426,3.426,0,0,1-1.318.221,2.622,2.622,0,0,1-1.764-.531A2.31,2.31,0,0,1,155.2,13.959Z" transform="translate(0.33)" style="fill:#fff"/><path d="M163.144,11.542v.926h-.793v1.768a4.5,4.5,0,0,0,.022.626.254.254,0,0,0,.1.146.331.331,0,0,0,.2.058,1.5,1.5,0,0,0,.467-.112l.1.9a2.307,2.307,0,0,1-.917.173,1.456,1.456,0,0,1-.566-.105.824.824,0,0,1-.369-.272,1.079,1.079,0,0,1-.163-.452,5.691,5.691,0,0,1-.037-.818V12.468h-.533v-.926h.533v-.872l1.165-.677v1.549Z" transform="translate(0.33)" style="fill:#fff"/><path d="M164.808,12.881l-1.053-.19a1.637,1.637,0,0,1,.611-.942,2.239,2.239,0,0,1,1.289-.306,2.777,2.777,0,0,1,1.156.184,1.159,1.159,0,0,1,.535.467,2.406,2.406,0,0,1,.154,1.039l-.012,1.354a4.731,4.731,0,0,0,.055.853,2.5,2.5,0,0,0,.209.589h-1.148q-.045-.116-.111-.343-.029-.1-.041-.136a2.1,2.1,0,0,1-.637.434,1.824,1.824,0,0,1-.723.145,1.5,1.5,0,0,1-1.068-.368,1.223,1.223,0,0,1-.39-.929,1.257,1.257,0,0,1,.177-.663,1.169,1.169,0,0,1,.5-.446,3.913,3.913,0,0,1,.924-.271,6.281,6.281,0,0,0,1.127-.285v-.116a.6.6,0,0,0-.164-.477,1,1,0,0,0-.625-.143.829.829,0,0,0-.482.122A.853.853,0,0,0,164.808,12.881Zm1.553.941a7.181,7.181,0,0,1-.705.178,2.129,2.129,0,0,0-.633.2.484.484,0,0,0-.227.409.569.569,0,0,0,.182.421.634.634,0,0,0,.463.178,1,1,0,0,0,.6-.207.727.727,0,0,0,.277-.384,2.3,2.3,0,0,0,.045-.566Z" transform="translate(0.33)" style="fill:#fff"/><path d="M170.65,11.542v.926h-.794v1.768a4.5,4.5,0,0,0,.022.626.256.256,0,0,0,.1.146.328.328,0,0,0,.2.058,1.5,1.5,0,0,0,.467-.112l.1.9a2.3,2.3,0,0,1-.916.173,1.453,1.453,0,0,1-.566-.105.824.824,0,0,1-.369-.272,1.079,1.079,0,0,1-.164-.452,5.691,5.691,0,0,1-.037-.818V12.468h-.533v-.926h.533v-.872l1.165-.677v1.549Z" transform="translate(0.33)" style="fill:#fff"/><path d="M173.987,14.534l1.156.194a1.9,1.9,0,0,1-.7.969,2.069,2.069,0,0,1-1.2.333,1.965,1.965,0,0,1-1.694-.748,2.513,2.513,0,0,1-.434-1.512,2.423,2.423,0,0,1,.57-1.708,1.88,1.88,0,0,1,1.441-.618,1.947,1.947,0,0,1,1.545.646,2.853,2.853,0,0,1,.541,1.981H172.3a1.177,1.177,0,0,0,.281.8.879.879,0,0,0,.67.287.71.71,0,0,0,.458-.148A.919.919,0,0,0,173.987,14.534Zm.065-1.173a1.116,1.116,0,0,0-.26-.766.837.837,0,0,0-1.23.014,1.067,1.067,0,0,0-.244.752Z" transform="translate(0.33)" style="fill:#fff"/><path d="M176.056,11.542h1.07v.6a1.721,1.721,0,0,1,1.367-.7,1.467,1.467,0,0,1,.73.174,1.322,1.322,0,0,1,.508.524,2.033,2.033,0,0,1,.625-.524,1.527,1.527,0,0,1,.714-.174,1.588,1.588,0,0,1,.817.2,1.2,1.2,0,0,1,.5.576,2.5,2.5,0,0,1,.12.909v2.8h-1.161V13.422a1.865,1.865,0,0,0-.119-.843.55.55,0,0,0-.5-.248.792.792,0,0,0-.458.149.817.817,0,0,0-.31.436,3.091,3.091,0,0,0-.1.907V15.93h-1.16v-2.4a3.341,3.341,0,0,0-.062-.826.531.531,0,0,0-.191-.277.612.612,0,0,0-.354-.091.847.847,0,0,0-.483.145.791.791,0,0,0-.308.417,3.076,3.076,0,0,0-.094.9V15.93h-1.16Z" transform="translate(0.33)" style="fill:#fff"/><path d="M186.2,14.534l1.156.194a1.9,1.9,0,0,1-.7.969,2.072,2.072,0,0,1-1.205.333,1.962,1.962,0,0,1-1.693-.748,2.513,2.513,0,0,1-.434-1.512,2.418,2.418,0,0,1,.57-1.708,1.877,1.877,0,0,1,1.441-.618,1.948,1.948,0,0,1,1.545.646,2.862,2.862,0,0,1,.541,1.981h-2.908a1.168,1.168,0,0,0,.281.8.877.877,0,0,0,.669.287.708.708,0,0,0,.458-.148A.906.906,0,0,0,186.2,14.534Zm.066-1.173a1.12,1.12,0,0,0-.26-.766.838.838,0,0,0-1.231.014,1.066,1.066,0,0,0-.243.752Z" transform="translate(0.33)" style="fill:#fff"/><path d="M192.343,15.93h-1.16V13.691a3.5,3.5,0,0,0-.074-.919.65.65,0,0,0-.242-.324.69.69,0,0,0-.4-.116.928.928,0,0,0-.541.166.825.825,0,0,0-.328.438,3.762,3.762,0,0,0-.09,1.008V15.93h-1.16V11.542h1.078v.645a1.8,1.8,0,0,1,2.148-.6,1.18,1.18,0,0,1,.48.353,1.278,1.278,0,0,1,.228.487,3.683,3.683,0,0,1,.063.781Z" transform="translate(0.33)" style="fill:#fff"/><path d="M195.525,11.542v.926h-.794v1.768a4.5,4.5,0,0,0,.022.626.256.256,0,0,0,.1.146.328.328,0,0,0,.2.058,1.5,1.5,0,0,0,.467-.112l.1.9a2.3,2.3,0,0,1-.916.173,1.453,1.453,0,0,1-.566-.105.824.824,0,0,1-.369-.272,1.079,1.079,0,0,1-.164-.452,5.691,5.691,0,0,1-.037-.818V12.468h-.533v-.926h.533v-.872l1.165-.677v1.549Z" transform="translate(0.33)" style="fill:#fff"/><path d="M195.913,14.678l1.165-.178a.855.855,0,0,0,.3.514,1.022,1.022,0,0,0,.637.176,1.148,1.148,0,0,0,.678-.166.369.369,0,0,0,.152-.31.307.307,0,0,0-.082-.219.937.937,0,0,0-.389-.153,6.269,6.269,0,0,1-1.78-.566,1.131,1.131,0,0,1-.521-.987,1.217,1.217,0,0,1,.45-.958,2.1,2.1,0,0,1,1.4-.389,2.441,2.441,0,0,1,1.339.293,1.5,1.5,0,0,1,.6.868l-1.095.2a.677.677,0,0,0-.267-.392.971.971,0,0,0-.56-.137,1.257,1.257,0,0,0-.656.128.273.273,0,0,0-.133.235.258.258,0,0,0,.115.21,4.379,4.379,0,0,0,1.085.327,3.227,3.227,0,0,1,1.295.516,1.074,1.074,0,0,1,.363.863,1.325,1.325,0,0,1-.5,1.037,2.231,2.231,0,0,1-1.491.434,2.449,2.449,0,0,1-1.419-.363A1.676,1.676,0,0,1,195.913,14.678Z" transform="translate(0.33)" style="fill:#fff"/></g></g><path d="M138.57,63.87c0,7.02-14.22,12.72-31.8,12.72-17.52,0-31.74-5.7-31.74-12.72s14.22-12.72,31.74-12.72c17.58,0,31.8,5.7,31.8,12.72" transform="translate(0.33)" style="fill:#928788;fill-rule:evenodd"/><path d="M138.51,63.87c0,7.02-14.16,12.66-31.74,12.66-17.52,0-31.74-5.64-31.74-12.66s14.22-12.72,31.74-12.72C124.35,51.15,138.51,56.85,138.51,63.87Z" transform="translate(0.33)" style="fill:none;stroke:#928788;stroke-linecap:round;stroke-miterlimit:10;stroke-width:0.660000026226044px"/><path d="M136.77,62.07c0,7.02-14.22,12.72-31.8,12.72-17.52,0-31.74-5.7-31.74-12.72s14.22-12.72,31.74-12.72c17.58,0,31.8,5.7,31.8,12.72" transform="translate(0.33)" style="fill-rule:evenodd;fill:url(#linear-gradient-3)"/><path d="M136.71,62.07c0,7.02-14.16,12.66-31.74,12.66-17.52,0-31.74-5.64-31.74-12.66s14.22-12.72,31.74-12.72C122.55,49.35,136.71,55.05,136.71,62.07Z" transform="translate(0.33)" style="fill:none;stroke:#5053a4;stroke-linecap:round;stroke-miterlimit:10;stroke-width:0.660000026226044px"/><g style="clip-path:url(#clip-path-5)"><g style="clip-path:url(#clip-path-6)"><path d="M92.27,64.89V58.834h2.573A4.407,4.407,0,0,1,96.254,59a1.4,1.4,0,0,1,.7.58,1.751,1.751,0,0,1,.265.955,1.615,1.615,0,0,1-.4,1.125,1.92,1.92,0,0,1-1.2.56,2.861,2.861,0,0,1,.654.508,6.936,6.936,0,0,1,.7.983l.739,1.182H96.252l-.884-1.318a8.409,8.409,0,0,0-.645-.89.937.937,0,0,0-.367-.252,2.018,2.018,0,0,0-.615-.068h-.248V64.89ZM93.493,61.4h.9a4.683,4.683,0,0,0,1.1-.074.656.656,0,0,0,.343-.256.785.785,0,0,0,.124-.455.724.724,0,0,0-.163-.494.748.748,0,0,0-.46-.237c-.1-.014-.4-.021-.893-.021h-.954Z" transform="translate(0.33)" style="fill:#fff"/><path d="M100.9,63.494l1.156.194a1.892,1.892,0,0,1-.7.969,2.067,2.067,0,0,1-1.2.333,1.962,1.962,0,0,1-1.693-.748,2.513,2.513,0,0,1-.434-1.512,2.422,2.422,0,0,1,.569-1.708,1.881,1.881,0,0,1,1.442-.618,1.95,1.95,0,0,1,1.545.646,2.862,2.862,0,0,1,.541,1.981H99.21a1.168,1.168,0,0,0,.281.8.875.875,0,0,0,.669.287.71.71,0,0,0,.458-.148A.919.919,0,0,0,100.9,63.494Zm.066-1.173a1.121,1.121,0,0,0-.261-.766.8.8,0,0,0-.6-.263.805.805,0,0,0-.628.277,1.067,1.067,0,0,0-.244.752Z" transform="translate(0.33)" style="fill:#fff"/><path d="M103.055,64.89V58.834h1.161V64.89Z" transform="translate(0.33)" style="fill:#fff"/><path d="M106.273,61.842l-1.054-.19a1.642,1.642,0,0,1,.611-.942,2.239,2.239,0,0,1,1.289-.306,2.774,2.774,0,0,1,1.156.184,1.154,1.154,0,0,1,.535.467,2.388,2.388,0,0,1,.155,1.039l-.013,1.354a4.711,4.711,0,0,0,.056.853,2.458,2.458,0,0,0,.209.589H108.07q-.045-.116-.111-.343c-.02-.069-.033-.114-.042-.136a2.1,2.1,0,0,1-.636.434,1.824,1.824,0,0,1-.723.145,1.5,1.5,0,0,1-1.068-.368,1.223,1.223,0,0,1-.39-.929,1.248,1.248,0,0,1,.177-.663,1.169,1.169,0,0,1,.5-.446,3.913,3.913,0,0,1,.924-.271,6.3,6.3,0,0,0,1.127-.285v-.116a.6.6,0,0,0-.165-.477.993.993,0,0,0-.624-.143.829.829,0,0,0-.482.122A.84.84,0,0,0,106.273,61.842Zm1.553.941a7.143,7.143,0,0,1-.706.178,2.109,2.109,0,0,0-.632.2.485.485,0,0,0-.228.409.569.569,0,0,0,.182.421.634.634,0,0,0,.463.178,1,1,0,0,0,.6-.207.727.727,0,0,0,.277-.384,2.3,2.3,0,0,0,.045-.566Z" transform="translate(0.33)" style="fill:#fff"/><path d="M112.114,60.5v.926h-.793V63.2a4.5,4.5,0,0,0,.022.626.256.256,0,0,0,.1.146.328.328,0,0,0,.2.058,1.5,1.5,0,0,0,.467-.112l.1.9a2.3,2.3,0,0,1-.917.173,1.451,1.451,0,0,1-.565-.105.833.833,0,0,1-.37-.272,1.079,1.079,0,0,1-.163-.452,5.691,5.691,0,0,1-.037-.818V61.429h-.533V60.5h.533v-.872l1.165-.677V60.5Z" transform="translate(0.33)" style="fill:#fff"/><path d="M115.46,63.494l1.156.194a1.9,1.9,0,0,1-.7.969,2.071,2.071,0,0,1-1.2.333,1.963,1.963,0,0,1-1.694-.748,2.513,2.513,0,0,1-.434-1.512,2.423,2.423,0,0,1,.57-1.708,1.877,1.877,0,0,1,1.441-.618,1.947,1.947,0,0,1,1.545.646,2.857,2.857,0,0,1,.541,1.981H113.77a1.177,1.177,0,0,0,.281.8.877.877,0,0,0,.669.287.712.712,0,0,0,.459-.148A.919.919,0,0,0,115.46,63.494Zm.065-1.173a1.116,1.116,0,0,0-.26-.766.838.838,0,0,0-1.231.014,1.071,1.071,0,0,0-.243.752Z" transform="translate(0.33)" style="fill:#fff"/></g></g><rect x="219.96" y="1.83" width="64.74" height="26.04" style="fill:#928788"/><path d="M219.93,2.13m0,25.38V2.13h64.08V27.51Z" transform="translate(0.33)" style="fill:none;stroke:#928788;stroke-linecap:round;stroke-miterlimit:10;stroke-width:0.660000026226044px"/><rect x="218.16" y="0.03" width="64.74" height="26.04" style="fill:url(#linear-gradient-4)"/><path d="M218.13.33m0,25.38V.33h64.08V25.71Z" transform="translate(0.33)" style="fill:none;stroke:#5053a4;stroke-linecap:round;stroke-miterlimit:10;stroke-width:0.660000026226044px"/><g style="clip-path:url(#clip-path-7)"><g style="clip-path:url(#clip-path-2)"><path d="M223.6,12.939a3.868,3.868,0,0,1,.276-1.553,2.867,2.867,0,0,1,.564-.83,2.351,2.351,0,0,1,.783-.545,3.32,3.32,0,0,1,1.3-.24,2.845,2.845,0,0,1,2.143.831,3.183,3.183,0,0,1,.8,2.309,3.172,3.172,0,0,1-.8,2.294,3.183,3.183,0,0,1-4.279,0A3.125,3.125,0,0,1,223.6,12.939Zm1.26-.042a2.266,2.266,0,0,0,.476,1.56,1.633,1.633,0,0,0,2.406,0,2.313,2.313,0,0,0,.469-1.58,2.274,2.274,0,0,0-.457-1.553,1.691,1.691,0,0,0-2.431.006A2.288,2.288,0,0,0,224.858,12.9Z" transform="translate(0.33)" style="fill:#fff"/><path d="M230.385,15.93V9.875h1.161v2.181a1.64,1.64,0,0,1,1.271-.612,1.71,1.71,0,0,1,1.326.581,2.4,2.4,0,0,1,.525,1.667,2.536,2.536,0,0,1-.535,1.73,1.671,1.671,0,0,1-1.3.607,1.607,1.607,0,0,1-.742-.188,1.771,1.771,0,0,1-.63-.556v.645Zm1.152-2.289a1.861,1.861,0,0,0,.215,1.008.918.918,0,0,0,.8.463.819.819,0,0,0,.654-.329,1.613,1.613,0,0,0,.271-1.035,1.715,1.715,0,0,0-.273-1.084.862.862,0,0,0-.7-.333.878.878,0,0,0-.7.324A1.5,1.5,0,0,0,231.538,13.642Z" transform="translate(0.33)" style="fill:#fff"/><path d="M235.194,14.679l1.165-.178a.855.855,0,0,0,.3.514,1.022,1.022,0,0,0,.637.176,1.148,1.148,0,0,0,.678-.166.369.369,0,0,0,.152-.31.307.307,0,0,0-.082-.219.937.937,0,0,0-.389-.153,6.269,6.269,0,0,1-1.78-.566,1.131,1.131,0,0,1-.521-.987,1.217,1.217,0,0,1,.45-.958,2.1,2.1,0,0,1,1.4-.389,2.441,2.441,0,0,1,1.339.293,1.5,1.5,0,0,1,.6.868l-1.095.2a.677.677,0,0,0-.267-.392.971.971,0,0,0-.56-.137,1.257,1.257,0,0,0-.656.128.273.273,0,0,0-.133.235.258.258,0,0,0,.115.21,4.379,4.379,0,0,0,1.085.327,3.227,3.227,0,0,1,1.295.516,1.074,1.074,0,0,1,.363.863,1.325,1.325,0,0,1-.5,1.037,2.231,2.231,0,0,1-1.491.434,2.449,2.449,0,0,1-1.419-.363A1.676,1.676,0,0,1,235.194,14.679Z" transform="translate(0.33)" style="fill:#fff"/><path d="M242.84,14.534l1.156.194a1.9,1.9,0,0,1-.7.969,2.069,2.069,0,0,1-1.2.333,1.965,1.965,0,0,1-1.694-.748,2.513,2.513,0,0,1-.434-1.512,2.423,2.423,0,0,1,.57-1.708,1.88,1.88,0,0,1,1.441-.618,1.947,1.947,0,0,1,1.545.646,2.853,2.853,0,0,1,.541,1.981H241.15a1.177,1.177,0,0,0,.281.8.879.879,0,0,0,.67.287.71.71,0,0,0,.458-.148A.919.919,0,0,0,242.84,14.534Zm.065-1.173a1.116,1.116,0,0,0-.26-.766.837.837,0,0,0-1.23.014,1.067,1.067,0,0,0-.244.752Z" transform="translate(0.33)" style="fill:#fff"/><path d="M246.107,15.93h-1.16V11.543h1.078v.624a1.853,1.853,0,0,1,.5-.583.911.911,0,0,1,.5-.141,1.474,1.474,0,0,1,.765.219l-.359,1.012a1.016,1.016,0,0,0-.545-.19.647.647,0,0,0-.414.134.922.922,0,0,0-.266.485,6.9,6.9,0,0,0-.1,1.471Z" transform="translate(0.33)" style="fill:#fff"/><path d="M249.486,15.93l-1.768-4.387h1.219l.826,2.239.238.748c.064-.19.1-.315.121-.376.038-.124.079-.248.123-.372l.835-2.239h1.193l-1.743,4.387Z" transform="translate(0.33)" style="fill:#fff"/><path d="M253.709,12.882l-1.053-.19a1.637,1.637,0,0,1,.611-.942,2.239,2.239,0,0,1,1.289-.306,2.777,2.777,0,0,1,1.156.184,1.159,1.159,0,0,1,.535.467,2.406,2.406,0,0,1,.154,1.039l-.012,1.354a4.731,4.731,0,0,0,.055.853,2.5,2.5,0,0,0,.209.589h-1.148q-.045-.116-.111-.343-.029-.1-.041-.136a2.1,2.1,0,0,1-.637.434,1.824,1.824,0,0,1-.723.145,1.5,1.5,0,0,1-1.068-.368,1.223,1.223,0,0,1-.39-.929,1.257,1.257,0,0,1,.177-.663,1.169,1.169,0,0,1,.5-.446,3.913,3.913,0,0,1,.924-.271,6.281,6.281,0,0,0,1.127-.285v-.116a.6.6,0,0,0-.164-.477,1,1,0,0,0-.625-.143.829.829,0,0,0-.482.122A.853.853,0,0,0,253.709,12.882Zm1.553.941a7.181,7.181,0,0,1-.705.178,2.129,2.129,0,0,0-.633.2.484.484,0,0,0-.227.409.569.569,0,0,0,.182.421.634.634,0,0,0,.463.178,1,1,0,0,0,.6-.207.727.727,0,0,0,.277-.384,2.3,2.3,0,0,0,.045-.566Z" transform="translate(0.33)" style="fill:#fff"/><path d="M259.533,11.543v.926h-.793v1.768a4.5,4.5,0,0,0,.022.626.254.254,0,0,0,.1.146.331.331,0,0,0,.2.058,1.5,1.5,0,0,0,.467-.112l.1.9a2.307,2.307,0,0,1-.917.173,1.456,1.456,0,0,1-.566-.105.824.824,0,0,1-.369-.272,1.079,1.079,0,0,1-.163-.452,5.691,5.691,0,0,1-.037-.818V12.469h-.533v-.926h.533v-.872l1.165-.677v1.549Z" transform="translate(0.33)" style="fill:#fff"/><path d="M260.33,10.948V9.875h1.16v1.074Zm0,4.982V11.543h1.16V15.93Z" transform="translate(0.33)" style="fill:#fff"/><path d="M262.412,13.675a2.369,2.369,0,0,1,.285-1.12,1.954,1.954,0,0,1,.807-.826,2.4,2.4,0,0,1,1.168-.285,2.19,2.19,0,0,1,1.631.646,2.231,2.231,0,0,1,.637,1.634,2.262,2.262,0,0,1-.643,1.65,2.169,2.169,0,0,1-1.617.655,2.549,2.549,0,0,1-1.15-.272,1.867,1.867,0,0,1-.832-.8A2.659,2.659,0,0,1,262.412,13.675Zm1.189.062a1.451,1.451,0,0,0,.311,1,1.011,1.011,0,0,0,1.525,0,1.474,1.474,0,0,0,.309-1.008,1.448,1.448,0,0,0-.309-.992,1.012,1.012,0,0,0-1.525,0A1.452,1.452,0,0,0,263.6,13.737Z" transform="translate(0.33)" style="fill:#fff"/><path d="M271.837,15.93h-1.16V13.691a3.5,3.5,0,0,0-.074-.919.65.65,0,0,0-.242-.324.69.69,0,0,0-.4-.116.928.928,0,0,0-.541.166.825.825,0,0,0-.328.438,3.762,3.762,0,0,0-.09,1.008V15.93h-1.16V11.543h1.078v.645a1.8,1.8,0,0,1,2.148-.6,1.18,1.18,0,0,1,.48.353,1.278,1.278,0,0,1,.228.487,3.683,3.683,0,0,1,.063.781Z" transform="translate(0.33)" style="fill:#fff"/><path d="M272.607,14.679l1.164-.178a.856.856,0,0,0,.3.514,1.019,1.019,0,0,0,.636.176,1.146,1.146,0,0,0,.678-.166.37.37,0,0,0,.153-.31.307.307,0,0,0-.083-.219.931.931,0,0,0-.389-.153,6.247,6.247,0,0,1-1.779-.566,1.13,1.13,0,0,1-.521-.987,1.215,1.215,0,0,1,.451-.958,2.1,2.1,0,0,1,1.4-.389,2.437,2.437,0,0,1,1.338.293,1.51,1.51,0,0,1,.6.868l-1.1.2a.676.676,0,0,0-.266-.392.974.974,0,0,0-.561-.137,1.261,1.261,0,0,0-.656.128.276.276,0,0,0-.133.235.257.257,0,0,0,.116.21,4.347,4.347,0,0,0,1.085.327,3.239,3.239,0,0,1,1.295.516,1.074,1.074,0,0,1,.363.863,1.325,1.325,0,0,1-.5,1.037,2.234,2.234,0,0,1-1.492.434,2.443,2.443,0,0,1-1.418-.363A1.676,1.676,0,0,1,272.607,14.679Z" transform="translate(0.33)" style="fill:#fff"/></g></g><path d="M65.34,63.87c0,7.02-14.22,12.72-31.8,12.72-17.52,0-31.74-5.7-31.74-12.72S16.02,51.15,33.54,51.15c17.58,0,31.8,5.7,31.8,12.72" transform="translate(0.33)" style="fill:#928788;fill-rule:evenodd"/><path d="M65.28,63.87c0,7.02-14.16,12.66-31.74,12.66C16.02,76.53,1.8,70.89,1.8,63.87S16.02,51.15,33.54,51.15C51.12,51.15,65.28,56.85,65.28,63.87Z" transform="translate(0.33)" style="fill:none;stroke:#928788;stroke-linecap:round;stroke-miterlimit:10;stroke-width:0.660000026226044px"/><path d="M63.54,62.07c0,7.02-14.22,12.72-31.8,12.72C14.22,74.79,0,69.09,0,62.07S14.22,49.35,31.74,49.35c17.58,0,31.8,5.7,31.8,12.72" transform="translate(0.33)" style="fill-rule:evenodd;fill:url(#linear-gradient-5)"/><path d="M63.48,62.07c0,7.02-14.16,12.66-31.74,12.66C14.22,74.73,0,69.09,0,62.07S14.22,49.35,31.74,49.35C49.32,49.35,63.48,55.05,63.48,62.07Z" transform="translate(0.33)" style="fill:none;stroke:#5053a4;stroke-linecap:round;stroke-miterlimit:10;stroke-width:0.660000026226044px"/><g style="clip-path:url(#clip-path-9)"><g style="clip-path:url(#clip-path-10)"><path d="M21.71,62.664l1.186.376a2.656,2.656,0,0,1-.906,1.473,2.853,2.853,0,0,1-3.592-.343,3.154,3.154,0,0,1-.776-2.253,3.311,3.311,0,0,1,.78-2.349,2.677,2.677,0,0,1,2.053-.836,2.521,2.521,0,0,1,1.806.657,2.389,2.389,0,0,1,.619,1.115l-1.21.29a1.251,1.251,0,0,0-1.276-1.016,1.377,1.377,0,0,0-1.093.483,2.371,2.371,0,0,0-.419,1.566,2.54,2.54,0,0,0,.413,1.636,1.341,1.341,0,0,0,1.074.487,1.225,1.225,0,0,0,.838-.31A1.8,1.8,0,0,0,21.71,62.664Z" transform="translate(0.33)" style="fill:#fff"/><path d="M23.661,62.635a2.379,2.379,0,0,1,.284-1.12,1.962,1.962,0,0,1,.808-.826,2.4,2.4,0,0,1,1.167-.285,2.191,2.191,0,0,1,1.632.646,2.231,2.231,0,0,1,.637,1.634,2.262,2.262,0,0,1-.643,1.65,2.172,2.172,0,0,1-1.617.655,2.546,2.546,0,0,1-1.15-.272,1.874,1.874,0,0,1-.833-.8A2.67,2.67,0,0,1,23.661,62.635Zm1.189.062a1.456,1.456,0,0,0,.31,1,1.012,1.012,0,0,0,1.526,0,1.474,1.474,0,0,0,.308-1.008,1.448,1.448,0,0,0-.308-.992,1.013,1.013,0,0,0-1.526,0A1.457,1.457,0,0,0,24.85,62.7Z" transform="translate(0.33)" style="fill:#fff"/><path d="M29.088,64.89V58.834h1.16V64.89Z" transform="translate(0.33)" style="fill:#fff"/><path d="M31.43,64.89V58.834h1.161V64.89Z" transform="translate(0.33)" style="fill:#fff"/><path d="M36.313,63.494l1.156.194a1.9,1.9,0,0,1-.7.969,2.071,2.071,0,0,1-1.2.333,1.963,1.963,0,0,1-1.694-.748,2.513,2.513,0,0,1-.434-1.512A2.423,2.423,0,0,1,34,61.021a1.877,1.877,0,0,1,1.441-.618,1.947,1.947,0,0,1,1.545.646,2.857,2.857,0,0,1,.541,1.981H34.623a1.177,1.177,0,0,0,.281.8.877.877,0,0,0,.669.287.712.712,0,0,0,.459-.148A.919.919,0,0,0,36.313,63.494Zm.065-1.173a1.116,1.116,0,0,0-.26-.766.838.838,0,0,0-1.231.014,1.071,1.071,0,0,0-.243.752Z" transform="translate(0.33)" style="fill:#fff"/><path d="M42.294,61.8l-1.145.207a.832.832,0,0,0-.263-.517.793.793,0,0,0-.53-.173.869.869,0,0,0-.692.3,1.537,1.537,0,0,0-.258,1,1.776,1.776,0,0,0,.262,1.1.862.862,0,0,0,.705.322.785.785,0,0,0,.541-.188,1.128,1.128,0,0,0,.3-.646l1.141.194a2.026,2.026,0,0,1-.682,1.186,2.107,2.107,0,0,1-1.351.4,2.009,2.009,0,0,1-1.535-.607,2.767,2.767,0,0,1,0-3.373A2.04,2.04,0,0,1,40.34,60.4a2.119,2.119,0,0,1,1.274.345A1.915,1.915,0,0,1,42.294,61.8Z" transform="translate(0.33)" style="fill:#fff"/><path d="M45.177,60.5v.926h-.794V63.2a4.261,4.261,0,0,0,.023.626.25.25,0,0,0,.1.146.328.328,0,0,0,.2.058,1.49,1.49,0,0,0,.467-.112l.1.9a2.311,2.311,0,0,1-.917.173,1.453,1.453,0,0,1-.566-.105.824.824,0,0,1-.369-.272,1.066,1.066,0,0,1-.163-.452,5.544,5.544,0,0,1-.037-.818V61.429h-.533V60.5h.533v-.872l1.164-.677V60.5Z" transform="translate(0.33)" style="fill:#fff"/></g></g><path d="M284.07,63.87c0,7.02-14.22,12.72-31.8,12.72-17.52,0-31.74-5.7-31.74-12.72s14.22-12.72,31.74-12.72c17.58,0,31.8,5.7,31.8,12.72" transform="translate(0.33)" style="fill:#928788;fill-rule:evenodd"/><path d="M284.01,63.87c0,7.02-14.16,12.66-31.74,12.66-17.52,0-31.74-5.64-31.74-12.66s14.22-12.72,31.74-12.72C269.85,51.15,284.01,56.85,284.01,63.87Z" transform="translate(0.33)" style="fill:none;stroke:#928788;stroke-linecap:round;stroke-miterlimit:10;stroke-width:0.660000026226044px"/><path d="M282.27,62.07c0,7.02-14.22,12.72-31.8,12.72-17.52,0-31.74-5.7-31.74-12.72s14.22-12.72,31.74-12.72c17.58,0,31.8,5.7,31.8,12.72" transform="translate(0.33)" style="fill-rule:evenodd;fill:url(#linear-gradient-6)"/><path d="M282.21,62.07c0,7.02-14.16,12.66-31.74,12.66-17.52,0-31.74-5.64-31.74-12.66s14.22-12.72,31.74-12.72C268.05,49.35,282.21,55.05,282.21,62.07Z" transform="translate(0.33)" style="fill:none;stroke:#5053a4;stroke-linecap:round;stroke-miterlimit:10;stroke-width:0.660000026226044px"/><g style="clip-path:url(#clip-path-11)"><g style="clip-path:url(#clip-path-2)"><path d="M244.427,64.89H243.1l-.529-1.375h-2.42l-.5,1.375h-1.3l2.358-6.056H242Zm-2.252-2.4-.834-2.247-.818,2.247Z" transform="translate(0.33)" style="fill:#fff"/><path d="M244.806,60.5h1.082v.645a1.613,1.613,0,0,1,.57-.537,1.574,1.574,0,0,1,.8-.207,1.671,1.671,0,0,1,1.3.6,2.423,2.423,0,0,1,.533,1.669,2.5,2.5,0,0,1-.537,1.708,1.671,1.671,0,0,1-1.3.609,1.491,1.491,0,0,1-.659-.145,2.25,2.25,0,0,1-.622-.5v2.21h-1.16Zm1.148,2.119a1.691,1.691,0,0,0,.293,1.093.9.9,0,0,0,.715.353.839.839,0,0,0,.674-.324,1.671,1.671,0,0,0,.268-1.063,1.586,1.586,0,0,0-.276-1.024.857.857,0,0,0-.686-.334.89.89,0,0,0-.706.328A1.46,1.46,0,0,0,245.955,62.622Z" transform="translate(0.33)" style="fill:#fff"/><path d="M249.974,60.5h1.082v.645a1.613,1.613,0,0,1,.57-.537,1.569,1.569,0,0,1,.8-.207,1.672,1.672,0,0,1,1.3.6,2.423,2.423,0,0,1,.533,1.669,2.5,2.5,0,0,1-.537,1.708,1.674,1.674,0,0,1-1.3.609,1.492,1.492,0,0,1-.66-.145,2.233,2.233,0,0,1-.621-.5v2.21h-1.16Zm1.148,2.119a1.691,1.691,0,0,0,.293,1.093.9.9,0,0,0,.715.353.836.836,0,0,0,.673-.324,1.671,1.671,0,0,0,.269-1.063,1.58,1.58,0,0,0-.277-1.024.854.854,0,0,0-.686-.334.891.891,0,0,0-.706.328A1.46,1.46,0,0,0,251.123,62.622Z" transform="translate(0.33)" style="fill:#fff"/><path d="M255.174,64.89V58.834h1.161V64.89Z" transform="translate(0.33)" style="fill:#fff"/><path d="M256.975,60.5h1.235l1.049,3.114,1.025-3.114h1.2l-1.549,4.222-.277.765a3.059,3.059,0,0,1-.291.586,1.277,1.277,0,0,1-.317.329,1.4,1.4,0,0,1-.442.2,2.29,2.29,0,0,1-.593.07,3.079,3.079,0,0,1-.657-.07l-.1-.908a2.612,2.612,0,0,0,.491.054.731.731,0,0,0,.6-.237,1.656,1.656,0,0,0,.3-.605Z" transform="translate(0.33)" style="fill:#fff"/></g></g><rect x="291.36" y="0.03" width="64.14" height="26.04" style="fill:url(#linear-gradient-7)"/><path d="M291.33.33m0,25.38V.33h63.48V25.71Z" transform="translate(0.33)" style="fill:none;stroke:#5053a4;stroke-linecap:round;stroke-miterlimit:10;stroke-width:0.660000026226044px"/><g style="clip-path:url(#clip-path-13)"><g style="clip-path:url(#clip-path-2)"><path d="M309.169,9.875h2.421a7.03,7.03,0,0,1,1.071.06,1.528,1.528,0,0,1,1.1.756,1.381,1.381,0,0,1,.186.708,1.407,1.407,0,0,1-.229.781,1.426,1.426,0,0,1-.622.533,1.6,1.6,0,0,1,.852.549,1.457,1.457,0,0,1,.3.913,1.8,1.8,0,0,1-.191.8,1.616,1.616,0,0,1-.525.624,1.722,1.722,0,0,1-.819.287q-.306.034-1.475.042h-2.062Zm1.223,1.008v1.4h.8c.477,0,.773-.007.889-.021a.81.81,0,0,0,.494-.217.641.641,0,0,0,.18-.473.664.664,0,0,0-.155-.457.7.7,0,0,0-.46-.213q-.183-.021-1.046-.021Zm0,2.408V14.91h1.132a5.532,5.532,0,0,0,.839-.037.75.75,0,0,0,.443-.242.739.739,0,0,0,.172-.514.784.784,0,0,0-.133-.462.743.743,0,0,0-.381-.277,4.15,4.15,0,0,0-1.085-.087Z" transform="translate(0.33)" style="fill:#fff"/><path d="M317.8,14.534l1.156.194a1.9,1.9,0,0,1-.7.969,2.072,2.072,0,0,1-1.205.333,1.962,1.962,0,0,1-1.693-.748,2.513,2.513,0,0,1-.434-1.512,2.418,2.418,0,0,1,.57-1.708,1.877,1.877,0,0,1,1.441-.618,1.948,1.948,0,0,1,1.545.646,2.862,2.862,0,0,1,.541,1.981h-2.908a1.168,1.168,0,0,0,.281.8.877.877,0,0,0,.669.287.708.708,0,0,0,.458-.148A.906.906,0,0,0,317.8,14.534Zm.066-1.173a1.12,1.12,0,0,0-.26-.766.838.838,0,0,0-1.231.014,1.066,1.066,0,0,0-.243.752Z" transform="translate(0.33)" style="fill:#fff"/><path d="M319.955,15.93V9.875h1.161V15.93Z" transform="translate(0.33)" style="fill:#fff"/><path d="M322.305,10.948V9.875h1.161v1.074Zm0,4.982V11.543h1.161V15.93Z" transform="translate(0.33)" style="fill:#fff"/><path d="M327.2,14.534l1.156.194a1.894,1.894,0,0,1-.705.969,2.066,2.066,0,0,1-1.2.333,1.963,1.963,0,0,1-1.694-.748,2.513,2.513,0,0,1-.434-1.512,2.427,2.427,0,0,1,.569-1.708,1.881,1.881,0,0,1,1.442-.618,1.948,1.948,0,0,1,1.545.646,2.857,2.857,0,0,1,.541,1.981h-2.908a1.177,1.177,0,0,0,.281.8.875.875,0,0,0,.669.287.714.714,0,0,0,.459-.148A.932.932,0,0,0,327.2,14.534Zm.065-1.173a1.116,1.116,0,0,0-.261-.766.8.8,0,0,0-.6-.263.807.807,0,0,0-.628.277,1.071,1.071,0,0,0-.244.752Z" transform="translate(0.33)" style="fill:#fff"/><path d="M328.844,11.543h.645v-.33a2.181,2.181,0,0,1,.118-.826.926.926,0,0,1,.434-.444,1.663,1.663,0,0,1,.8-.171,3.232,3.232,0,0,1,.971.149l-.156.81a2.313,2.313,0,0,0-.533-.066.473.473,0,0,0-.361.118.679.679,0,0,0-.109.452v.31h.867v.913h-.867V15.93h-1.161V12.456h-.645Z" transform="translate(0.33)" style="fill:#fff"/><path d="M331.76,14.679l1.165-.178a.855.855,0,0,0,.3.514,1.022,1.022,0,0,0,.637.176,1.148,1.148,0,0,0,.678-.166.369.369,0,0,0,.152-.31.307.307,0,0,0-.082-.219.937.937,0,0,0-.389-.153,6.269,6.269,0,0,1-1.78-.566,1.131,1.131,0,0,1-.521-.987,1.217,1.217,0,0,1,.45-.958,2.1,2.1,0,0,1,1.4-.389,2.441,2.441,0,0,1,1.339.293,1.5,1.5,0,0,1,.6.868l-1.095.2a.677.677,0,0,0-.267-.392.971.971,0,0,0-.56-.137,1.257,1.257,0,0,0-.656.128.273.273,0,0,0-.133.235.258.258,0,0,0,.115.21,4.379,4.379,0,0,0,1.085.327,3.227,3.227,0,0,1,1.295.516,1.074,1.074,0,0,1,.363.863,1.325,1.325,0,0,1-.5,1.037,2.231,2.231,0,0,1-1.491.434,2.449,2.449,0,0,1-1.419-.363A1.676,1.676,0,0,1,331.76,14.679Z" transform="translate(0.33)" style="fill:#fff"/></g></g><path d="M211.47,63.87c0,7.02-14.22,12.72-31.8,12.72-17.52,0-31.74-5.7-31.74-12.72s14.22-12.72,31.74-12.72c17.58,0,31.8,5.7,31.8,12.72" transform="translate(0.33)" style="fill:#928788;fill-rule:evenodd"/><path d="M211.41,63.87c0,7.02-14.16,12.66-31.74,12.66-17.52,0-31.74-5.64-31.74-12.66s14.22-12.72,31.74-12.72C197.25,51.15,211.41,56.85,211.41,63.87Z" transform="translate(0.33)" style="fill:none;stroke:#928788;stroke-linecap:round;stroke-miterlimit:10;stroke-width:0.660000026226044px"/><path d="M209.67,62.07c0,7.02-14.22,12.72-31.8,12.72-17.52,0-31.74-5.7-31.74-12.72s14.22-12.72,31.74-12.72c17.58,0,31.8,5.7,31.8,12.72" transform="translate(0.33)" style="fill-rule:evenodd;fill:url(#linear-gradient-8)"/><path d="M209.61,62.07c0,7.02-14.16,12.66-31.74,12.66-17.52,0-31.74-5.64-31.74-12.66s14.22-12.72,31.74-12.72C195.45,49.35,209.61,55.05,209.61,62.07Z" transform="translate(0.33)" style="fill:none;stroke:#5053a4;stroke-linecap:round;stroke-miterlimit:10;stroke-width:0.660000026226044px"/><g style="clip-path:url(#clip-path-15)"><g style="clip-path:url(#clip-path-2)"><path d="M162.77,64.89V58.834h2.573a4.407,4.407,0,0,1,1.411.163,1.392,1.392,0,0,1,.7.58,1.751,1.751,0,0,1,.265.955,1.615,1.615,0,0,1-.4,1.125,1.92,1.92,0,0,1-1.2.56,2.861,2.861,0,0,1,.654.508,6.936,6.936,0,0,1,.7.983l.739,1.182h-1.463l-.883-1.318a8.715,8.715,0,0,0-.645-.89.94.94,0,0,0-.368-.252,2.018,2.018,0,0,0-.615-.068h-.248V64.89Zm1.223-3.495h.905a4.678,4.678,0,0,0,1.1-.074.662.662,0,0,0,.344-.256.792.792,0,0,0,.123-.455.728.728,0,0,0-.162-.494.754.754,0,0,0-.461-.237c-.1-.014-.4-.021-.893-.021h-.954Z" transform="translate(0.33)" style="fill:#fff"/><path d="M171.4,63.494l1.156.194a1.894,1.894,0,0,1-.705.969,2.066,2.066,0,0,1-1.2.333,1.963,1.963,0,0,1-1.694-.748,2.513,2.513,0,0,1-.434-1.512,2.427,2.427,0,0,1,.569-1.708,1.881,1.881,0,0,1,1.442-.618,1.948,1.948,0,0,1,1.545.646,2.857,2.857,0,0,1,.541,1.981H169.71a1.177,1.177,0,0,0,.281.8.875.875,0,0,0,.669.287.714.714,0,0,0,.459-.148A.932.932,0,0,0,171.4,63.494Zm.065-1.173a1.116,1.116,0,0,0-.261-.766.8.8,0,0,0-.6-.263.807.807,0,0,0-.628.277,1.071,1.071,0,0,0-.244.752Z" transform="translate(0.33)" style="fill:#fff"/><path d="M174.423,61.842l-1.054-.19a1.642,1.642,0,0,1,.611-.942,2.239,2.239,0,0,1,1.289-.306,2.774,2.774,0,0,1,1.156.184,1.159,1.159,0,0,1,.535.467,2.4,2.4,0,0,1,.155,1.039l-.013,1.354a4.711,4.711,0,0,0,.056.853,2.458,2.458,0,0,0,.209.589H176.22a3.59,3.59,0,0,1-.111-.343c-.02-.069-.033-.114-.042-.136a2.1,2.1,0,0,1-.636.434,1.828,1.828,0,0,1-.723.145,1.5,1.5,0,0,1-1.068-.368,1.223,1.223,0,0,1-.391-.929,1.249,1.249,0,0,1,.178-.663,1.169,1.169,0,0,1,.5-.446,3.9,3.9,0,0,1,.924-.271,6.3,6.3,0,0,0,1.127-.285v-.116a.6.6,0,0,0-.165-.477.993.993,0,0,0-.624-.143.827.827,0,0,0-.482.122A.84.84,0,0,0,174.423,61.842Zm1.553.941a7.217,7.217,0,0,1-.706.178,2.109,2.109,0,0,0-.632.2.482.482,0,0,0-.228.409.569.569,0,0,0,.182.421.634.634,0,0,0,.463.178,1,1,0,0,0,.6-.207.732.732,0,0,0,.277-.384,2.351,2.351,0,0,0,.045-.566Z" transform="translate(0.33)" style="fill:#fff"/><path d="M177.843,63.639l1.164-.178a.856.856,0,0,0,.3.514,1.019,1.019,0,0,0,.636.176,1.146,1.146,0,0,0,.678-.166.37.37,0,0,0,.153-.31.307.307,0,0,0-.083-.219.931.931,0,0,0-.389-.153,6.247,6.247,0,0,1-1.779-.566A1.13,1.13,0,0,1,178,61.75a1.215,1.215,0,0,1,.451-.958,2.1,2.1,0,0,1,1.4-.389,2.437,2.437,0,0,1,1.338.293,1.51,1.51,0,0,1,.6.868l-1.1.2a.676.676,0,0,0-.266-.392.974.974,0,0,0-.561-.137,1.261,1.261,0,0,0-.656.128.276.276,0,0,0-.133.235.257.257,0,0,0,.116.21,4.347,4.347,0,0,0,1.085.327,3.239,3.239,0,0,1,1.295.516,1.074,1.074,0,0,1,.363.863,1.325,1.325,0,0,1-.5,1.037,2.234,2.234,0,0,1-1.492.434,2.443,2.443,0,0,1-1.418-.363A1.676,1.676,0,0,1,177.843,63.639Z" transform="translate(0.33)" style="fill:#fff"/><path d="M182.68,62.635a2.379,2.379,0,0,1,.284-1.12,1.964,1.964,0,0,1,.809-.826,2.394,2.394,0,0,1,1.166-.285,2.195,2.195,0,0,1,1.633.646,2.235,2.235,0,0,1,.636,1.634,2.258,2.258,0,0,1-.643,1.65,2.172,2.172,0,0,1-1.617.655,2.549,2.549,0,0,1-1.15-.272,1.884,1.884,0,0,1-.833-.8A2.67,2.67,0,0,1,182.68,62.635Zm1.189.062a1.456,1.456,0,0,0,.31,1,1.014,1.014,0,0,0,1.527,0,1.474,1.474,0,0,0,.307-1.008,1.448,1.448,0,0,0-.307-.992,1.014,1.014,0,0,0-1.527,0A1.457,1.457,0,0,0,183.87,62.7Z" transform="translate(0.33)" style="fill:#fff"/><path d="M192.1,64.89h-1.161V62.651a3.456,3.456,0,0,0-.074-.919.643.643,0,0,0-.241-.324.693.693,0,0,0-.4-.116.93.93,0,0,0-.541.166.825.825,0,0,0-.328.438,3.816,3.816,0,0,0-.089,1.008V64.89H188.1V60.5h1.078v.645a1.8,1.8,0,0,1,2.148-.6,1.177,1.177,0,0,1,.481.353,1.293,1.293,0,0,1,.228.487,3.683,3.683,0,0,1,.063.781Z" transform="translate(0.33)" style="fill:#fff"/></g></g><path d="M356.07,63.87c0,7.02-14.22,12.72-31.8,12.72-17.52,0-31.74-5.7-31.74-12.72s14.22-12.72,31.74-12.72c17.58,0,31.8,5.7,31.8,12.72" transform="translate(0.33)" style="fill:#928788;fill-rule:evenodd"/><path d="M356.01,63.87c0,7.02-14.16,12.66-31.74,12.66-17.52,0-31.74-5.64-31.74-12.66s14.22-12.72,31.74-12.72C341.85,51.15,356.01,56.85,356.01,63.87Z" transform="translate(0.33)" style="fill:none;stroke:#928788;stroke-linecap:round;stroke-miterlimit:10;stroke-width:0.660000026226044px"/><path d="M354.27,62.07c0,7.02-14.22,12.72-31.8,12.72-17.52,0-31.74-5.7-31.74-12.72s14.22-12.72,31.74-12.72c17.58,0,31.8,5.7,31.8,12.72" transform="translate(0.33)" style="fill-rule:evenodd;fill:url(#linear-gradient-9)"/><path d="M354.21,62.07c0,7.02-14.16,12.66-31.74,12.66-17.52,0-31.74-5.64-31.74-12.66s14.22-12.72,31.74-12.72C340.05,49.35,354.21,55.05,354.21,62.07Z" transform="translate(0.33)" style="fill:none;stroke:#5053a4;stroke-linecap:round;stroke-miterlimit:10;stroke-width:0.660000026226044px"/><g style="clip-path:url(#clip-path-17)"><g style="clip-path:url(#clip-path-2)"><path d="M307.966,64.89V58.834h1.962a7.128,7.128,0,0,1,1.454.091,1.585,1.585,0,0,1,.871.593,1.879,1.879,0,0,1,.352,1.18,1.978,1.978,0,0,1-.2.938,1.671,1.671,0,0,1-.515.6,1.773,1.773,0,0,1-.634.287,7,7,0,0,1-1.269.087h-.8V64.89Zm1.223-5.031v1.719h.669a3.157,3.157,0,0,0,.967-.1.792.792,0,0,0,.382-.3.817.817,0,0,0,.139-.471.782.782,0,0,0-.194-.546.851.851,0,0,0-.491-.269,5.933,5.933,0,0,0-.881-.041Z" transform="translate(0.33)" style="fill:#fff"/><path d="M314.7,64.89h-1.16V60.5h1.078v.624a1.876,1.876,0,0,1,.5-.583.912.912,0,0,1,.5-.141,1.467,1.467,0,0,1,.764.22l-.359,1.012a1.016,1.016,0,0,0-.545-.19.642.642,0,0,0-.413.135.92.92,0,0,0-.267.485,6.9,6.9,0,0,0-.1,1.471Z" transform="translate(0.33)" style="fill:#fff"/><path d="M316.607,62.635a2.384,2.384,0,0,1,.285-1.12,1.962,1.962,0,0,1,.808-.826,2.4,2.4,0,0,1,1.167-.285,2.192,2.192,0,0,1,1.632.646,2.232,2.232,0,0,1,.636,1.634,2.258,2.258,0,0,1-.643,1.65,2.17,2.17,0,0,1-1.617.655,2.552,2.552,0,0,1-1.15-.272,1.878,1.878,0,0,1-.832-.8A2.667,2.667,0,0,1,316.607,62.635Zm1.189.062a1.452,1.452,0,0,0,.311,1,1.013,1.013,0,0,0,1.526,0,1.474,1.474,0,0,0,.308-1.008,1.449,1.449,0,0,0-.308-.992,1.013,1.013,0,0,0-1.526,0A1.453,1.453,0,0,0,317.8,62.7Z" transform="translate(0.33)" style="fill:#fff"/><path d="M324.046,60.5v.926h-.793V63.2a4.266,4.266,0,0,0,.023.626.252.252,0,0,0,.1.146.331.331,0,0,0,.2.058,1.5,1.5,0,0,0,.467-.111l.1.9a2.3,2.3,0,0,1-.918.174,1.451,1.451,0,0,1-.565-.105.833.833,0,0,1-.37-.272,1.069,1.069,0,0,1-.162-.452,5.557,5.557,0,0,1-.037-.818V61.429h-.533V60.5h.533v-.872l1.164-.677V60.5Z" transform="translate(0.33)" style="fill:#fff"/><path d="M327.384,63.494l1.156.193a1.894,1.894,0,0,1-.7.969,2.072,2.072,0,0,1-1.205.333,1.961,1.961,0,0,1-1.693-.748,2.513,2.513,0,0,1-.434-1.512,2.417,2.417,0,0,1,.57-1.708,1.876,1.876,0,0,1,1.441-.618,1.948,1.948,0,0,1,1.545.646,2.865,2.865,0,0,1,.541,1.981h-2.908a1.166,1.166,0,0,0,.281.8.875.875,0,0,0,.669.287.705.705,0,0,0,.458-.148A.9.9,0,0,0,327.384,63.494Zm.066-1.174a1.119,1.119,0,0,0-.26-.766.838.838,0,0,0-1.231.014,1.067,1.067,0,0,0-.243.752Z" transform="translate(0.33)" style="fill:#fff"/><path d="M333.366,61.8l-1.145.207a.826.826,0,0,0-.263-.517.792.792,0,0,0-.53-.174.87.87,0,0,0-.692.3,1.535,1.535,0,0,0-.258,1,1.781,1.781,0,0,0,.262,1.1.864.864,0,0,0,.705.322.783.783,0,0,0,.541-.188,1.124,1.124,0,0,0,.3-.646l1.141.193a2.025,2.025,0,0,1-.682,1.186,2.107,2.107,0,0,1-1.351.4,2.009,2.009,0,0,1-1.534-.607,2.768,2.768,0,0,1,0-3.373,2.039,2.039,0,0,1,1.553-.605,2.116,2.116,0,0,1,1.274.346A1.908,1.908,0,0,1,333.366,61.8Z" transform="translate(0.33)" style="fill:#fff"/><path d="M336.25,60.5v.926h-.794V63.2a4.507,4.507,0,0,0,.022.626.258.258,0,0,0,.1.146.331.331,0,0,0,.2.058,1.506,1.506,0,0,0,.467-.111l.1.9a2.294,2.294,0,0,1-.916.174,1.453,1.453,0,0,1-.566-.105.824.824,0,0,1-.369-.272,1.082,1.082,0,0,1-.164-.452,5.7,5.7,0,0,1-.037-.818V61.429h-.533V60.5h.533v-.872l1.165-.677V60.5Z" transform="translate(0.33)" style="fill:#fff"/></g></g><rect x="2.76" y="1.83" width="64.14" height="26.04" style="fill:#928788"/><path d="M2.73,2.13m0,25.38V2.13H66.21V27.51Z" transform="translate(0.33)" style="fill:none;stroke:#928788;stroke-linecap:round;stroke-miterlimit:10;stroke-width:0.660000026226044px"/><rect x="0.33" y="0.03" width="64.14" height="26.04" style="fill:url(#linear-gradient-10)"/><path d="M.93.33m0,25.38V.33H64.41V25.71Z" transform="translate(0.33)" style="fill:none;stroke:#5053a4;stroke-linecap:round;stroke-miterlimit:10;stroke-width:0.660000026226044px"/><g style="clip-path:url(#clip-path-19)"><g style="clip-path:url(#clip-path-2)"><path d="M18.766,15.93V9.875h1.962a7.115,7.115,0,0,1,1.454.091,1.591,1.591,0,0,1,.872.593,1.883,1.883,0,0,1,.351,1.179,1.98,1.98,0,0,1-.2.938,1.661,1.661,0,0,1-.515.6,1.773,1.773,0,0,1-.634.287,7,7,0,0,1-1.269.087h-.8V15.93ZM19.989,10.9v1.718h.669a3.153,3.153,0,0,0,.967-.1.8.8,0,0,0,.521-.768.786.786,0,0,0-.194-.545.845.845,0,0,0-.492-.269,5.9,5.9,0,0,0-.879-.041Z" transform="translate(0.33)" style="fill:#fff"/><path d="M26.933,14.534l1.156.194a1.894,1.894,0,0,1-.705.969,2.066,2.066,0,0,1-1.2.333,1.963,1.963,0,0,1-1.694-.748,2.513,2.513,0,0,1-.434-1.512,2.427,2.427,0,0,1,.569-1.708,1.881,1.881,0,0,1,1.442-.618,1.948,1.948,0,0,1,1.545.646,2.857,2.857,0,0,1,.541,1.981H25.243a1.177,1.177,0,0,0,.281.8.875.875,0,0,0,.669.287.714.714,0,0,0,.459-.148A.932.932,0,0,0,26.933,14.534ZM27,13.361a1.116,1.116,0,0,0-.261-.766.8.8,0,0,0-.6-.263.807.807,0,0,0-.628.277,1.071,1.071,0,0,0-.244.752Z" transform="translate(0.33)" style="fill:#fff"/><path d="M28.82,13.675a2.38,2.38,0,0,1,.285-1.12,1.956,1.956,0,0,1,.808-.826,2.4,2.4,0,0,1,1.167-.285,2.192,2.192,0,0,1,1.632.646,2.231,2.231,0,0,1,.636,1.634,2.258,2.258,0,0,1-.643,1.65,2.169,2.169,0,0,1-1.617.655,2.552,2.552,0,0,1-1.15-.272,1.877,1.877,0,0,1-.832-.8A2.67,2.67,0,0,1,28.82,13.675Zm1.189.062a1.451,1.451,0,0,0,.311,1,1.012,1.012,0,0,0,1.526,0,1.474,1.474,0,0,0,.308-1.008,1.448,1.448,0,0,0-.308-.992,1.013,1.013,0,0,0-1.526,0A1.452,1.452,0,0,0,30.009,13.737Z" transform="translate(0.33)" style="fill:#fff"/><path d="M34.214,11.543H35.3v.645a1.63,1.63,0,0,1,.57-.537,1.575,1.575,0,0,1,.8-.207,1.672,1.672,0,0,1,1.3.6,2.423,2.423,0,0,1,.532,1.669,2.5,2.5,0,0,1-.536,1.708,1.674,1.674,0,0,1-1.3.609A1.48,1.48,0,0,1,36,15.885a2.219,2.219,0,0,1-.622-.5V17.6H34.214Zm1.148,2.119a1.691,1.691,0,0,0,.293,1.093.9.9,0,0,0,.715.353.839.839,0,0,0,.674-.324,1.665,1.665,0,0,0,.269-1.063,1.591,1.591,0,0,0-.276-1.024.858.858,0,0,0-.686-.334.892.892,0,0,0-.707.328A1.461,1.461,0,0,0,35.363,13.662Z" transform="translate(0.33)" style="fill:#fff"/><path d="M39.408,15.93V9.875h1.16V15.93Z" transform="translate(0.33)" style="fill:#fff"/><path d="M44.29,14.534l1.156.194a1.9,1.9,0,0,1-.7.969,2.069,2.069,0,0,1-1.2.333,1.965,1.965,0,0,1-1.694-.748,2.513,2.513,0,0,1-.434-1.512,2.423,2.423,0,0,1,.57-1.708,1.88,1.88,0,0,1,1.441-.618,1.947,1.947,0,0,1,1.545.646,2.853,2.853,0,0,1,.541,1.981H42.6a1.177,1.177,0,0,0,.281.8.879.879,0,0,0,.67.287.71.71,0,0,0,.458-.148A.919.919,0,0,0,44.29,14.534Zm.065-1.173a1.116,1.116,0,0,0-.26-.766.837.837,0,0,0-1.23.014,1.067,1.067,0,0,0-.244.752Z" transform="translate(0.33)" style="fill:#fff"/></g></g></svg>