<svg xmlns="http://www.w3.org/2000/svg" xmlns:xlink="http://www.w3.org/1999/xlink" viewBox="0 0 138.57 76.86"><defs><linearGradient id="linear-gradient" x1="32.1" y1="0.03" x2="32.1" y2="26.07" gradientUnits="userSpaceOnUse"><stop offset="0" stop-color="#0085ff"/><stop offset="1" stop-color="blue"/></linearGradient><clipPath id="clip-path" transform="translate(-383.52 -315.15)"><polyline points="396.87 323.28 396.87 332.76 434.01 332.76 434.01 328.02 436.41 328.02 436.41 323.28" style="fill:none;clip-rule:evenodd"/></clipPath><clipPath id="clip-path-2" transform="translate(-383.52 -315.15)"><rect width="792" height="612" style="fill:none"/></clipPath><linearGradient id="linear-gradient-2" x1="104.7" y1="0.03" x2="104.7" y2="26.07" xlink:href="#linear-gradient"/><clipPath id="clip-path-3" transform="translate(-383.52 -315.15)"><polyline points="472.47 317.82 472.47 327.3 505.83 327.3 505.83 322.56 508.23 322.56 508.23 317.82" style="fill:none;clip-rule:evenodd"/></clipPath><clipPath id="clip-path-5" transform="translate(-383.52 -315.15)"><polyline points="468.21 328.08 468.21 337.56 506.73 337.56 506.73 332.82 509.13 332.82 509.13 328.08" style="fill:none;clip-rule:evenodd"/></clipPath><linearGradient id="linear-gradient-3" x1="452.52" y1="364.5" x2="452.52" y2="389.94" gradientUnits="userSpaceOnUse"><stop offset="0" stop-color="#ff827f"/><stop offset="1" stop-color="red"/></linearGradient><clipPath id="clip-path-7" transform="translate(-383.52 -315.15)"><polyline points="436.77 372.24 436.77 381.72 467.31 381.72 467.31 376.98 469.71 376.98 469.71 372.24" style="fill:none;clip-rule:evenodd"/></clipPath></defs><title>raw.der.reason</title><g id="Layer_2" data-name="Layer 2"><g id="Layer_1-2" data-name="Layer 1"><rect x="1.83" y="1.83" width="64.14" height="26.04" style="fill:#918787"/><path d="M385.65,317.28m0,25.38V317.28h63.48v25.38Z" transform="translate(-383.52 -315.15)" style="fill:none;stroke:#918787;stroke-linecap:round;stroke-miterlimit:10;stroke-width:0.6600000262260437px"/><rect x="0.03" y="0.03" width="64.14" height="26.04" style="fill:url(#linear-gradient)"/><path d="M383.85,315.48m0,25.38V315.48h63.48v25.38Z" transform="translate(-383.52 -315.15)" style="fill:none;stroke:#4a00ff;stroke-linecap:round;stroke-miterlimit:10;stroke-width:0.6600000262260437px"/><g style="clip-path:url(#clip-path)"><g style="clip-path:url(#clip-path-2)"><path d="M397.489,331.141v-6.057h2.574a4.38,4.38,0,0,1,1.41.164,1.389,1.389,0,0,1,.705.58,1.745,1.745,0,0,1,.264.954,1.622,1.622,0,0,1-.4,1.126,1.927,1.927,0,0,1-1.2.559,2.869,2.869,0,0,1,.655.509,6.881,6.881,0,0,1,.7.983l.74,1.182h-1.463l-.884-1.318a8.491,8.491,0,0,0-.645-.891.948.948,0,0,0-.367-.252,2.036,2.036,0,0,0-.616-.068h-.247v2.529Zm1.224-3.5h.9a4.654,4.654,0,0,0,1.1-.074.657.657,0,0,0,.343-.257.783.783,0,0,0,.124-.454.726.726,0,0,0-.163-.493.752.752,0,0,0-.461-.238c-.1-.014-.4-.02-.892-.02h-.954Z" transform="translate(-383.52 -315.15)" style="fill:#fff"/><path d="M404.446,328.092l-1.054-.19a1.648,1.648,0,0,1,.612-.942,2.242,2.242,0,0,1,1.288-.3,2.775,2.775,0,0,1,1.157.184,1.154,1.154,0,0,1,.534.467,2.389,2.389,0,0,1,.155,1.039l-.013,1.354a4.7,4.7,0,0,0,.056.853,2.56,2.56,0,0,0,.209.59h-1.148c-.03-.078-.067-.191-.111-.344-.02-.068-.033-.113-.041-.136a2.109,2.109,0,0,1-.637.434,1.816,1.816,0,0,1-.723.145,1.488,1.488,0,0,1-1.067-.368,1.218,1.218,0,0,1-.391-.929,1.239,1.239,0,0,1,.178-.663,1.161,1.161,0,0,1,.5-.446,3.936,3.936,0,0,1,.924-.271,6.345,6.345,0,0,0,1.128-.285v-.115a.6.6,0,0,0-.166-.478.988.988,0,0,0-.623-.143.83.83,0,0,0-.483.122A.84.84,0,0,0,404.446,328.092Zm1.554.941a7.112,7.112,0,0,1-.707.178,2.1,2.1,0,0,0-.632.2.484.484,0,0,0-.228.408.57.57,0,0,0,.183.422.633.633,0,0,0,.462.178,1.007,1.007,0,0,0,.6-.207.727.727,0,0,0,.276-.385,2.278,2.278,0,0,0,.046-.565Z" transform="translate(-383.52 -315.15)" style="fill:#fff"/><path d="M409.092,331.141l-1.388-4.388h1.128l.822,2.876.756-2.876h1.119l.731,2.876.838-2.876h1.145l-1.408,4.388H411.72l-.756-2.822-.744,2.822Z" transform="translate(-383.52 -315.15)" style="fill:#fff"/><path d="M421.533,331.141h-1.078V330.5a1.747,1.747,0,0,1-.635.56,1.63,1.63,0,0,1-.737.184,1.671,1.671,0,0,1-1.295-.609,2.479,2.479,0,0,1-.539-1.7,2.445,2.445,0,0,1,.525-1.7,1.709,1.709,0,0,1,1.325-.58,1.64,1.64,0,0,1,1.272.611v-2.182h1.161Zm-3.1-2.289a2.009,2.009,0,0,0,.194,1.016.877.877,0,0,0,.785.455.855.855,0,0,0,.682-.341,1.572,1.572,0,0,0,.28-1.019,1.719,1.719,0,0,0-.272-1.088.86.86,0,0,0-.7-.333.872.872,0,0,0-.691.329A1.483,1.483,0,0,0,418.435,328.852Z" transform="translate(-383.52 -315.15)" style="fill:#fff"/><path d="M423.545,328.092l-1.054-.19a1.648,1.648,0,0,1,.612-.942,2.242,2.242,0,0,1,1.288-.3,2.775,2.775,0,0,1,1.157.184,1.154,1.154,0,0,1,.534.467,2.389,2.389,0,0,1,.155,1.039l-.013,1.354a4.7,4.7,0,0,0,.056.853,2.56,2.56,0,0,0,.209.59h-1.148c-.03-.078-.067-.191-.111-.344-.02-.068-.033-.113-.041-.136a2.109,2.109,0,0,1-.637.434,1.816,1.816,0,0,1-.723.145,1.488,1.488,0,0,1-1.067-.368,1.218,1.218,0,0,1-.391-.929,1.239,1.239,0,0,1,.178-.663,1.161,1.161,0,0,1,.5-.446,3.936,3.936,0,0,1,.924-.271,6.345,6.345,0,0,0,1.128-.285v-.115a.6.6,0,0,0-.166-.478.988.988,0,0,0-.623-.143.83.83,0,0,0-.483.122A.84.84,0,0,0,423.545,328.092Zm1.554.941a7.112,7.112,0,0,1-.707.178,2.1,2.1,0,0,0-.632.2.484.484,0,0,0-.228.408.57.57,0,0,0,.183.422.633.633,0,0,0,.462.178,1.007,1.007,0,0,0,.6-.207.727.727,0,0,0,.276-.385,2.278,2.278,0,0,0,.046-.565Z" transform="translate(-383.52 -315.15)" style="fill:#fff"/><path d="M429.386,326.753v.926h-.793v1.768a4.331,4.331,0,0,0,.022.626.253.253,0,0,0,.1.146.325.325,0,0,0,.2.059,1.486,1.486,0,0,0,.467-.112l.1.9a2.312,2.312,0,0,1-.917.173,1.451,1.451,0,0,1-.565-.105.822.822,0,0,1-.37-.272,1.077,1.077,0,0,1-.163-.452,5.541,5.541,0,0,1-.037-.817v-1.913h-.533v-.926h.533v-.872l1.165-.677v1.549Z" transform="translate(-383.52 -315.15)" style="fill:#fff"/><path d="M431.059,328.092l-1.054-.19a1.648,1.648,0,0,1,.612-.942,2.242,2.242,0,0,1,1.288-.3,2.775,2.775,0,0,1,1.157.184,1.154,1.154,0,0,1,.534.467,2.389,2.389,0,0,1,.155,1.039l-.013,1.354a4.7,4.7,0,0,0,.056.853,2.56,2.56,0,0,0,.209.59h-1.148c-.03-.078-.067-.191-.111-.344-.02-.068-.033-.113-.041-.136a2.109,2.109,0,0,1-.637.434,1.816,1.816,0,0,1-.723.145,1.488,1.488,0,0,1-1.067-.368,1.218,1.218,0,0,1-.391-.929,1.239,1.239,0,0,1,.178-.663,1.161,1.161,0,0,1,.5-.446,3.936,3.936,0,0,1,.924-.271,6.345,6.345,0,0,0,1.128-.285v-.115a.6.6,0,0,0-.166-.478.988.988,0,0,0-.623-.143.83.83,0,0,0-.483.122A.84.84,0,0,0,431.059,328.092Zm1.554.941a7.112,7.112,0,0,1-.707.178,2.1,2.1,0,0,0-.632.2.484.484,0,0,0-.228.408.57.57,0,0,0,.183.422.633.633,0,0,0,.462.178,1.007,1.007,0,0,0,.6-.207.727.727,0,0,0,.276-.385,2.278,2.278,0,0,0,.046-.565Z" transform="translate(-383.52 -315.15)" style="fill:#fff"/></g></g><rect x="74.43" y="1.83" width="64.14" height="26.04" style="fill:#918787"/><path d="M458.25,317.28m0,25.38V317.28h63.48v25.38Z" transform="translate(-383.52 -315.15)" style="fill:none;stroke:#918787;stroke-linecap:round;stroke-miterlimit:10;stroke-width:0.6600000262260437px"/><rect x="72.63" y="0.03" width="64.14" height="26.04" style="fill:url(#linear-gradient-2)"/><path d="M456.45,315.48m0,25.38V315.48h63.48v25.38Z" transform="translate(-383.52 -315.15)" style="fill:none;stroke:#4a00ff;stroke-linecap:round;stroke-miterlimit:10;stroke-width:0.6600000262260437px"/><g style="clip-path:url(#clip-path-3)"><g style="clip-path:url(#clip-path-2)"><path d="M473.081,319.624h2.234a4.362,4.362,0,0,1,1.153.116,2.019,2.019,0,0,1,.912.558,2.643,2.643,0,0,1,.579.98,4.48,4.48,0,0,1,.2,1.432,3.982,3.982,0,0,1-.187,1.289,2.663,2.663,0,0,1-.648,1.069,2.135,2.135,0,0,1-.859.483,3.675,3.675,0,0,1-1.082.128h-2.3Zm1.223,1.024v4.011h.913a3.3,3.3,0,0,0,.739-.058,1.136,1.136,0,0,0,.494-.252,1.277,1.277,0,0,0,.319-.584,3.94,3.94,0,0,0,.124-1.109,3.608,3.608,0,0,0-.124-1.078,1.382,1.382,0,0,0-.347-.587,1.162,1.162,0,0,0-.565-.285,5.6,5.6,0,0,0-1-.058Z" transform="translate(-383.52 -315.15)" style="fill:#fff"/><path d="M481.727,324.284l1.157.193a1.9,1.9,0,0,1-.705.969,2.067,2.067,0,0,1-1.2.333,1.961,1.961,0,0,1-1.693-.748,2.513,2.513,0,0,1-.434-1.512,2.421,2.421,0,0,1,.57-1.708,1.876,1.876,0,0,1,1.441-.618,1.948,1.948,0,0,1,1.545.646,2.865,2.865,0,0,1,.541,1.981h-2.908a1.171,1.171,0,0,0,.281.8.875.875,0,0,0,.669.287.71.71,0,0,0,.459-.148A.916.916,0,0,0,481.727,324.284Zm.066-1.174a1.115,1.115,0,0,0-.261-.766.8.8,0,0,0-.6-.263.8.8,0,0,0-.628.276,1.072,1.072,0,0,0-.244.752Z" transform="translate(-383.52 -315.15)" style="fill:#fff"/><path d="M485,325.68h-1.161v-4.387h1.078v.624a1.876,1.876,0,0,1,.5-.583.915.915,0,0,1,.5-.141,1.469,1.469,0,0,1,.764.22l-.359,1.012a1.016,1.016,0,0,0-.545-.19.642.642,0,0,0-.413.135.914.914,0,0,0-.267.485,6.928,6.928,0,0,0-.1,1.471Z" transform="translate(-383.52 -315.15)" style="fill:#fff"/><path d="M487.184,320.7v-1.074h1.16V320.7Zm0,4.981v-4.387h1.16v4.387Z" transform="translate(-383.52 -315.15)" style="fill:#fff"/><path d="M490.74,325.68l-1.768-4.387h1.218l.826,2.239.24.747c.063-.189.1-.315.119-.376.039-.124.08-.247.124-.371l.835-2.239h1.193l-1.743,4.387Z" transform="translate(-383.52 -315.15)" style="fill:#fff"/><path d="M496.636,324.284l1.157.193a1.9,1.9,0,0,1-.705.969,2.067,2.067,0,0,1-1.2.333,1.961,1.961,0,0,1-1.693-.748,2.513,2.513,0,0,1-.434-1.512,2.421,2.421,0,0,1,.57-1.708,1.876,1.876,0,0,1,1.441-.618,1.948,1.948,0,0,1,1.545.646,2.865,2.865,0,0,1,.541,1.981h-2.908a1.171,1.171,0,0,0,.281.8.875.875,0,0,0,.669.287.71.71,0,0,0,.459-.148A.916.916,0,0,0,496.636,324.284Zm.066-1.174a1.115,1.115,0,0,0-.261-.766.8.8,0,0,0-.6-.263.8.8,0,0,0-.628.276,1.072,1.072,0,0,0-.244.752Z" transform="translate(-383.52 -315.15)" style="fill:#fff"/><path d="M502.8,325.68h-1.078v-.645a1.75,1.75,0,0,1-.635.561,1.63,1.63,0,0,1-.737.184,1.671,1.671,0,0,1-1.295-.609,2.479,2.479,0,0,1-.539-1.7,2.445,2.445,0,0,1,.525-1.7,1.71,1.71,0,0,1,1.325-.581,1.641,1.641,0,0,1,1.272.612v-2.182H502.8Zm-3.1-2.288a2.012,2.012,0,0,0,.194,1.016.877.877,0,0,0,.785.455.857.857,0,0,0,.682-.341,1.572,1.572,0,0,0,.28-1.019,1.724,1.724,0,0,0-.272-1.089.862.862,0,0,0-.7-.332.871.871,0,0,0-.691.328A1.486,1.486,0,0,0,499.7,323.392Z" transform="translate(-383.52 -315.15)" style="fill:#fff"/></g></g><g style="clip-path:url(#clip-path-5)"><g style="clip-path:url(#clip-path-2)"><path d="M469.685,332.892l-1.054-.19a1.644,1.644,0,0,1,.612-.942,2.241,2.241,0,0,1,1.288-.306,2.773,2.773,0,0,1,1.157.185,1.148,1.148,0,0,1,.534.467,2.386,2.386,0,0,1,.155,1.039l-.013,1.354a4.7,4.7,0,0,0,.056.853,2.538,2.538,0,0,0,.209.589h-1.148q-.045-.116-.111-.343c-.02-.068-.033-.114-.041-.136a2.109,2.109,0,0,1-.637.434,1.833,1.833,0,0,1-.723.145,1.492,1.492,0,0,1-1.067-.368,1.22,1.22,0,0,1-.391-.929,1.239,1.239,0,0,1,.178-.663,1.161,1.161,0,0,1,.5-.446,3.889,3.889,0,0,1,.924-.271,6.434,6.434,0,0,0,1.128-.285v-.116a.6.6,0,0,0-.166-.477.988.988,0,0,0-.623-.143.83.83,0,0,0-.483.122A.84.84,0,0,0,469.685,332.892Zm1.554.941c-.149.05-.385.108-.707.178a2.108,2.108,0,0,0-.632.2.485.485,0,0,0-.228.409.566.566,0,0,0,.183.421.629.629,0,0,0,.462.178,1.006,1.006,0,0,0,.6-.206.731.731,0,0,0,.276-.385,2.278,2.278,0,0,0,.046-.565Z" transform="translate(-383.52 -315.15)" style="fill:#fff"/><path d="M475.526,331.553v.926h-.793v1.768a4.341,4.341,0,0,0,.022.626.253.253,0,0,0,.1.146.331.331,0,0,0,.2.058,1.506,1.506,0,0,0,.467-.111l.1.9a2.3,2.3,0,0,1-.917.174,1.451,1.451,0,0,1-.565-.105.822.822,0,0,1-.37-.272,1.082,1.082,0,0,1-.163-.452,5.557,5.557,0,0,1-.037-.818v-1.912h-.533v-.926h.533v-.872l1.165-.677v1.549Z" transform="translate(-383.52 -315.15)" style="fill:#fff"/><path d="M478.335,331.553v.926h-.793v1.768a4.341,4.341,0,0,0,.022.626.253.253,0,0,0,.1.146.331.331,0,0,0,.2.058,1.506,1.506,0,0,0,.467-.111l.1.9a2.3,2.3,0,0,1-.917.174,1.451,1.451,0,0,1-.565-.105.822.822,0,0,1-.37-.272,1.082,1.082,0,0,1-.163-.452,5.557,5.557,0,0,1-.037-.818v-1.912h-.533v-.926h.533v-.872l1.165-.677v1.549Z" transform="translate(-383.52 -315.15)" style="fill:#fff"/><path d="M480.243,335.939h-1.161v-4.387h1.078v.624a1.876,1.876,0,0,1,.5-.583.915.915,0,0,1,.5-.141,1.469,1.469,0,0,1,.764.22l-.359,1.012a1.016,1.016,0,0,0-.545-.19.642.642,0,0,0-.413.135.914.914,0,0,0-.267.485,6.928,6.928,0,0,0-.1,1.471Z" transform="translate(-383.52 -315.15)" style="fill:#fff"/><path d="M482.415,330.958v-1.074h1.16v1.074Zm0,4.981v-4.387h1.16v4.387Z" transform="translate(-383.52 -315.15)" style="fill:#fff"/><path d="M484.716,335.939v-6.056h1.161v2.182a1.641,1.641,0,0,1,1.272-.612,1.71,1.71,0,0,1,1.325.581A2.4,2.4,0,0,1,489,333.7a2.537,2.537,0,0,1-.535,1.73,1.672,1.672,0,0,1-1.3.607,1.6,1.6,0,0,1-.741-.188,1.779,1.779,0,0,1-.63-.556v.645Zm1.152-2.288a1.872,1.872,0,0,0,.215,1.008.919.919,0,0,0,.8.463.818.818,0,0,0,.654-.329,1.612,1.612,0,0,0,.271-1.034,1.717,1.717,0,0,0-.272-1.085.862.862,0,0,0-.7-.332.874.874,0,0,0-.693.324A1.489,1.489,0,0,0,485.868,333.651Z" transform="translate(-383.52 -315.15)" style="fill:#fff"/><path d="M492.822,335.939v-.656a1.7,1.7,0,0,1-.63.553,1.759,1.759,0,0,1-.824.2,1.62,1.62,0,0,1-.794-.194,1.152,1.152,0,0,1-.508-.545,2.436,2.436,0,0,1-.157-.971v-2.776h1.161v2.016a5.547,5.547,0,0,0,.064,1.134.611.611,0,0,0,.233.331.717.717,0,0,0,.43.122.908.908,0,0,0,.532-.164.825.825,0,0,0,.322-.4,4.708,4.708,0,0,0,.087-1.184v-1.851H493.9v4.387Z" transform="translate(-383.52 -315.15)" style="fill:#fff"/><path d="M497.114,331.553v.926h-.793v1.768a4.341,4.341,0,0,0,.022.626.253.253,0,0,0,.1.146.331.331,0,0,0,.2.058,1.506,1.506,0,0,0,.467-.111l.1.9a2.3,2.3,0,0,1-.917.174,1.451,1.451,0,0,1-.565-.105.822.822,0,0,1-.37-.272,1.082,1.082,0,0,1-.163-.452,5.557,5.557,0,0,1-.037-.818v-1.912h-.533v-.926h.533v-.872l1.165-.677v1.549Z" transform="translate(-383.52 -315.15)" style="fill:#fff"/><path d="M500.45,334.544l1.157.193a1.9,1.9,0,0,1-.705.969,2.067,2.067,0,0,1-1.2.333,1.961,1.961,0,0,1-1.693-.748,2.513,2.513,0,0,1-.434-1.512,2.421,2.421,0,0,1,.57-1.708,1.876,1.876,0,0,1,1.441-.618,1.948,1.948,0,0,1,1.545.646,2.865,2.865,0,0,1,.541,1.981h-2.908a1.171,1.171,0,0,0,.281.8.875.875,0,0,0,.669.287.71.71,0,0,0,.459-.148A.916.916,0,0,0,500.45,334.544Zm.066-1.174a1.115,1.115,0,0,0-.261-.766.8.8,0,0,0-.6-.263.8.8,0,0,0-.628.276,1.072,1.072,0,0,0-.244.752Z" transform="translate(-383.52 -315.15)" style="fill:#fff"/><path d="M502.2,334.688l1.165-.178a.855.855,0,0,0,.3.514,1.017,1.017,0,0,0,.636.176,1.149,1.149,0,0,0,.678-.165.37.37,0,0,0,.152-.31.308.308,0,0,0-.082-.22.932.932,0,0,0-.389-.152,6.269,6.269,0,0,1-1.78-.566,1.13,1.13,0,0,1-.521-.987,1.217,1.217,0,0,1,.45-.958,2.1,2.1,0,0,1,1.4-.389,2.435,2.435,0,0,1,1.338.294,1.5,1.5,0,0,1,.6.867l-1.095.2a.677.677,0,0,0-.267-.392.967.967,0,0,0-.56-.137,1.269,1.269,0,0,0-.657.128.275.275,0,0,0-.132.235.256.256,0,0,0,.115.211,4.388,4.388,0,0,0,1.085.326,3.226,3.226,0,0,1,1.295.517,1.073,1.073,0,0,1,.363.863,1.325,1.325,0,0,1-.5,1.037,2.231,2.231,0,0,1-1.491.434,2.449,2.449,0,0,1-1.419-.363A1.679,1.679,0,0,1,502.2,334.688Z" transform="translate(-383.52 -315.15)" style="fill:#fff"/></g></g><path d="M486.09,379.02c0,7.02-14.22,12.72-31.8,12.72-17.52,0-31.74-5.7-31.74-12.72s14.22-12.72,31.74-12.72c17.58,0,31.8,5.7,31.8,12.72" transform="translate(-383.52 -315.15)" style="fill:#918787;fill-rule:evenodd"/><path d="M486.03,379.02c0,7.02-14.16,12.66-31.74,12.66-17.52,0-31.74-5.64-31.74-12.66s14.22-12.72,31.74-12.72C471.87,366.3,486.03,372,486.03,379.02Z" transform="translate(-383.52 -315.15)" style="fill:none;stroke:#918787;stroke-linecap:round;stroke-miterlimit:10;stroke-width:0.6600000262260437px"/><path d="M484.29,377.22c0,7.02-14.22,12.72-31.8,12.72-17.52,0-31.74-5.7-31.74-12.72s14.22-12.72,31.74-12.72c17.58,0,31.8,5.7,31.8,12.72" transform="translate(-383.52 -315.15)" style="fill-rule:evenodd;fill:url(#linear-gradient-3)"/><path d="M484.23,377.22c0,7.02-14.16,12.66-31.74,12.66-17.52,0-31.74-5.64-31.74-12.66s14.22-12.72,31.74-12.72C470.07,364.5,484.23,370.2,484.23,377.22Z" transform="translate(-383.52 -315.15)" style="fill:none;stroke:#4a00ff;stroke-linecap:round;stroke-miterlimit:10;stroke-width:0.6600000262260437px"/><g style="clip-path:url(#clip-path-7)"><g style="clip-path:url(#clip-path-2)"><path d="M437.388,380.1v-6.056h2.574a4.386,4.386,0,0,1,1.41.163,1.389,1.389,0,0,1,.705.58,1.749,1.749,0,0,1,.264.954,1.62,1.62,0,0,1-.4,1.126,1.928,1.928,0,0,1-1.2.56,2.866,2.866,0,0,1,.655.508,6.881,6.881,0,0,1,.7.983l.74,1.182H441.37l-.884-1.318a8.328,8.328,0,0,0-.645-.89.927.927,0,0,0-.367-.252,2.005,2.005,0,0,0-.616-.068h-.247V380.1Zm1.224-3.5h.9a4.654,4.654,0,0,0,1.1-.074.655.655,0,0,0,.343-.256.786.786,0,0,0,.124-.455.727.727,0,0,0-.163-.493.751.751,0,0,0-.461-.237c-.1-.014-.4-.021-.892-.021h-.954Z" transform="translate(-383.52 -315.15)" style="fill:#fff"/><path d="M446.018,378.7l1.157.194a1.9,1.9,0,0,1-.705.969,2.067,2.067,0,0,1-1.2.332,1.963,1.963,0,0,1-1.693-.747,2.514,2.514,0,0,1-.434-1.513,2.424,2.424,0,0,1,.57-1.708,1.878,1.878,0,0,1,1.441-.617,1.948,1.948,0,0,1,1.545.646,2.86,2.86,0,0,1,.541,1.98h-2.908a1.174,1.174,0,0,0,.281.8.878.878,0,0,0,.669.287.715.715,0,0,0,.459-.148A.92.92,0,0,0,446.018,378.7Zm.066-1.173a1.117,1.117,0,0,0-.261-.767.836.836,0,0,0-1.23.015,1.071,1.071,0,0,0-.244.752Z" transform="translate(-383.52 -315.15)" style="fill:#fff"/><path d="M449.041,377.052l-1.054-.19a1.642,1.642,0,0,1,.612-.941,2.234,2.234,0,0,1,1.288-.306,2.791,2.791,0,0,1,1.157.184,1.154,1.154,0,0,1,.534.467,2.389,2.389,0,0,1,.155,1.039l-.013,1.354a4.721,4.721,0,0,0,.056.854,2.554,2.554,0,0,0,.209.589h-1.148q-.045-.116-.111-.343c-.02-.069-.033-.114-.041-.137a2.091,2.091,0,0,1-.637.434,1.816,1.816,0,0,1-.723.145,1.492,1.492,0,0,1-1.067-.367,1.22,1.22,0,0,1-.391-.93,1.241,1.241,0,0,1,.178-.663,1.161,1.161,0,0,1,.5-.446,3.936,3.936,0,0,1,.924-.271,6.259,6.259,0,0,0,1.128-.285v-.115a.6.6,0,0,0-.166-.478.988.988,0,0,0-.623-.143.83.83,0,0,0-.483.122A.84.84,0,0,0,449.041,377.052Zm1.554.941a7.112,7.112,0,0,1-.707.178,2.13,2.13,0,0,0-.632.2.484.484,0,0,0-.228.408.567.567,0,0,0,.183.422.633.633,0,0,0,.462.178,1.007,1.007,0,0,0,.6-.207.729.729,0,0,0,.276-.384,2.293,2.293,0,0,0,.046-.566Z" transform="translate(-383.52 -315.15)" style="fill:#fff"/><path d="M452.461,378.849l1.165-.178a.857.857,0,0,0,.3.515,1.017,1.017,0,0,0,.636.176,1.148,1.148,0,0,0,.678-.166.368.368,0,0,0,.152-.31.306.306,0,0,0-.082-.219.93.93,0,0,0-.389-.153,6.246,6.246,0,0,1-1.78-.565,1.132,1.132,0,0,1-.521-.987,1.217,1.217,0,0,1,.45-.958,2.1,2.1,0,0,1,1.4-.389,2.436,2.436,0,0,1,1.338.293,1.5,1.5,0,0,1,.6.868l-1.095.2a.677.677,0,0,0-.267-.393.974.974,0,0,0-.56-.137,1.257,1.257,0,0,0-.657.129.275.275,0,0,0-.132.235.255.255,0,0,0,.115.21,4.37,4.37,0,0,0,1.085.327,3.227,3.227,0,0,1,1.295.516,1.075,1.075,0,0,1,.363.863,1.325,1.325,0,0,1-.5,1.037,2.231,2.231,0,0,1-1.491.434,2.449,2.449,0,0,1-1.419-.363A1.673,1.673,0,0,1,452.461,378.849Z" transform="translate(-383.52 -315.15)" style="fill:#fff"/><path d="M457.3,377.845a2.365,2.365,0,0,1,.285-1.119,1.945,1.945,0,0,1,.808-.826,2.39,2.39,0,0,1,1.167-.285,2.194,2.194,0,0,1,1.632.646,2.234,2.234,0,0,1,.636,1.634,2.258,2.258,0,0,1-.643,1.65,2.169,2.169,0,0,1-1.617.654,2.549,2.549,0,0,1-1.15-.272,1.866,1.866,0,0,1-.832-.8A2.662,2.662,0,0,1,457.3,377.845Zm1.189.063a1.455,1.455,0,0,0,.31,1,1.012,1.012,0,0,0,1.526,0,1.474,1.474,0,0,0,.308-1.008,1.446,1.446,0,0,0-.308-.991,1.013,1.013,0,0,0-1.526,0A1.456,1.456,0,0,0,458.488,377.907Z" transform="translate(-383.52 -315.15)" style="fill:#fff"/><path d="M466.716,380.1h-1.161v-2.239a3.449,3.449,0,0,0-.074-.919.648.648,0,0,0-.241-.324.691.691,0,0,0-.4-.116.93.93,0,0,0-.541.166.833.833,0,0,0-.328.438,3.767,3.767,0,0,0-.089,1.008V380.1h-1.161v-4.388H463.8v.645a1.759,1.759,0,0,1,1.446-.743,1.733,1.733,0,0,1,.7.139,1.183,1.183,0,0,1,.481.353,1.276,1.276,0,0,1,.227.487,3.612,3.612,0,0,1,.064.781Z" transform="translate(-383.52 -315.15)" style="fill:#fff"/></g></g></g></g></svg>