<svg id="Layer_1" data-name="Layer 1" xmlns="http://www.w3.org/2000/svg" xmlns:xlink="http://www.w3.org/1999/xlink" viewBox="0 0 356.97 77.46"><defs><linearGradient id="linear-gradient" x1="104.7" y1="0.63" x2="104.7" y2="26.67" gradientUnits="userSpaceOnUse"><stop offset="0" stop-color="#457cbf"/><stop offset="1" stop-color="#3a53a4"/></linearGradient><clipPath id="clip-path"><polyline points="84.09 8.67 84.09 18.15 124.53 18.15 124.53 13.41 126.93 13.41 126.93 8.67" style="fill:none;clip-rule:evenodd"/></clipPath><clipPath id="clip-path-2"><rect x="-36.24" y="-165.15" width="792" height="612" style="fill:none"/></clipPath><linearGradient id="linear-gradient-2" x1="176.1" y1="0.63" x2="176.1" y2="26.67" xlink:href="#linear-gradient"/><clipPath id="clip-path-3"><polyline points="155.49 8.67 155.49 18.15 195.45 18.15 195.45 13.41 197.85 13.41 197.85 8.67" style="fill:none;clip-rule:evenodd"/></clipPath><linearGradient id="linear-gradient-3" x1="104.7" y1="49.95" x2="104.7" y2="75.39" gradientUnits="userSpaceOnUse"><stop offset="0" stop-color="#f48180"/><stop offset="1" stop-color="#ed2224"/></linearGradient><clipPath id="clip-path-5"><polyline points="85.89 57.63 85.89 67.11 123.03 67.11 123.03 62.37 125.43 62.37 125.43 57.63" style="fill:none;clip-rule:evenodd"/></clipPath><linearGradient id="linear-gradient-4" x1="250.5" y1="0.63" x2="250.5" y2="26.67" xlink:href="#linear-gradient"/><clipPath id="clip-path-7"><polyline points="231.75 8.67 231.75 18.15 268.89 18.15 268.89 13.41 271.29 13.41 271.29 8.67" style="fill:none;clip-rule:evenodd"/></clipPath><linearGradient id="linear-gradient-5" x1="32.1" y1="49.95" x2="32.1" y2="75.39" xlink:href="#linear-gradient-3"/><clipPath id="clip-path-9"><polyline points="15.75 57.63 15.75 67.11 47.25 67.11 47.25 62.37 49.65 62.37 49.65 57.63" style="fill:none;clip-rule:evenodd"/></clipPath><linearGradient id="linear-gradient-6" x1="250.5" y1="49.95" x2="250.5" y2="75.39" xlink:href="#linear-gradient-3"/><clipPath id="clip-path-11"><polyline points="238.35 57.63 238.35 67.11 261.87 67.11 261.87 62.37 264.27 62.37 264.27 57.63" style="fill:none;clip-rule:evenodd"/></clipPath><linearGradient id="linear-gradient-7" x1="323.1" y1="0.63" x2="323.1" y2="26.67" xlink:href="#linear-gradient"/><clipPath id="clip-path-13"><polyline points="307.35 3.21 307.35 12.69 340.71 12.69 340.71 7.95 343.11 7.95 343.11 3.21" style="fill:none;clip-rule:evenodd"/></clipPath><clipPath id="clip-path-15"><polyline points="303.09 13.47 303.09 22.95 341.61 22.95 341.61 18.21 344.01 18.21 344.01 13.47" style="fill:none;clip-rule:evenodd"/></clipPath><linearGradient id="linear-gradient-8" x1="176.1" y1="49.95" x2="176.1" y2="75.39" xlink:href="#linear-gradient-3"/><clipPath id="clip-path-17"><polyline points="160.35 57.63 160.35 67.11 190.89 67.11 190.89 62.37 193.29 62.37 193.29 57.63" style="fill:none;clip-rule:evenodd"/></clipPath><linearGradient id="linear-gradient-9" x1="323.1" y1="49.95" x2="323.1" y2="75.39" xlink:href="#linear-gradient-3"/><clipPath id="clip-path-19"><polyline points="308.55 57.63 308.55 67.11 336.75 67.11 336.75 62.37 339.15 62.37 339.15 57.63" style="fill:none;clip-rule:evenodd"/></clipPath><linearGradient id="linear-gradient-10" x1="32.1" y1="0.03" x2="32.1" y2="26.07" xlink:href="#linear-gradient"/><clipPath id="clip-path-21"><polyline points="13.95 8.07 13.95 17.55 49.23 17.55 49.23 12.81 51.63 12.81 51.63 8.07" style="fill:none;clip-rule:evenodd"/></clipPath></defs><title>technologist</title><rect x="74.43" y="2.43" width="64.14" height="26.04" style="fill:#928788"/><path d="M74.73,2.73m0,25.38V2.73h63.48V28.11Z" style="fill:none;stroke:#928788;stroke-linecap:round;stroke-miterlimit:10;stroke-width:0.6600000262260437px"/><rect x="72.63" y="0.63" width="64.14" height="26.04" style="fill:url(#linear-gradient)"/><path d="M72.93.93m0,25.38V.93h63.48V26.31Z" style="fill:none;stroke:#5053a4;stroke-linecap:round;stroke-miterlimit:10;stroke-width:0.6600000262260437px"/><g style="clip-path:url(#clip-path)"><g style="clip-path:url(#clip-path-2)"><path d="M84.668,16.53V10.474h1.223V16.53Z" style="fill:#fff"/><path d="M91.071,16.53H89.993v-.645a1.736,1.736,0,0,1-.634.56,1.622,1.622,0,0,1-.737.185,1.671,1.671,0,0,1-1.295-.609,2.48,2.48,0,0,1-.539-1.7,2.449,2.449,0,0,1,.524-1.7,1.708,1.708,0,0,1,1.326-.581,1.643,1.643,0,0,1,1.272.611V10.474h1.161Zm-3.1-2.288a2.007,2.007,0,0,0,.194,1.016.878.878,0,0,0,.785.454.854.854,0,0,0,.682-.341,1.572,1.572,0,0,0,.281-1.018,1.72,1.72,0,0,0-.273-1.089.861.861,0,0,0-.7-.332.872.872,0,0,0-.692.328A1.483,1.483,0,0,0,87.973,14.242Z" style="fill:#fff"/><path d="M94.756,15.133l1.156.194a1.9,1.9,0,0,1-.7.969,2.069,2.069,0,0,1-1.2.333,1.964,1.964,0,0,1-1.694-.748,2.513,2.513,0,0,1-.434-1.512,2.421,2.421,0,0,1,.57-1.708,1.878,1.878,0,0,1,1.442-.618,1.948,1.948,0,0,1,1.545.646,2.861,2.861,0,0,1,.541,1.98H93.066a1.174,1.174,0,0,0,.281.8.878.878,0,0,0,.669.287.714.714,0,0,0,.458-.148A.92.92,0,0,0,94.756,15.133Zm.066-1.173a1.12,1.12,0,0,0-.26-.767.839.839,0,0,0-1.231.015,1.07,1.07,0,0,0-.244.752Z" style="fill:#fff"/><path d="M100.9,16.53H99.742V14.29a3.446,3.446,0,0,0-.075-.919.645.645,0,0,0-.241-.324.692.692,0,0,0-.4-.115.93.93,0,0,0-.542.165.832.832,0,0,0-.328.438,3.788,3.788,0,0,0-.089,1.008V16.53H96.9V12.143h1.078v.645a1.756,1.756,0,0,1,1.446-.744,1.733,1.733,0,0,1,.7.139,1.172,1.172,0,0,1,.481.354,1.285,1.285,0,0,1,.227.487,3.633,3.633,0,0,1,.064.78Z" style="fill:#fff"/><path d="M104.091,12.143v.925H103.3v1.769a4.394,4.394,0,0,0,.023.626.258.258,0,0,0,.1.146.331.331,0,0,0,.2.058,1.5,1.5,0,0,0,.467-.111l.1.9a2.316,2.316,0,0,1-.917.174,1.452,1.452,0,0,1-.566-.105.823.823,0,0,1-.37-.273,1.07,1.07,0,0,1-.163-.452,5.6,5.6,0,0,1-.037-.817V13.068H101.6v-.925h.533v-.872l1.165-.678v1.55Z" style="fill:#fff"/><path d="M104.889,11.548V10.474h1.161v1.074Zm0,4.981V12.143h1.161V16.53Z" style="fill:#fff"/><path d="M106.73,12.143h.645v-.331a2.192,2.192,0,0,1,.118-.826.931.931,0,0,1,.434-.443,1.665,1.665,0,0,1,.8-.172,3.245,3.245,0,0,1,.971.148l-.157.81a2.3,2.3,0,0,0-.533-.065.477.477,0,0,0-.361.117.685.685,0,0,0-.109.452v.311h.868v.913h-.868V16.53h-1.161V13.056h-.645Z" style="fill:#fff"/><path d="M110.048,11.548V10.474h1.161v1.074Zm0,4.981V12.143h1.161V16.53Z" style="fill:#fff"/><path d="M114.938,15.133l1.156.194a1.9,1.9,0,0,1-.7.969,2.069,2.069,0,0,1-1.2.333,1.964,1.964,0,0,1-1.694-.748,2.513,2.513,0,0,1-.434-1.512,2.421,2.421,0,0,1,.57-1.708,1.878,1.878,0,0,1,1.442-.618,1.948,1.948,0,0,1,1.545.646,2.861,2.861,0,0,1,.541,1.98h-2.908a1.174,1.174,0,0,0,.281.8.878.878,0,0,0,.669.287.714.714,0,0,0,.458-.148A.92.92,0,0,0,114.938,15.133ZM115,13.96a1.12,1.12,0,0,0-.26-.767.839.839,0,0,0-1.231.015,1.07,1.07,0,0,0-.244.752Z" style="fill:#fff"/><path d="M118.206,16.53h-1.161V12.143h1.078v.623a1.882,1.882,0,0,1,.5-.582.913.913,0,0,1,.5-.141,1.478,1.478,0,0,1,.765.219l-.359,1.013a1.018,1.018,0,0,0-.545-.19.642.642,0,0,0-.413.135.916.916,0,0,0-.267.485,6.9,6.9,0,0,0-.1,1.471Z" style="fill:#fff"/><path d="M119.969,15.278l1.165-.178a.852.852,0,0,0,.3.515,1.018,1.018,0,0,0,.636.176,1.156,1.156,0,0,0,.678-.165.37.37,0,0,0,.153-.311.3.3,0,0,0-.083-.219.929.929,0,0,0-.388-.152,6.269,6.269,0,0,1-1.78-.566,1.129,1.129,0,0,1-.521-.987,1.216,1.216,0,0,1,.45-.958,2.1,2.1,0,0,1,1.4-.389,2.429,2.429,0,0,1,1.338.294,1.5,1.5,0,0,1,.6.867l-1.095.2a.677.677,0,0,0-.267-.393.975.975,0,0,0-.56-.136,1.256,1.256,0,0,0-.657.128.274.274,0,0,0-.132.235.257.257,0,0,0,.116.211,4.357,4.357,0,0,0,1.084.326,3.226,3.226,0,0,1,1.295.517,1.073,1.073,0,0,1,.363.863,1.325,1.325,0,0,1-.5,1.036,2.231,2.231,0,0,1-1.491.435,2.449,2.449,0,0,1-1.419-.364A1.675,1.675,0,0,1,119.969,15.278Z" style="fill:#fff"/></g></g><rect x="145.83" y="2.43" width="64.14" height="26.04" style="fill:#928788"/><path d="M146.13,2.73m0,25.38V2.73h63.48V28.11Z" style="fill:none;stroke:#928788;stroke-linecap:round;stroke-miterlimit:10;stroke-width:0.6600000262260437px"/><rect x="144.03" y="0.63" width="64.14" height="26.04" style="fill:url(#linear-gradient-2)"/><path d="M144.33.93m0,25.38V.93h63.48V26.31Z" style="fill:none;stroke:#5053a4;stroke-linecap:round;stroke-miterlimit:10;stroke-width:0.6600000262260437px"/><g style="clip-path:url(#clip-path-3)"><g style="clip-path:url(#clip-path-2)"><path d="M161.567,16.53h-1.33l-.529-1.376h-2.421l-.5,1.376h-1.3l2.359-6.056h1.293Zm-2.251-2.4-.834-2.248-.818,2.248Z" style="fill:#fff"/><path d="M163.991,12.143v.925H163.2v1.769a4.394,4.394,0,0,0,.023.626.258.258,0,0,0,.1.146.331.331,0,0,0,.2.058,1.5,1.5,0,0,0,.467-.111l.1.9a2.316,2.316,0,0,1-.917.174,1.452,1.452,0,0,1-.566-.105.823.823,0,0,1-.37-.273,1.07,1.07,0,0,1-.163-.452,5.6,5.6,0,0,1-.037-.817V13.068H161.5v-.925h.533v-.872l1.165-.678v1.55Z" style="fill:#fff"/><path d="M166.808,12.143v.925h-.793v1.769a4.394,4.394,0,0,0,.023.626.258.258,0,0,0,.1.146.331.331,0,0,0,.2.058,1.5,1.5,0,0,0,.467-.111l.1.9a2.316,2.316,0,0,1-.917.174,1.452,1.452,0,0,1-.566-.105.823.823,0,0,1-.37-.273,1.07,1.07,0,0,1-.163-.452,5.6,5.6,0,0,1-.037-.817V13.068h-.533v-.925h.533v-.872l1.165-.678v1.55Z" style="fill:#fff"/><path d="M168.724,16.53h-1.161V12.143h1.078v.623a1.882,1.882,0,0,1,.5-.582.913.913,0,0,1,.5-.141,1.478,1.478,0,0,1,.765.219l-.359,1.013a1.018,1.018,0,0,0-.545-.19.642.642,0,0,0-.413.135.916.916,0,0,0-.267.485,6.9,6.9,0,0,0-.1,1.471Z" style="fill:#fff"/><path d="M170.906,11.549V10.475h1.161v1.074Zm0,4.981V12.143h1.161V16.53Z" style="fill:#fff"/><path d="M173.206,16.53V10.475h1.161v2.181a1.644,1.644,0,0,1,1.272-.611,1.709,1.709,0,0,1,1.326.581,2.4,2.4,0,0,1,.524,1.666,2.54,2.54,0,0,1-.535,1.731,1.672,1.672,0,0,1-1.3.607,1.611,1.611,0,0,1-.742-.188,1.771,1.771,0,0,1-.63-.556v.645Zm1.152-2.288a1.868,1.868,0,0,0,.215,1.008.918.918,0,0,0,.8.462.822.822,0,0,0,.655-.328,1.615,1.615,0,0,0,.271-1.034,1.711,1.711,0,0,0-.273-1.085.862.862,0,0,0-.7-.332.873.873,0,0,0-.694.324A1.487,1.487,0,0,0,174.358,14.242Z" style="fill:#fff"/><path d="M181.311,16.53v-.657a1.686,1.686,0,0,1-.63.554,1.77,1.77,0,0,1-.824.2,1.617,1.617,0,0,1-.793-.194,1.149,1.149,0,0,1-.508-.546,2.434,2.434,0,0,1-.157-.971V12.143h1.161v2.016a5.6,5.6,0,0,0,.064,1.134.623.623,0,0,0,.233.331.719.719,0,0,0,.43.121.908.908,0,0,0,.533-.163.825.825,0,0,0,.322-.4,4.683,4.683,0,0,0,.087-1.184V12.143h1.161V16.53Z" style="fill:#fff"/><path d="M185.6,12.143v.925h-.793v1.769a4.394,4.394,0,0,0,.023.626.258.258,0,0,0,.1.146.331.331,0,0,0,.2.058,1.5,1.5,0,0,0,.467-.111l.1.9a2.316,2.316,0,0,1-.917.174,1.452,1.452,0,0,1-.566-.105.823.823,0,0,1-.37-.273,1.07,1.07,0,0,1-.163-.452,5.6,5.6,0,0,1-.037-.817V13.068h-.533v-.925h.533v-.872l1.165-.678v1.55Z" style="fill:#fff"/><path d="M188.949,15.134l1.156.194a1.9,1.9,0,0,1-.7.969,2.069,2.069,0,0,1-1.2.333,1.964,1.964,0,0,1-1.694-.748,2.513,2.513,0,0,1-.434-1.512,2.421,2.421,0,0,1,.57-1.708,1.878,1.878,0,0,1,1.442-.618,1.948,1.948,0,0,1,1.545.646,2.861,2.861,0,0,1,.541,1.98h-2.908a1.174,1.174,0,0,0,.281.8.878.878,0,0,0,.669.287.714.714,0,0,0,.458-.148A.92.92,0,0,0,188.949,15.134Zm.066-1.173a1.12,1.12,0,0,0-.26-.767.839.839,0,0,0-1.231.015,1.07,1.07,0,0,0-.244.752Z" style="fill:#fff"/><path d="M190.7,15.278l1.165-.178a.852.852,0,0,0,.3.515,1.018,1.018,0,0,0,.636.176,1.156,1.156,0,0,0,.678-.165.37.37,0,0,0,.153-.311.3.3,0,0,0-.083-.219.929.929,0,0,0-.388-.152,6.269,6.269,0,0,1-1.78-.566,1.129,1.129,0,0,1-.521-.987,1.216,1.216,0,0,1,.45-.958,2.1,2.1,0,0,1,1.4-.389,2.429,2.429,0,0,1,1.338.294,1.5,1.5,0,0,1,.6.867l-1.095.2a.677.677,0,0,0-.267-.393.975.975,0,0,0-.56-.136,1.256,1.256,0,0,0-.657.128.274.274,0,0,0-.132.235.257.257,0,0,0,.116.211,4.357,4.357,0,0,0,1.084.326,3.226,3.226,0,0,1,1.295.517,1.073,1.073,0,0,1,.363.863,1.325,1.325,0,0,1-.5,1.036,2.231,2.231,0,0,1-1.491.435,2.449,2.449,0,0,1-1.419-.364A1.675,1.675,0,0,1,190.7,15.278Z" style="fill:#fff"/></g></g><path d="M138.27,64.47c0,7.02-14.22,12.72-31.8,12.72-17.52,0-31.74-5.7-31.74-12.72s14.22-12.72,31.74-12.72c17.58,0,31.8,5.7,31.8,12.72" style="fill:#928788;fill-rule:evenodd"/><path d="M138.21,64.47c0,7.02-14.16,12.66-31.74,12.66-17.52,0-31.74-5.64-31.74-12.66s14.22-12.72,31.74-12.72C124.05,51.75,138.21,57.45,138.21,64.47Z" style="fill:none;stroke:#928788;stroke-linecap:round;stroke-miterlimit:10;stroke-width:0.6600000262260437px"/><path d="M136.47,62.67c0,7.02-14.22,12.72-31.8,12.72-17.52,0-31.74-5.7-31.74-12.72s14.22-12.72,31.74-12.72c17.58,0,31.8,5.7,31.8,12.72" style="fill-rule:evenodd;fill:url(#linear-gradient-3)"/><path d="M136.41,62.67c0,7.02-14.16,12.66-31.74,12.66-17.52,0-31.74-5.64-31.74-12.66s14.22-12.72,31.74-12.72C122.25,49.95,136.41,55.65,136.41,62.67Z" style="fill:none;stroke:#5053a4;stroke-linecap:round;stroke-miterlimit:10;stroke-width:0.6600000262260437px"/><g style="clip-path:url(#clip-path-5)"><g style="clip-path:url(#clip-path-2)"><path d="M90.38,63.263l1.186.376a2.659,2.659,0,0,1-.907,1.473,2.853,2.853,0,0,1-3.592-.343,3.156,3.156,0,0,1-.776-2.254,3.309,3.309,0,0,1,.781-2.348,2.677,2.677,0,0,1,2.053-.837,2.516,2.516,0,0,1,1.805.657,2.385,2.385,0,0,1,.62,1.115l-1.21.289a1.25,1.25,0,0,0-1.276-1.017,1.377,1.377,0,0,0-1.092.483,2.369,2.369,0,0,0-.419,1.565,2.538,2.538,0,0,0,.413,1.636,1.341,1.341,0,0,0,1.074.488,1.224,1.224,0,0,0,.838-.311A1.8,1.8,0,0,0,90.38,63.263Z" style="fill:#fff"/><path d="M92.338,63.234a2.376,2.376,0,0,1,.285-1.119,1.965,1.965,0,0,1,.808-.826A2.4,2.4,0,0,1,94.6,61a2.192,2.192,0,0,1,1.632.646,2.234,2.234,0,0,1,.636,1.634,2.26,2.26,0,0,1-.643,1.65,2.171,2.171,0,0,1-1.617.655,2.55,2.55,0,0,1-1.15-.273,1.875,1.875,0,0,1-.833-.8A2.668,2.668,0,0,1,92.338,63.234Zm1.189.063a1.456,1.456,0,0,0,.31,1,1.013,1.013,0,0,0,1.526,0,1.475,1.475,0,0,0,.308-1.009,1.446,1.446,0,0,0-.308-.991,1.013,1.013,0,0,0-1.526,0A1.454,1.454,0,0,0,93.527,63.3Z" style="fill:#fff"/><path d="M98.885,65.49H97.725V61.1H98.8v.623a1.882,1.882,0,0,1,.5-.582A.913.913,0,0,1,99.8,61a1.478,1.478,0,0,1,.765.219l-.359,1.013a1.018,1.018,0,0,0-.545-.19.642.642,0,0,0-.413.135.916.916,0,0,0-.267.485,6.9,6.9,0,0,0-.1,1.471Z" style="fill:#fff"/><path d="M102.177,65.49h-1.161V61.1h1.078v.623a1.882,1.882,0,0,1,.5-.582.913.913,0,0,1,.5-.141,1.478,1.478,0,0,1,.765.219l-.359,1.013a1.018,1.018,0,0,0-.545-.19.642.642,0,0,0-.413.135.916.916,0,0,0-.267.485,6.9,6.9,0,0,0-.1,1.471Z" style="fill:#fff"/><path d="M106.9,64.093l1.156.194a1.9,1.9,0,0,1-.7.969,2.069,2.069,0,0,1-1.2.333,1.964,1.964,0,0,1-1.694-.748,2.513,2.513,0,0,1-.434-1.512,2.421,2.421,0,0,1,.57-1.708A1.878,1.878,0,0,1,106.032,61a1.948,1.948,0,0,1,1.545.646,2.861,2.861,0,0,1,.541,1.98h-2.908a1.174,1.174,0,0,0,.281.8.878.878,0,0,0,.669.287.714.714,0,0,0,.458-.148A.92.92,0,0,0,106.9,64.093Zm.066-1.173a1.12,1.12,0,0,0-.26-.767.839.839,0,0,0-1.231.015,1.07,1.07,0,0,0-.244.752Z" style="fill:#fff"/><path d="M109.064,65.49V59.434h1.161V65.49Z" style="fill:#fff"/><path d="M112.282,62.441l-1.053-.189a1.64,1.64,0,0,1,.611-.942A2.243,2.243,0,0,1,113.129,61a2.785,2.785,0,0,1,1.156.184,1.159,1.159,0,0,1,.535.467,2.4,2.4,0,0,1,.155,1.039l-.012,1.355a4.7,4.7,0,0,0,.056.853,2.469,2.469,0,0,0,.208.589h-1.148q-.045-.116-.111-.343c-.02-.069-.033-.114-.042-.137a2.066,2.066,0,0,1-.636.434,1.816,1.816,0,0,1-.723.146,1.5,1.5,0,0,1-1.068-.368,1.222,1.222,0,0,1-.39-.93,1.252,1.252,0,0,1,.177-.663,1.162,1.162,0,0,1,.5-.445,3.871,3.871,0,0,1,.923-.271,6.335,6.335,0,0,0,1.127-.284v-.116a.6.6,0,0,0-.165-.477.987.987,0,0,0-.624-.143.83.83,0,0,0-.483.121A.855.855,0,0,0,112.282,62.441Zm1.553.942q-.223.073-.706.178a2.108,2.108,0,0,0-.632.2.484.484,0,0,0-.227.409.569.569,0,0,0,.182.421.636.636,0,0,0,.463.178,1,1,0,0,0,.6-.207.725.725,0,0,0,.277-.384,2.29,2.29,0,0,0,.045-.565Z" style="fill:#fff"/><path d="M118.131,61.1v.925h-.793V63.8a4.394,4.394,0,0,0,.023.626.258.258,0,0,0,.1.146.331.331,0,0,0,.2.058,1.5,1.5,0,0,0,.467-.111l.1.9a2.316,2.316,0,0,1-.917.174,1.452,1.452,0,0,1-.566-.105.823.823,0,0,1-.37-.273,1.07,1.07,0,0,1-.163-.452,5.6,5.6,0,0,1-.037-.817V62.028h-.533V61.1h.533v-.872l1.165-.678V61.1Z" style="fill:#fff"/><path d="M121.477,64.093l1.156.194a1.9,1.9,0,0,1-.7.969,2.069,2.069,0,0,1-1.2.333,1.964,1.964,0,0,1-1.694-.748,2.513,2.513,0,0,1-.434-1.512,2.421,2.421,0,0,1,.57-1.708A1.878,1.878,0,0,1,120.609,61a1.948,1.948,0,0,1,1.545.646,2.861,2.861,0,0,1,.541,1.98h-2.908a1.174,1.174,0,0,0,.281.8.878.878,0,0,0,.669.287.714.714,0,0,0,.458-.148A.92.92,0,0,0,121.477,64.093Zm.066-1.173a1.12,1.12,0,0,0-.26-.767.839.839,0,0,0-1.231.015,1.07,1.07,0,0,0-.244.752Z" style="fill:#fff"/></g></g><rect x="220.23" y="2.43" width="64.14" height="26.04" style="fill:#928788"/><path d="M220.53,2.73m0,25.38V2.73h63.48V28.11Z" style="fill:none;stroke:#928788;stroke-linecap:round;stroke-miterlimit:10;stroke-width:0.6600000262260437px"/><rect x="218.43" y="0.63" width="64.14" height="26.04" style="fill:url(#linear-gradient-4)"/><path d="M218.73.93m0,25.38V.93h63.48V26.31Z" style="fill:none;stroke:#5053a4;stroke-linecap:round;stroke-miterlimit:10;stroke-width:0.6600000262260437px"/><g style="clip-path:url(#clip-path-7)"><g style="clip-path:url(#clip-path-2)"><path d="M232.37,16.531V10.475h2.574a4.418,4.418,0,0,1,1.411.163,1.389,1.389,0,0,1,.7.58,1.746,1.746,0,0,1,.265.954,1.616,1.616,0,0,1-.4,1.126,1.925,1.925,0,0,1-1.2.56,2.876,2.876,0,0,1,.654.508,6.907,6.907,0,0,1,.7.983l.739,1.182h-1.462l-.884-1.317a8.529,8.529,0,0,0-.645-.891.949.949,0,0,0-.368-.252A2.029,2.029,0,0,0,233.84,14h-.248v2.528Zm1.223-3.5h.9a4.66,4.66,0,0,0,1.1-.074.654.654,0,0,0,.343-.256.785.785,0,0,0,.124-.454.728.728,0,0,0-.163-.494.751.751,0,0,0-.46-.237q-.149-.021-.893-.021h-.954Z" style="fill:#fff"/><path d="M239.326,13.482l-1.053-.189a1.64,1.64,0,0,1,.611-.942,2.243,2.243,0,0,1,1.289-.306,2.785,2.785,0,0,1,1.156.184,1.159,1.159,0,0,1,.535.467,2.4,2.4,0,0,1,.155,1.039l-.012,1.355a4.7,4.7,0,0,0,.056.853,2.469,2.469,0,0,0,.208.589h-1.148q-.045-.116-.111-.343c-.02-.069-.033-.114-.042-.137a2.066,2.066,0,0,1-.636.434,1.816,1.816,0,0,1-.723.146,1.5,1.5,0,0,1-1.068-.368,1.222,1.222,0,0,1-.39-.93,1.252,1.252,0,0,1,.177-.663,1.162,1.162,0,0,1,.5-.445,3.871,3.871,0,0,1,.923-.271,6.335,6.335,0,0,0,1.127-.284v-.116a.6.6,0,0,0-.165-.477.987.987,0,0,0-.624-.143.83.83,0,0,0-.483.121A.855.855,0,0,0,239.326,13.482Zm1.553.942q-.223.073-.706.178a2.108,2.108,0,0,0-.632.2.484.484,0,0,0-.227.409.569.569,0,0,0,.182.421.636.636,0,0,0,.463.178,1,1,0,0,0,.6-.207.725.725,0,0,0,.277-.384,2.29,2.29,0,0,0,.045-.565Z" style="fill:#fff"/><path d="M243.973,16.531l-1.388-4.387h1.128l.822,2.875.756-2.875h1.12l.731,2.875.838-2.875h1.144l-1.409,4.387H246.6l-.756-2.821-.744,2.821Z" style="fill:#fff"/><path d="M256.414,16.531h-1.078v-.645a1.736,1.736,0,0,1-.634.56,1.622,1.622,0,0,1-.737.185,1.671,1.671,0,0,1-1.295-.609,2.48,2.48,0,0,1-.539-1.7,2.449,2.449,0,0,1,.524-1.7,1.708,1.708,0,0,1,1.326-.581,1.643,1.643,0,0,1,1.272.611V10.475h1.161Zm-3.1-2.288a2.007,2.007,0,0,0,.194,1.016.878.878,0,0,0,.785.454.854.854,0,0,0,.682-.341,1.572,1.572,0,0,0,.281-1.018,1.72,1.72,0,0,0-.273-1.089.861.861,0,0,0-.7-.332.872.872,0,0,0-.692.328A1.483,1.483,0,0,0,253.316,14.243Z" style="fill:#fff"/><path d="M258.425,13.482l-1.053-.189a1.64,1.64,0,0,1,.611-.942,2.243,2.243,0,0,1,1.289-.306,2.785,2.785,0,0,1,1.156.184,1.159,1.159,0,0,1,.535.467,2.4,2.4,0,0,1,.155,1.039l-.012,1.355a4.7,4.7,0,0,0,.056.853,2.469,2.469,0,0,0,.208.589h-1.148q-.045-.116-.111-.343c-.02-.069-.033-.114-.042-.137a2.066,2.066,0,0,1-.636.434,1.816,1.816,0,0,1-.723.146,1.5,1.5,0,0,1-1.068-.368,1.222,1.222,0,0,1-.39-.93,1.252,1.252,0,0,1,.177-.663,1.162,1.162,0,0,1,.5-.445,3.871,3.871,0,0,1,.923-.271,6.335,6.335,0,0,0,1.127-.284v-.116a.6.6,0,0,0-.165-.477.987.987,0,0,0-.624-.143.83.83,0,0,0-.483.121A.855.855,0,0,0,258.425,13.482Zm1.553.942q-.223.073-.706.178a2.108,2.108,0,0,0-.632.2.484.484,0,0,0-.227.409.569.569,0,0,0,.182.421.636.636,0,0,0,.463.178,1,1,0,0,0,.6-.207.725.725,0,0,0,.277-.384,2.29,2.29,0,0,0,.045-.565Z" style="fill:#fff"/><path d="M264.267,12.144v.925h-.793v1.769a4.394,4.394,0,0,0,.023.626.258.258,0,0,0,.1.146.331.331,0,0,0,.2.058,1.5,1.5,0,0,0,.467-.111l.1.9a2.316,2.316,0,0,1-.917.174,1.452,1.452,0,0,1-.566-.105.823.823,0,0,1-.37-.273,1.07,1.07,0,0,1-.163-.452,5.6,5.6,0,0,1-.037-.817V13.069h-.533v-.925h.533v-.872l1.165-.678v1.55Z" style="fill:#fff"/><path d="M265.939,13.482l-1.053-.189a1.64,1.64,0,0,1,.611-.942,2.243,2.243,0,0,1,1.289-.306,2.785,2.785,0,0,1,1.156.184,1.159,1.159,0,0,1,.535.467,2.4,2.4,0,0,1,.155,1.039l-.012,1.355a4.7,4.7,0,0,0,.056.853,2.469,2.469,0,0,0,.208.589h-1.148q-.045-.116-.111-.343c-.02-.069-.033-.114-.042-.137a2.066,2.066,0,0,1-.636.434,1.816,1.816,0,0,1-.723.146,1.5,1.5,0,0,1-1.068-.368,1.222,1.222,0,0,1-.39-.93,1.252,1.252,0,0,1,.177-.663,1.162,1.162,0,0,1,.5-.445,3.871,3.871,0,0,1,.923-.271,6.335,6.335,0,0,0,1.127-.284v-.116a.6.6,0,0,0-.165-.477.987.987,0,0,0-.624-.143.83.83,0,0,0-.483.121A.855.855,0,0,0,265.939,13.482Zm1.553.942q-.223.073-.706.178a2.108,2.108,0,0,0-.632.2.484.484,0,0,0-.227.409.569.569,0,0,0,.182.421.636.636,0,0,0,.463.178,1,1,0,0,0,.6-.207.725.725,0,0,0,.277-.384,2.29,2.29,0,0,0,.045-.565Z" style="fill:#fff"/></g></g><path d="M65.67,64.47c0,7.02-14.22,12.72-31.8,12.72-17.52,0-31.74-5.7-31.74-12.72S16.35,51.75,33.87,51.75c17.58,0,31.8,5.7,31.8,12.72" style="fill:#928788;fill-rule:evenodd"/><path d="M65.61,64.47c0,7.02-14.16,12.66-31.74,12.66-17.52,0-31.74-5.64-31.74-12.66S16.35,51.75,33.87,51.75C51.45,51.75,65.61,57.45,65.61,64.47Z" style="fill:none;stroke:#928788;stroke-linecap:round;stroke-miterlimit:10;stroke-width:0.6600000262260437px"/><path d="M63.87,62.67c0,7.02-14.22,12.72-31.8,12.72C14.55,75.39.33,69.69.33,62.67S14.55,49.95,32.07,49.95c17.58,0,31.8,5.7,31.8,12.72" style="fill-rule:evenodd;fill:url(#linear-gradient-5)"/><path d="M63.81,62.67c0,7.02-14.16,12.66-31.74,12.66C14.55,75.33.33,69.69.33,62.67S14.55,49.95,32.07,49.95C49.65,49.95,63.81,55.65,63.81,62.67Z" style="fill:none;stroke:#5053a4;stroke-linecap:round;stroke-miterlimit:10;stroke-width:0.6600000262260437px"/><g style="clip-path:url(#clip-path-9)"><g style="clip-path:url(#clip-path-2)"><path d="M21.828,65.491H20.5l-.529-1.376H17.548l-.5,1.376h-1.3l2.359-6.056H19.4Zm-2.251-2.4-.834-2.248L17.924,63.1Z" style="fill:#fff"/><path d="M26.065,62.4l-1.145.206a.828.828,0,0,0-.262-.516.79.79,0,0,0-.531-.174.866.866,0,0,0-.692.3,1.532,1.532,0,0,0-.258,1,1.776,1.776,0,0,0,.262,1.1.861.861,0,0,0,.7.322.78.78,0,0,0,.541-.188,1.127,1.127,0,0,0,.3-.646l1.14.194a2.022,2.022,0,0,1-.682,1.186,2.107,2.107,0,0,1-1.351.4,2.01,2.01,0,0,1-1.535-.607,2.768,2.768,0,0,1,0-3.373A2.04,2.04,0,0,1,24.111,61a2.123,2.123,0,0,1,1.274.345A1.917,1.917,0,0,1,26.065,62.4Z" style="fill:#fff"/><path d="M29.786,67.16V64.954a1.65,1.65,0,0,1-.566.465,1.6,1.6,0,0,1-.731.172,1.552,1.552,0,0,1-1.231-.562,2.623,2.623,0,0,1-.57-1.78,2.377,2.377,0,0,1,.535-1.65A1.719,1.719,0,0,1,28.551,61a1.483,1.483,0,0,1,.758.187,1.72,1.72,0,0,1,.568.562V61.1h1.07V67.16Zm.037-3.916a1.537,1.537,0,0,0-.275-1,.86.86,0,0,0-.687-.328.888.888,0,0,0-.7.334,1.633,1.633,0,0,0-.283,1.063,1.6,1.6,0,0,0,.272,1.043.851.851,0,0,0,.673.319.894.894,0,0,0,.7-.359A1.628,1.628,0,0,0,29.823,63.244Z" style="fill:#fff"/><path d="M34.974,65.491v-.657a1.686,1.686,0,0,1-.63.554,1.77,1.77,0,0,1-.824.2,1.617,1.617,0,0,1-.793-.194,1.149,1.149,0,0,1-.508-.546,2.434,2.434,0,0,1-.157-.971V61.1h1.161V63.12a5.6,5.6,0,0,0,.064,1.134.623.623,0,0,0,.233.331.719.719,0,0,0,.43.121.908.908,0,0,0,.533-.163.825.825,0,0,0,.322-.4,4.683,4.683,0,0,0,.087-1.184V61.1h1.161v4.387Z" style="fill:#fff"/><path d="M37.254,60.509V59.435h1.161v1.074Zm0,4.981V61.1h1.161v4.387Z" style="fill:#fff"/><path d="M40.716,65.491H39.555V61.1h1.078v.623a1.882,1.882,0,0,1,.5-.582.913.913,0,0,1,.5-.141,1.478,1.478,0,0,1,.765.219l-.359,1.013a1.018,1.018,0,0,0-.545-.19.642.642,0,0,0-.413.135.916.916,0,0,0-.267.485,6.9,6.9,0,0,0-.1,1.471Z" style="fill:#fff"/><path d="M45.438,64.094l1.156.194a1.9,1.9,0,0,1-.7.969,2.069,2.069,0,0,1-1.2.333,1.964,1.964,0,0,1-1.694-.748,2.513,2.513,0,0,1-.434-1.512,2.421,2.421,0,0,1,.57-1.708A1.878,1.878,0,0,1,44.57,61a1.948,1.948,0,0,1,1.545.646,2.861,2.861,0,0,1,.541,1.98H43.748a1.174,1.174,0,0,0,.281.8.878.878,0,0,0,.669.287.714.714,0,0,0,.458-.148A.92.92,0,0,0,45.438,64.094Zm.066-1.173a1.12,1.12,0,0,0-.26-.767.839.839,0,0,0-1.231.015,1.07,1.07,0,0,0-.244.752Z" style="fill:#fff"/></g></g><path d="M284.07,64.47c0,7.02-14.22,12.72-31.8,12.72-17.52,0-31.74-5.7-31.74-12.72s14.22-12.72,31.74-12.72c17.58,0,31.8,5.7,31.8,12.72" style="fill:#928788;fill-rule:evenodd"/><path d="M284.01,64.47c0,7.02-14.16,12.66-31.74,12.66-17.52,0-31.74-5.64-31.74-12.66s14.22-12.72,31.74-12.72C269.85,51.75,284.01,57.45,284.01,64.47Z" style="fill:none;stroke:#928788;stroke-linecap:round;stroke-miterlimit:10;stroke-width:0.6600000262260437px"/><path d="M282.27,62.67c0,7.02-14.22,12.72-31.8,12.72-17.52,0-31.74-5.7-31.74-12.72s14.22-12.72,31.74-12.72c17.58,0,31.8,5.7,31.8,12.72" style="fill-rule:evenodd;fill:url(#linear-gradient-6)"/><path d="M282.21,62.67c0,7.02-14.16,12.66-31.74,12.66-17.52,0-31.74-5.64-31.74-12.66s14.22-12.72,31.74-12.72C268.05,49.95,282.21,55.65,282.21,62.67Z" style="fill:none;stroke:#5053a4;stroke-linecap:round;stroke-miterlimit:10;stroke-width:0.6600000262260437px"/><g style="clip-path:url(#clip-path-11)"><g style="clip-path:url(#clip-path-2)"><path d="M244.427,65.49H243.1l-.529-1.376h-2.421l-.5,1.376h-1.3l2.359-6.056H242Zm-2.251-2.4-.834-2.248-.818,2.248Z" style="fill:#fff"/><path d="M244.806,61.1h1.082v.645a1.617,1.617,0,0,1,.57-.537,1.572,1.572,0,0,1,.8-.207,1.672,1.672,0,0,1,1.3.6,2.42,2.42,0,0,1,.533,1.668,2.5,2.5,0,0,1-.537,1.709,1.674,1.674,0,0,1-1.3.609,1.476,1.476,0,0,1-.659-.146,2.2,2.2,0,0,1-.622-.5v2.21h-1.161Zm1.148,2.119a1.693,1.693,0,0,0,.293,1.093.9.9,0,0,0,.715.353.837.837,0,0,0,.673-.324,1.668,1.668,0,0,0,.269-1.063,1.584,1.584,0,0,0-.277-1.024.855.855,0,0,0-.686-.335.889.889,0,0,0-.707.329A1.46,1.46,0,0,0,245.955,63.222Z" style="fill:#fff"/><path d="M249.974,61.1h1.082v.645a1.617,1.617,0,0,1,.57-.537,1.572,1.572,0,0,1,.8-.207,1.672,1.672,0,0,1,1.3.6,2.42,2.42,0,0,1,.533,1.668,2.5,2.5,0,0,1-.537,1.709,1.674,1.674,0,0,1-1.3.609,1.476,1.476,0,0,1-.659-.146,2.2,2.2,0,0,1-.622-.5v2.21h-1.161Zm1.148,2.119a1.693,1.693,0,0,0,.293,1.093.9.9,0,0,0,.715.353.837.837,0,0,0,.673-.324,1.668,1.668,0,0,0,.269-1.063,1.584,1.584,0,0,0-.277-1.024.855.855,0,0,0-.686-.335.889.889,0,0,0-.707.329A1.46,1.46,0,0,0,251.122,63.222Z" style="fill:#fff"/><path d="M255.174,65.49V59.434h1.161V65.49Z" style="fill:#fff"/><path d="M256.975,61.1h1.235l1.049,3.114,1.024-3.114h1.2l-1.549,4.222-.277.764a3.072,3.072,0,0,1-.291.587,1.275,1.275,0,0,1-.318.328,1.4,1.4,0,0,1-.442.2,2.29,2.29,0,0,1-.593.07,3.074,3.074,0,0,1-.657-.07l-.1-.908a2.616,2.616,0,0,0,.491.054.726.726,0,0,0,.6-.238,1.644,1.644,0,0,0,.3-.6Z" style="fill:#fff"/></g></g><rect x="292.83" y="2.43" width="64.14" height="26.04" style="fill:#928788"/><path d="M293.13,2.73m0,25.38V2.73h63.48V28.11Z" style="fill:none;stroke:#928788;stroke-linecap:round;stroke-miterlimit:10;stroke-width:0.6600000262260437px"/><rect x="291.03" y="0.63" width="64.14" height="26.04" style="fill:url(#linear-gradient-7)"/><path d="M291.33.93m0,25.38V.93h63.48V26.31Z" style="fill:none;stroke:#5053a4;stroke-linecap:round;stroke-miterlimit:10;stroke-width:0.6600000262260437px"/><g style="clip-path:url(#clip-path-13)"><g style="clip-path:url(#clip-path-2)"><path d="M307.962,5.014H310.2a4.363,4.363,0,0,1,1.152.115,2.028,2.028,0,0,1,.913.558,2.647,2.647,0,0,1,.578.981,4.466,4.466,0,0,1,.2,1.432,3.973,3.973,0,0,1-.186,1.288,2.666,2.666,0,0,1-.649,1.07,2.159,2.159,0,0,1-.859.483,3.716,3.716,0,0,1-1.083.128h-2.3Zm1.223,1.024v4.011h.913a3.363,3.363,0,0,0,.739-.058,1.134,1.134,0,0,0,.494-.252,1.28,1.28,0,0,0,.32-.585,3.946,3.946,0,0,0,.124-1.108,3.615,3.615,0,0,0-.124-1.078,1.383,1.383,0,0,0-.347-.587,1.163,1.163,0,0,0-.566-.285,5.6,5.6,0,0,0-1-.058Z" style="fill:#fff"/><path d="M316.608,9.673l1.156.194a1.9,1.9,0,0,1-.7.969,2.069,2.069,0,0,1-1.2.333,1.964,1.964,0,0,1-1.694-.748,2.513,2.513,0,0,1-.434-1.512A2.421,2.421,0,0,1,314.3,7.2a1.878,1.878,0,0,1,1.442-.618,1.948,1.948,0,0,1,1.545.646,2.861,2.861,0,0,1,.541,1.98h-2.908a1.174,1.174,0,0,0,.281.8.878.878,0,0,0,.669.287.714.714,0,0,0,.458-.148A.92.92,0,0,0,316.608,9.673Zm.066-1.173a1.12,1.12,0,0,0-.26-.767.839.839,0,0,0-1.231.015,1.07,1.07,0,0,0-.244.752Z" style="fill:#fff"/><path d="M319.883,11.07h-1.161V6.683H319.8v.623a1.882,1.882,0,0,1,.5-.582.913.913,0,0,1,.5-.141,1.478,1.478,0,0,1,.765.219l-.359,1.013a1.018,1.018,0,0,0-.545-.19.642.642,0,0,0-.413.135.916.916,0,0,0-.267.485,6.9,6.9,0,0,0-.1,1.471Z" style="fill:#fff"/><path d="M322.065,6.088V5.014h1.161V6.088Zm0,4.981V6.683h1.161V11.07Z" style="fill:#fff"/><path d="M325.622,11.07l-1.768-4.387h1.219l.826,2.238.239.748c.063-.19.1-.315.12-.376.039-.124.08-.248.124-.372l.834-2.238h1.193l-1.743,4.387Z" style="fill:#fff"/><path d="M331.517,9.673l1.156.194a1.9,1.9,0,0,1-.7.969,2.069,2.069,0,0,1-1.2.333,1.964,1.964,0,0,1-1.694-.748,2.513,2.513,0,0,1-.434-1.512,2.421,2.421,0,0,1,.57-1.708,1.878,1.878,0,0,1,1.442-.618,1.948,1.948,0,0,1,1.545.646,2.861,2.861,0,0,1,.541,1.98h-2.908a1.174,1.174,0,0,0,.281.8.878.878,0,0,0,.669.287.714.714,0,0,0,.458-.148A.92.92,0,0,0,331.517,9.673Zm.066-1.173a1.12,1.12,0,0,0-.26-.767.839.839,0,0,0-1.231.015,1.07,1.07,0,0,0-.244.752Z" style="fill:#fff"/><path d="M337.68,11.07H336.6v-.645a1.736,1.736,0,0,1-.634.56,1.622,1.622,0,0,1-.737.185,1.671,1.671,0,0,1-1.295-.609,2.48,2.48,0,0,1-.539-1.7,2.449,2.449,0,0,1,.524-1.7,1.708,1.708,0,0,1,1.326-.581,1.643,1.643,0,0,1,1.272.611V5.014h1.161Zm-3.1-2.288a2.007,2.007,0,0,0,.194,1.016.878.878,0,0,0,.785.454.854.854,0,0,0,.682-.341,1.572,1.572,0,0,0,.281-1.018A1.72,1.72,0,0,0,336.25,7.8a.861.861,0,0,0-.7-.332.872.872,0,0,0-.692.328A1.483,1.483,0,0,0,334.582,8.782Z" style="fill:#fff"/></g></g><g style="clip-path:url(#clip-path-15)"><g style="clip-path:url(#clip-path-2)"><path d="M304.564,18.281l-1.053-.189a1.64,1.64,0,0,1,.611-.942,2.243,2.243,0,0,1,1.289-.306,2.785,2.785,0,0,1,1.156.184,1.159,1.159,0,0,1,.535.467,2.4,2.4,0,0,1,.155,1.039l-.012,1.355a4.7,4.7,0,0,0,.056.853,2.469,2.469,0,0,0,.208.589h-1.148q-.045-.116-.111-.343c-.02-.069-.033-.114-.042-.137a2.066,2.066,0,0,1-.636.434,1.816,1.816,0,0,1-.723.146,1.5,1.5,0,0,1-1.068-.368,1.222,1.222,0,0,1-.39-.93,1.252,1.252,0,0,1,.177-.663,1.162,1.162,0,0,1,.5-.445,3.871,3.871,0,0,1,.923-.271,6.335,6.335,0,0,0,1.127-.284v-.116a.6.6,0,0,0-.165-.477.987.987,0,0,0-.624-.143.83.83,0,0,0-.483.121A.855.855,0,0,0,304.564,18.281Zm1.553.942q-.223.073-.706.178a2.108,2.108,0,0,0-.632.2.484.484,0,0,0-.227.409.569.569,0,0,0,.182.421.636.636,0,0,0,.463.178,1,1,0,0,0,.6-.207.725.725,0,0,0,.277-.384,2.29,2.29,0,0,0,.045-.565Z" style="fill:#fff"/><path d="M310.406,16.943v.925h-.793v1.769a4.394,4.394,0,0,0,.023.626.258.258,0,0,0,.1.146.331.331,0,0,0,.2.058,1.5,1.5,0,0,0,.467-.111l.1.9a2.316,2.316,0,0,1-.917.174,1.452,1.452,0,0,1-.566-.105.823.823,0,0,1-.37-.273,1.07,1.07,0,0,1-.163-.452,5.6,5.6,0,0,1-.037-.817V17.868h-.533v-.925h.533v-.872l1.165-.678v1.55Z" style="fill:#fff"/><path d="M313.214,16.943v.925h-.793v1.769a4.394,4.394,0,0,0,.023.626.258.258,0,0,0,.1.146.331.331,0,0,0,.2.058,1.5,1.5,0,0,0,.467-.111l.1.9a2.316,2.316,0,0,1-.917.174,1.452,1.452,0,0,1-.566-.105.823.823,0,0,1-.37-.273,1.07,1.07,0,0,1-.163-.452,5.6,5.6,0,0,1-.037-.817V17.868h-.533v-.925h.533v-.872l1.165-.678v1.55Z" style="fill:#fff"/><path d="M315.122,21.329h-1.161V16.943h1.078v.623a1.882,1.882,0,0,1,.5-.582.913.913,0,0,1,.5-.141,1.478,1.478,0,0,1,.765.219l-.359,1.013a1.018,1.018,0,0,0-.545-.19.642.642,0,0,0-.413.135.916.916,0,0,0-.267.485,6.9,6.9,0,0,0-.1,1.471Z" style="fill:#fff"/><path d="M317.3,16.348V15.274h1.161v1.074Zm0,4.981V16.943h1.161v4.387Z" style="fill:#fff"/><path d="M319.6,21.329V15.274h1.161v2.181a1.644,1.644,0,0,1,1.272-.611,1.709,1.709,0,0,1,1.326.581,2.4,2.4,0,0,1,.524,1.666,2.54,2.54,0,0,1-.535,1.731,1.672,1.672,0,0,1-1.3.607,1.611,1.611,0,0,1-.742-.188,1.771,1.771,0,0,1-.63-.556v.645Zm1.152-2.288a1.868,1.868,0,0,0,.215,1.008.918.918,0,0,0,.8.462.822.822,0,0,0,.655-.328,1.615,1.615,0,0,0,.271-1.034,1.711,1.711,0,0,0-.273-1.085.862.862,0,0,0-.7-.332.873.873,0,0,0-.694.324A1.487,1.487,0,0,0,320.748,19.041Z" style="fill:#fff"/><path d="M327.7,21.329v-.657a1.686,1.686,0,0,1-.63.554,1.77,1.77,0,0,1-.824.2,1.617,1.617,0,0,1-.793-.194,1.149,1.149,0,0,1-.508-.546,2.434,2.434,0,0,1-.157-.971V16.943h1.161v2.016a5.6,5.6,0,0,0,.064,1.134.623.623,0,0,0,.233.331.719.719,0,0,0,.43.121.908.908,0,0,0,.533-.163.825.825,0,0,0,.322-.4,4.683,4.683,0,0,0,.087-1.184V16.943h1.161v4.387Z" style="fill:#fff"/><path d="M331.993,16.943v.925H331.2v1.769a4.394,4.394,0,0,0,.023.626.258.258,0,0,0,.1.146.331.331,0,0,0,.2.058,1.5,1.5,0,0,0,.467-.111l.1.9a2.316,2.316,0,0,1-.917.174,1.452,1.452,0,0,1-.566-.105.823.823,0,0,1-.37-.273,1.07,1.07,0,0,1-.163-.452,5.6,5.6,0,0,1-.037-.817V17.868H329.5v-.925h.533v-.872l1.165-.678v1.55Z" style="fill:#fff"/><path d="M335.331,19.933l1.156.194a1.9,1.9,0,0,1-.7.969,2.069,2.069,0,0,1-1.2.333,1.964,1.964,0,0,1-1.694-.748,2.513,2.513,0,0,1-.434-1.512,2.421,2.421,0,0,1,.57-1.708,1.878,1.878,0,0,1,1.442-.618,1.948,1.948,0,0,1,1.545.646,2.861,2.861,0,0,1,.541,1.98h-2.908a1.174,1.174,0,0,0,.281.8.878.878,0,0,0,.669.287.714.714,0,0,0,.458-.148A.92.92,0,0,0,335.331,19.933Zm.066-1.173a1.12,1.12,0,0,0-.26-.767.839.839,0,0,0-1.231.015,1.07,1.07,0,0,0-.244.752Z" style="fill:#fff"/><path d="M337.077,20.078l1.165-.178a.852.852,0,0,0,.3.515,1.018,1.018,0,0,0,.636.176,1.156,1.156,0,0,0,.678-.165.37.37,0,0,0,.153-.311.3.3,0,0,0-.083-.219.929.929,0,0,0-.388-.152,6.269,6.269,0,0,1-1.78-.566,1.129,1.129,0,0,1-.521-.987,1.216,1.216,0,0,1,.45-.958,2.1,2.1,0,0,1,1.4-.389,2.429,2.429,0,0,1,1.338.294,1.5,1.5,0,0,1,.6.867l-1.095.2a.677.677,0,0,0-.267-.393.975.975,0,0,0-.56-.136,1.256,1.256,0,0,0-.657.128.274.274,0,0,0-.132.235.257.257,0,0,0,.116.211,4.357,4.357,0,0,0,1.084.326,3.226,3.226,0,0,1,1.295.517,1.073,1.073,0,0,1,.363.863,1.325,1.325,0,0,1-.5,1.036,2.231,2.231,0,0,1-1.491.435,2.449,2.449,0,0,1-1.419-.364A1.675,1.675,0,0,1,337.077,20.078Z" style="fill:#fff"/></g></g><path d="M209.67,64.47c0,7.02-14.22,12.72-31.8,12.72-17.52,0-31.74-5.7-31.74-12.72s14.22-12.72,31.74-12.72c17.58,0,31.8,5.7,31.8,12.72" style="fill:#928788;fill-rule:evenodd"/><path d="M209.61,64.47c0,7.02-14.16,12.66-31.74,12.66-17.52,0-31.74-5.64-31.74-12.66s14.22-12.72,31.74-12.72C195.45,51.75,209.61,57.45,209.61,64.47Z" style="fill:none;stroke:#928788;stroke-linecap:round;stroke-miterlimit:10;stroke-width:0.6600000262260437px"/><path d="M207.87,62.67c0,7.02-14.22,12.72-31.8,12.72-17.52,0-31.74-5.7-31.74-12.72s14.22-12.72,31.74-12.72c17.58,0,31.8,5.7,31.8,12.72" style="fill-rule:evenodd;fill:url(#linear-gradient-8)"/><path d="M207.81,62.67c0,7.02-14.16,12.66-31.74,12.66-17.52,0-31.74-5.64-31.74-12.66s14.22-12.72,31.74-12.72C193.65,49.95,207.81,55.65,207.81,62.67Z" style="fill:none;stroke:#5053a4;stroke-linecap:round;stroke-miterlimit:10;stroke-width:0.6600000262260437px"/><g style="clip-path:url(#clip-path-17)"><g style="clip-path:url(#clip-path-2)"><path d="M160.97,65.49V59.434h2.574a4.418,4.418,0,0,1,1.411.163,1.389,1.389,0,0,1,.7.58,1.746,1.746,0,0,1,.265.954,1.616,1.616,0,0,1-.4,1.126,1.925,1.925,0,0,1-1.2.56,2.876,2.876,0,0,1,.654.508,6.907,6.907,0,0,1,.7.983l.739,1.182h-1.462l-.884-1.317a8.529,8.529,0,0,0-.645-.891.949.949,0,0,0-.368-.252,2.029,2.029,0,0,0-.615-.068h-.248V65.49Zm1.223-3.5h.9a4.66,4.66,0,0,0,1.1-.074.654.654,0,0,0,.343-.256.785.785,0,0,0,.124-.454.728.728,0,0,0-.163-.494.751.751,0,0,0-.46-.237q-.149-.021-.893-.021h-.954Z" style="fill:#fff"/><path d="M169.6,64.093l1.156.194a1.9,1.9,0,0,1-.7.969,2.069,2.069,0,0,1-1.2.333,1.964,1.964,0,0,1-1.694-.748,2.513,2.513,0,0,1-.434-1.512,2.421,2.421,0,0,1,.57-1.708A1.878,1.878,0,0,1,168.732,61a1.948,1.948,0,0,1,1.545.646,2.861,2.861,0,0,1,.541,1.98H167.91a1.174,1.174,0,0,0,.281.8.878.878,0,0,0,.669.287.714.714,0,0,0,.458-.148A.92.92,0,0,0,169.6,64.093Zm.066-1.173a1.12,1.12,0,0,0-.26-.767.839.839,0,0,0-1.231.015,1.07,1.07,0,0,0-.244.752Z" style="fill:#fff"/><path d="M172.623,62.441l-1.053-.189a1.64,1.64,0,0,1,.611-.942A2.243,2.243,0,0,1,173.47,61a2.785,2.785,0,0,1,1.156.184,1.159,1.159,0,0,1,.535.467,2.4,2.4,0,0,1,.155,1.039l-.012,1.355a4.7,4.7,0,0,0,.056.853,2.469,2.469,0,0,0,.208.589H174.42q-.045-.116-.111-.343c-.02-.069-.033-.114-.042-.137a2.066,2.066,0,0,1-.636.434,1.816,1.816,0,0,1-.723.146,1.5,1.5,0,0,1-1.068-.368,1.222,1.222,0,0,1-.39-.93,1.252,1.252,0,0,1,.177-.663,1.162,1.162,0,0,1,.5-.445,3.871,3.871,0,0,1,.923-.271,6.335,6.335,0,0,0,1.127-.284v-.116a.6.6,0,0,0-.165-.477.987.987,0,0,0-.624-.143.83.83,0,0,0-.483.121A.855.855,0,0,0,172.623,62.441Zm1.553.942q-.223.073-.706.178a2.108,2.108,0,0,0-.632.2.484.484,0,0,0-.227.409.569.569,0,0,0,.182.421.636.636,0,0,0,.463.178,1,1,0,0,0,.6-.207.725.725,0,0,0,.277-.384,2.29,2.29,0,0,0,.045-.565Z" style="fill:#fff"/><path d="M176.043,64.238l1.165-.178a.852.852,0,0,0,.3.515,1.018,1.018,0,0,0,.636.176,1.156,1.156,0,0,0,.678-.165.37.37,0,0,0,.153-.311.3.3,0,0,0-.083-.219.929.929,0,0,0-.388-.152,6.269,6.269,0,0,1-1.78-.566,1.129,1.129,0,0,1-.521-.987,1.216,1.216,0,0,1,.45-.958,2.1,2.1,0,0,1,1.4-.389,2.429,2.429,0,0,1,1.338.294,1.5,1.5,0,0,1,.6.867l-1.095.2a.677.677,0,0,0-.267-.393.975.975,0,0,0-.56-.136,1.256,1.256,0,0,0-.657.128.274.274,0,0,0-.132.235.257.257,0,0,0,.116.211,4.357,4.357,0,0,0,1.084.326,3.226,3.226,0,0,1,1.295.517,1.073,1.073,0,0,1,.363.863,1.325,1.325,0,0,1-.5,1.036,2.231,2.231,0,0,1-1.491.435,2.449,2.449,0,0,1-1.419-.364A1.675,1.675,0,0,1,176.043,64.238Z" style="fill:#fff"/><path d="M180.88,63.234a2.376,2.376,0,0,1,.285-1.119,1.965,1.965,0,0,1,.808-.826A2.4,2.4,0,0,1,183.14,61a2.192,2.192,0,0,1,1.632.646,2.234,2.234,0,0,1,.636,1.634,2.26,2.26,0,0,1-.643,1.65,2.171,2.171,0,0,1-1.617.655,2.55,2.55,0,0,1-1.15-.273,1.875,1.875,0,0,1-.833-.8A2.668,2.668,0,0,1,180.88,63.234Zm1.189.063a1.456,1.456,0,0,0,.31,1,1.013,1.013,0,0,0,1.526,0,1.475,1.475,0,0,0,.308-1.009,1.446,1.446,0,0,0-.308-.991,1.013,1.013,0,0,0-1.526,0A1.454,1.454,0,0,0,182.07,63.3Z" style="fill:#fff"/><path d="M190.3,65.49h-1.161V63.25a3.446,3.446,0,0,0-.075-.919.645.645,0,0,0-.241-.324.692.692,0,0,0-.4-.115.93.93,0,0,0-.542.165.832.832,0,0,0-.328.438,3.788,3.788,0,0,0-.089,1.008V65.49H186.3V61.1h1.078v.645A1.756,1.756,0,0,1,188.824,61a1.733,1.733,0,0,1,.7.139,1.172,1.172,0,0,1,.481.354,1.285,1.285,0,0,1,.227.487,3.633,3.633,0,0,1,.064.78Z" style="fill:#fff"/></g></g><path d="M356.67,64.47c0,7.02-14.22,12.72-31.8,12.72-17.52,0-31.74-5.7-31.74-12.72s14.22-12.72,31.74-12.72c17.58,0,31.8,5.7,31.8,12.72" style="fill:#928788;fill-rule:evenodd"/><path d="M356.61,64.47c0,7.02-14.16,12.66-31.74,12.66-17.52,0-31.74-5.64-31.74-12.66s14.22-12.72,31.74-12.72C342.45,51.75,356.61,57.45,356.61,64.47Z" style="fill:none;stroke:#928788;stroke-linecap:round;stroke-miterlimit:10;stroke-width:0.6600000262260437px"/><path d="M354.87,62.67c0,7.02-14.22,12.72-31.8,12.72-17.52,0-31.74-5.7-31.74-12.72s14.22-12.72,31.74-12.72c17.58,0,31.8,5.7,31.8,12.72" style="fill-rule:evenodd;fill:url(#linear-gradient-9)"/><path d="M354.81,62.67c0,7.02-14.16,12.66-31.74,12.66-17.52,0-31.74-5.64-31.74-12.66s14.22-12.72,31.74-12.72C340.65,49.95,354.81,55.65,354.81,62.67Z" style="fill:none;stroke:#5053a4;stroke-linecap:round;stroke-miterlimit:10;stroke-width:0.6600000262260437px"/><g style="clip-path:url(#clip-path-19)"><g style="clip-path:url(#clip-path-2)"><path d="M308.855,63.519l1.19-.115a1.451,1.451,0,0,0,.436.88,1.316,1.316,0,0,0,.886.28,1.366,1.366,0,0,0,.89-.249.745.745,0,0,0,.3-.585.55.55,0,0,0-.126-.365,1,1,0,0,0-.44-.263q-.215-.075-.979-.265a3.309,3.309,0,0,1-1.379-.6,1.575,1.575,0,0,1-.558-1.219,1.553,1.553,0,0,1,.263-.865,1.642,1.642,0,0,1,.756-.613,3.026,3.026,0,0,1,1.192-.211,2.558,2.558,0,0,1,1.716.5,1.765,1.765,0,0,1,.6,1.334l-1.223.054a1.036,1.036,0,0,0-.337-.671,1.229,1.229,0,0,0-.774-.205,1.394,1.394,0,0,0-.834.22.441.441,0,0,0-.194.376.465.465,0,0,0,.182.367,3.208,3.208,0,0,0,1.124.405,5.879,5.879,0,0,1,1.32.436,1.7,1.7,0,0,1,.669.615,1.8,1.8,0,0,1,.242.965,1.782,1.782,0,0,1-.289.975,1.736,1.736,0,0,1-.818.676,3.427,3.427,0,0,1-1.318.221,2.619,2.619,0,0,1-1.764-.531A2.307,2.307,0,0,1,308.855,63.519Z" style="fill:#fff"/><path d="M317.34,64.093l1.156.194a1.9,1.9,0,0,1-.7.969,2.069,2.069,0,0,1-1.2.333,1.964,1.964,0,0,1-1.694-.748,2.513,2.513,0,0,1-.434-1.512,2.421,2.421,0,0,1,.57-1.708A1.878,1.878,0,0,1,316.473,61a1.948,1.948,0,0,1,1.545.646,2.861,2.861,0,0,1,.541,1.98H315.65a1.174,1.174,0,0,0,.281.8.878.878,0,0,0,.669.287.714.714,0,0,0,.458-.148A.92.92,0,0,0,317.34,64.093Zm.066-1.173a1.12,1.12,0,0,0-.26-.767.839.839,0,0,0-1.231.015,1.07,1.07,0,0,0-.244.752Z" style="fill:#fff"/><path d="M323.322,62.4l-1.145.206a.828.828,0,0,0-.262-.516.79.79,0,0,0-.531-.174.866.866,0,0,0-.692.3,1.532,1.532,0,0,0-.258,1,1.776,1.776,0,0,0,.262,1.1.861.861,0,0,0,.7.322.78.78,0,0,0,.541-.188,1.127,1.127,0,0,0,.3-.646l1.14.194a2.022,2.022,0,0,1-.682,1.186,2.107,2.107,0,0,1-1.351.4,2.01,2.01,0,0,1-1.535-.607,2.768,2.768,0,0,1,0-3.373A2.04,2.04,0,0,1,321.368,61a2.123,2.123,0,0,1,1.274.345A1.917,1.917,0,0,1,323.322,62.4Z" style="fill:#fff"/><path d="M327.081,65.49v-.657a1.686,1.686,0,0,1-.63.554,1.77,1.77,0,0,1-.824.2,1.617,1.617,0,0,1-.793-.194,1.149,1.149,0,0,1-.508-.546,2.434,2.434,0,0,1-.157-.971V61.1h1.161v2.016a5.6,5.6,0,0,0,.064,1.134.623.623,0,0,0,.233.331.719.719,0,0,0,.43.121.908.908,0,0,0,.533-.163.825.825,0,0,0,.322-.4A4.683,4.683,0,0,0,327,62.954V61.1h1.161V65.49Z" style="fill:#fff"/><path d="M330.472,65.49h-1.161V61.1h1.078v.623a1.882,1.882,0,0,1,.5-.582.913.913,0,0,1,.5-.141,1.478,1.478,0,0,1,.765.219l-.359,1.013a1.018,1.018,0,0,0-.545-.19.642.642,0,0,0-.413.135.916.916,0,0,0-.267.485,6.9,6.9,0,0,0-.1,1.471Z" style="fill:#fff"/><path d="M335.185,64.093l1.156.194a1.9,1.9,0,0,1-.7.969,2.069,2.069,0,0,1-1.2.333,1.964,1.964,0,0,1-1.694-.748,2.513,2.513,0,0,1-.434-1.512,2.421,2.421,0,0,1,.57-1.708A1.878,1.878,0,0,1,334.317,61a1.948,1.948,0,0,1,1.545.646,2.861,2.861,0,0,1,.541,1.98H333.5a1.174,1.174,0,0,0,.281.8.878.878,0,0,0,.669.287.714.714,0,0,0,.458-.148A.92.92,0,0,0,335.185,64.093Zm.066-1.173a1.12,1.12,0,0,0-.26-.767.839.839,0,0,0-1.231.015,1.07,1.07,0,0,0-.244.752Z" style="fill:#fff"/></g></g><rect x="1.83" y="1.83" width="64.14" height="26.04" style="fill:#928788"/><path d="M2.13,2.13m0,25.38V2.13H65.61V27.51Z" style="fill:none;stroke:#928788;stroke-linecap:round;stroke-miterlimit:10;stroke-width:0.6600000262260437px"/><rect x="0.03" y="0.03" width="64.14" height="26.04" style="fill:url(#linear-gradient-10)"/><path d="M.33.33m0,25.38V.33H63.81V25.71Z" style="fill:none;stroke:#5053a4;stroke-linecap:round;stroke-miterlimit:10;stroke-width:0.6600000262260437px"/><g style="clip-path:url(#clip-path-21)"><g style="clip-path:url(#clip-path-2)"><path d="M14.256,13.959l1.19-.115a1.451,1.451,0,0,0,.436.88,1.316,1.316,0,0,0,.886.28,1.366,1.366,0,0,0,.89-.249.745.745,0,0,0,.3-.585.55.55,0,0,0-.126-.365,1,1,0,0,0-.44-.263q-.215-.075-.979-.265a3.309,3.309,0,0,1-1.379-.6,1.575,1.575,0,0,1-.558-1.219,1.553,1.553,0,0,1,.263-.865,1.642,1.642,0,0,1,.756-.613,3.026,3.026,0,0,1,1.192-.211,2.558,2.558,0,0,1,1.716.5,1.765,1.765,0,0,1,.6,1.334l-1.223.054a1.036,1.036,0,0,0-.337-.671,1.229,1.229,0,0,0-.774-.205,1.394,1.394,0,0,0-.834.22.441.441,0,0,0-.194.376.465.465,0,0,0,.182.367,3.208,3.208,0,0,0,1.124.405,5.879,5.879,0,0,1,1.32.436,1.7,1.7,0,0,1,.669.615,1.8,1.8,0,0,1,.242.965,1.782,1.782,0,0,1-.289.975,1.736,1.736,0,0,1-.818.676,3.427,3.427,0,0,1-1.318.221,2.619,2.619,0,0,1-1.764-.531A2.307,2.307,0,0,1,14.256,13.959Z" style="fill:#fff"/><path d="M23.08,15.93v-.657a1.686,1.686,0,0,1-.63.554,1.77,1.77,0,0,1-.824.2,1.617,1.617,0,0,1-.793-.194,1.149,1.149,0,0,1-.508-.546,2.434,2.434,0,0,1-.157-.971V11.543h1.161v2.016a5.6,5.6,0,0,0,.064,1.134.623.623,0,0,0,.233.331.719.719,0,0,0,.43.121.908.908,0,0,0,.533-.163.825.825,0,0,0,.322-.4A4.683,4.683,0,0,0,23,13.394V11.543h1.161V15.93Z" style="fill:#fff"/><path d="M25.3,15.93V9.874h1.161v2.181a1.644,1.644,0,0,1,1.272-.611,1.709,1.709,0,0,1,1.326.581,2.4,2.4,0,0,1,.524,1.666,2.54,2.54,0,0,1-.535,1.731,1.672,1.672,0,0,1-1.3.607,1.611,1.611,0,0,1-.742-.188,1.771,1.771,0,0,1-.63-.556v.645Zm1.152-2.288a1.868,1.868,0,0,0,.215,1.008.918.918,0,0,0,.8.462.822.822,0,0,0,.655-.328,1.615,1.615,0,0,0,.271-1.034,1.711,1.711,0,0,0-.273-1.085.862.862,0,0,0-.7-.332.873.873,0,0,0-.694.324A1.487,1.487,0,0,0,26.454,13.642Z" style="fill:#fff"/><path d="M31.647,11.543v4.25a4.412,4.412,0,0,1-.109,1.184.957.957,0,0,1-.421.539,1.479,1.479,0,0,1-.8.194,2.353,2.353,0,0,1-.374-.031,3.888,3.888,0,0,1-.432-.093l.2-.991c.055.011.107.02.155.027a.95.95,0,0,0,.134.01.513.513,0,0,0,.291-.076.369.369,0,0,0,.151-.184,3.049,3.049,0,0,0,.037-.645V11.543Zm-1.161-.595V9.874h1.161v1.074Z" style="fill:#fff"/><path d="M35.394,14.534l1.156.194a1.9,1.9,0,0,1-.7.969,2.069,2.069,0,0,1-1.2.333,1.964,1.964,0,0,1-1.694-.748,2.513,2.513,0,0,1-.434-1.512,2.421,2.421,0,0,1,.57-1.708,1.878,1.878,0,0,1,1.442-.618,1.948,1.948,0,0,1,1.545.646,2.861,2.861,0,0,1,.541,1.98H33.7a1.174,1.174,0,0,0,.281.8.878.878,0,0,0,.669.287.714.714,0,0,0,.458-.148A.92.92,0,0,0,35.394,14.534Zm.066-1.173a1.12,1.12,0,0,0-.26-.767.839.839,0,0,0-1.231.015,1.07,1.07,0,0,0-.244.752Z" style="fill:#fff"/><path d="M41.375,12.84l-1.145.206a.828.828,0,0,0-.262-.516.79.79,0,0,0-.531-.174.866.866,0,0,0-.692.3,1.532,1.532,0,0,0-.258,1,1.776,1.776,0,0,0,.262,1.1.861.861,0,0,0,.7.322.78.78,0,0,0,.541-.188,1.127,1.127,0,0,0,.3-.646l1.14.194a2.022,2.022,0,0,1-.682,1.186,2.107,2.107,0,0,1-1.351.4,2.01,2.01,0,0,1-1.535-.607,2.357,2.357,0,0,1-.572-1.682,2.358,2.358,0,0,1,.574-1.691,2.04,2.04,0,0,1,1.553-.605,2.123,2.123,0,0,1,1.274.345A1.917,1.917,0,0,1,41.375,12.84Z" style="fill:#fff"/><path d="M44.258,11.543v.925h-.793v1.769a4.394,4.394,0,0,0,.023.626.258.258,0,0,0,.1.146.331.331,0,0,0,.2.058,1.5,1.5,0,0,0,.467-.111l.1.9a2.316,2.316,0,0,1-.917.174,1.452,1.452,0,0,1-.566-.105.823.823,0,0,1-.37-.273,1.07,1.07,0,0,1-.163-.452,5.6,5.6,0,0,1-.037-.817V12.468h-.533v-.925H42.3v-.872l1.165-.678v1.55Z" style="fill:#fff"/><path d="M44.646,14.678l1.165-.178a.852.852,0,0,0,.3.515,1.018,1.018,0,0,0,.636.176,1.156,1.156,0,0,0,.678-.165.37.37,0,0,0,.153-.311A.3.3,0,0,0,47.5,14.5a.929.929,0,0,0-.388-.152,6.269,6.269,0,0,1-1.78-.566,1.129,1.129,0,0,1-.521-.987,1.216,1.216,0,0,1,.45-.958,2.1,2.1,0,0,1,1.4-.389,2.429,2.429,0,0,1,1.338.294,1.5,1.5,0,0,1,.6.867l-1.095.2a.677.677,0,0,0-.267-.393.975.975,0,0,0-.56-.136,1.256,1.256,0,0,0-.657.128.274.274,0,0,0-.132.235.257.257,0,0,0,.116.211,4.357,4.357,0,0,0,1.084.326,3.226,3.226,0,0,1,1.295.517,1.073,1.073,0,0,1,.363.863,1.325,1.325,0,0,1-.5,1.036,2.231,2.231,0,0,1-1.491.435,2.449,2.449,0,0,1-1.419-.364A1.675,1.675,0,0,1,44.646,14.678Z" style="fill:#fff"/></g></g></svg>