<svg id="Layer_1" data-name="Layer 1" xmlns="http://www.w3.org/2000/svg" xmlns:xlink="http://www.w3.org/1999/xlink" viewBox="0 0 138.57 76.86"><defs><linearGradient id="linear-gradient" x1="32.1" y1="0.03" x2="32.1" y2="26.07" gradientUnits="userSpaceOnUse"><stop offset="0" stop-color="#457cbf"/><stop offset="1" stop-color="#3a53a4"/></linearGradient><clipPath id="clip-path" transform="translate(0)"><polyline points="13.35 8.13 13.35 17.61 50.49 17.61 50.49 12.87 52.89 12.87 52.89 8.13" style="fill:none;clip-rule:evenodd"/></clipPath><clipPath id="clip-path-2" transform="translate(0)"><rect x="-383.52" y="-315.15" width="792" height="612" style="fill:none"/></clipPath><linearGradient id="linear-gradient-2" x1="104.7" y1="0.03" x2="104.7" y2="26.07" xlink:href="#linear-gradient"/><clipPath id="clip-path-3" transform="translate(0)"><polyline points="88.95 2.67 88.95 12.15 122.31 12.15 122.31 7.41 124.71 7.41 124.71 2.67" style="fill:none;clip-rule:evenodd"/></clipPath><clipPath id="clip-path-5" transform="translate(0)"><polyline points="84.69 12.93 84.69 22.41 123.21 22.41 123.21 17.67 125.61 17.67 125.61 12.93" style="fill:none;clip-rule:evenodd"/></clipPath><linearGradient id="linear-gradient-3" x1="69" y1="49.35" x2="69" y2="74.79" gradientUnits="userSpaceOnUse"><stop offset="0" stop-color="#f48180"/><stop offset="1" stop-color="#ed2224"/></linearGradient><clipPath id="clip-path-7" transform="translate(0)"><polyline points="53.25 57.09 53.25 66.57 83.79 66.57 83.79 61.83 86.19 61.83 86.19 57.09" style="fill:none;clip-rule:evenodd"/></clipPath></defs><title>raw.derived</title><rect x="1.83" y="1.83" width="64.14" height="26.04" style="fill:#928788"/><path d="M2.13,2.13m0,25.38V2.13H65.61V27.51Z" transform="translate(0)" style="fill:none;stroke:#928788;stroke-linecap:round;stroke-miterlimit:10;stroke-width:0.660000026226044px"/><rect x="0.03" y="0.03" width="64.14" height="26.04" style="fill:url(#linear-gradient)"/><path d="M.33.33m0,25.38V.33H63.81V25.71Z" transform="translate(0)" style="fill:none;stroke:#5053a4;stroke-linecap:round;stroke-miterlimit:10;stroke-width:0.660000026226044px"/><g style="clip-path:url(#clip-path)"><g style="clip-path:url(#clip-path-2)"><path d="M13.969,15.991V9.934h2.574a4.38,4.38,0,0,1,1.41.164,1.389,1.389,0,0,1,.705.58,1.745,1.745,0,0,1,.264.954,1.622,1.622,0,0,1-.4,1.126,1.927,1.927,0,0,1-1.2.559,2.869,2.869,0,0,1,.655.509,6.881,6.881,0,0,1,.7.983l.74,1.182H17.951l-.884-1.318a8.491,8.491,0,0,0-.645-.891.948.948,0,0,0-.367-.252,2.036,2.036,0,0,0-.616-.068h-.247v2.529Zm1.224-3.5h.9a4.654,4.654,0,0,0,1.1-.074.657.657,0,0,0,.343-.257.783.783,0,0,0,.124-.454.726.726,0,0,0-.163-.493.752.752,0,0,0-.461-.238c-.1-.014-.4-.02-.892-.02h-.954Z" transform="translate(0)" style="fill:#fff"/><path d="M20.926,12.942l-1.054-.19a1.648,1.648,0,0,1,.612-.942,2.242,2.242,0,0,1,1.288-.3,2.775,2.775,0,0,1,1.157.184,1.154,1.154,0,0,1,.534.467,2.389,2.389,0,0,1,.155,1.039l-.013,1.354a4.7,4.7,0,0,0,.056.853,2.56,2.56,0,0,0,.209.59H22.722c-.03-.078-.067-.191-.111-.344-.02-.068-.033-.113-.041-.136a2.109,2.109,0,0,1-.637.434,1.816,1.816,0,0,1-.723.145,1.488,1.488,0,0,1-1.067-.368,1.218,1.218,0,0,1-.391-.929,1.239,1.239,0,0,1,.178-.663,1.161,1.161,0,0,1,.5-.446,3.936,3.936,0,0,1,.924-.271,6.345,6.345,0,0,0,1.128-.285v-.115a.6.6,0,0,0-.166-.478.988.988,0,0,0-.623-.143.83.83,0,0,0-.483.122A.84.84,0,0,0,20.926,12.942Zm1.554.941a7.112,7.112,0,0,1-.707.178,2.1,2.1,0,0,0-.632.2.484.484,0,0,0-.228.408.57.57,0,0,0,.183.422.633.633,0,0,0,.462.178,1.007,1.007,0,0,0,.6-.207.727.727,0,0,0,.276-.385,2.278,2.278,0,0,0,.046-.565Z" transform="translate(0)" style="fill:#fff"/><path d="M25.572,15.991,24.184,11.6h1.128l.822,2.876L26.89,11.6H28.01l.731,2.876.838-2.876h1.145l-1.408,4.388H28.2l-.756-2.822L26.7,15.991Z" transform="translate(0)" style="fill:#fff"/><path d="M38.013,15.991H36.935v-.645a1.747,1.747,0,0,1-.635.56,1.63,1.63,0,0,1-.737.184,1.671,1.671,0,0,1-1.295-.609,2.479,2.479,0,0,1-.539-1.7,2.445,2.445,0,0,1,.525-1.7,1.709,1.709,0,0,1,1.325-.58,1.64,1.64,0,0,1,1.272.611V9.934h1.161Zm-3.1-2.289a2.009,2.009,0,0,0,.194,1.016.877.877,0,0,0,.785.455.855.855,0,0,0,.682-.341,1.572,1.572,0,0,0,.28-1.019,1.719,1.719,0,0,0-.272-1.088.86.86,0,0,0-.7-.333.872.872,0,0,0-.691.329A1.483,1.483,0,0,0,34.915,13.7Z" transform="translate(0)" style="fill:#fff"/><path d="M40.025,12.942l-1.054-.19a1.648,1.648,0,0,1,.612-.942,2.242,2.242,0,0,1,1.288-.3,2.775,2.775,0,0,1,1.157.184,1.154,1.154,0,0,1,.534.467,2.389,2.389,0,0,1,.155,1.039l-.013,1.354a4.7,4.7,0,0,0,.056.853,2.56,2.56,0,0,0,.209.59H41.822c-.03-.078-.067-.191-.111-.344-.02-.068-.033-.113-.041-.136a2.109,2.109,0,0,1-.637.434,1.816,1.816,0,0,1-.723.145,1.488,1.488,0,0,1-1.067-.368,1.218,1.218,0,0,1-.391-.929,1.239,1.239,0,0,1,.178-.663,1.161,1.161,0,0,1,.5-.446,3.936,3.936,0,0,1,.924-.271,6.345,6.345,0,0,0,1.128-.285v-.115a.6.6,0,0,0-.166-.478.988.988,0,0,0-.623-.143.83.83,0,0,0-.483.122A.84.84,0,0,0,40.025,12.942Zm1.554.941a7.112,7.112,0,0,1-.707.178,2.1,2.1,0,0,0-.632.2.484.484,0,0,0-.228.408.57.57,0,0,0,.183.422.633.633,0,0,0,.462.178,1.007,1.007,0,0,0,.6-.207.727.727,0,0,0,.276-.385,2.278,2.278,0,0,0,.046-.565Z" transform="translate(0)" style="fill:#fff"/><path d="M45.866,11.6v.926h-.793V14.3a4.331,4.331,0,0,0,.022.626.253.253,0,0,0,.1.146.325.325,0,0,0,.2.059,1.486,1.486,0,0,0,.467-.112l.1.9a2.312,2.312,0,0,1-.917.173,1.451,1.451,0,0,1-.565-.105.822.822,0,0,1-.37-.272,1.077,1.077,0,0,1-.163-.452,5.541,5.541,0,0,1-.037-.817V12.529h-.533V11.6h.533v-.872l1.165-.677V11.6Z" transform="translate(0)" style="fill:#fff"/><path d="M47.539,12.942l-1.054-.19a1.648,1.648,0,0,1,.612-.942,2.242,2.242,0,0,1,1.288-.3,2.775,2.775,0,0,1,1.157.184,1.154,1.154,0,0,1,.534.467,2.389,2.389,0,0,1,.155,1.039l-.013,1.354a4.7,4.7,0,0,0,.056.853,2.56,2.56,0,0,0,.209.59H49.336c-.03-.078-.067-.191-.111-.344-.02-.068-.033-.113-.041-.136a2.109,2.109,0,0,1-.637.434,1.816,1.816,0,0,1-.723.145,1.488,1.488,0,0,1-1.067-.368,1.218,1.218,0,0,1-.391-.929,1.239,1.239,0,0,1,.178-.663,1.161,1.161,0,0,1,.5-.446,3.936,3.936,0,0,1,.924-.271,6.345,6.345,0,0,0,1.128-.285v-.115a.6.6,0,0,0-.166-.478.988.988,0,0,0-.623-.143.83.83,0,0,0-.483.122A.84.84,0,0,0,47.539,12.942Zm1.554.941a7.112,7.112,0,0,1-.707.178,2.1,2.1,0,0,0-.632.2.484.484,0,0,0-.228.408.57.57,0,0,0,.183.422.633.633,0,0,0,.462.178,1.007,1.007,0,0,0,.6-.207.727.727,0,0,0,.276-.385,2.278,2.278,0,0,0,.046-.565Z" transform="translate(0)" style="fill:#fff"/></g></g><rect x="74.43" y="1.83" width="64.14" height="26.04" style="fill:#928788"/><path d="M74.73,2.13m0,25.38V2.13h63.48V27.51Z" transform="translate(0)" style="fill:none;stroke:#928788;stroke-linecap:round;stroke-miterlimit:10;stroke-width:0.660000026226044px"/><rect x="72.63" y="0.03" width="64.14" height="26.04" style="fill:url(#linear-gradient-2)"/><path d="M72.93.33m0,25.38V.33h63.48V25.71Z" transform="translate(0)" style="fill:none;stroke:#5053a4;stroke-linecap:round;stroke-miterlimit:10;stroke-width:0.660000026226044px"/><g style="clip-path:url(#clip-path-3)"><g style="clip-path:url(#clip-path-2)"><path d="M89.561,4.474H91.8a4.362,4.362,0,0,1,1.153.116,2.019,2.019,0,0,1,.912.558,2.643,2.643,0,0,1,.579.98,4.48,4.48,0,0,1,.2,1.432,3.982,3.982,0,0,1-.187,1.289A2.663,2.663,0,0,1,93.8,9.918a2.135,2.135,0,0,1-.859.483,3.675,3.675,0,0,1-1.082.128h-2.3ZM90.784,5.5V9.509H91.7a3.3,3.3,0,0,0,.739-.058A1.136,1.136,0,0,0,92.93,9.2a1.277,1.277,0,0,0,.319-.584,3.94,3.94,0,0,0,.124-1.109,3.608,3.608,0,0,0-.124-1.078,1.382,1.382,0,0,0-.347-.587,1.162,1.162,0,0,0-.565-.285,5.6,5.6,0,0,0-1-.058Z" transform="translate(0)" style="fill:#fff"/><path d="M98.207,9.134l1.157.193a1.9,1.9,0,0,1-.705.969,2.067,2.067,0,0,1-1.2.333,1.961,1.961,0,0,1-1.693-.748,2.513,2.513,0,0,1-.434-1.512,2.421,2.421,0,0,1,.57-1.708,1.876,1.876,0,0,1,1.441-.618,1.948,1.948,0,0,1,1.545.646,2.865,2.865,0,0,1,.541,1.981H96.517a1.171,1.171,0,0,0,.281.8.875.875,0,0,0,.669.287.71.71,0,0,0,.459-.148A.916.916,0,0,0,98.207,9.134Zm.066-1.174a1.115,1.115,0,0,0-.261-.766.8.8,0,0,0-.6-.263.8.8,0,0,0-.628.276,1.072,1.072,0,0,0-.244.752Z" transform="translate(0)" style="fill:#fff"/><path d="M101.483,10.53h-1.161V6.143H101.4v.624a1.876,1.876,0,0,1,.5-.583.915.915,0,0,1,.5-.141,1.469,1.469,0,0,1,.764.22L102.8,7.275a1.016,1.016,0,0,0-.545-.19.642.642,0,0,0-.413.135.914.914,0,0,0-.267.485,6.928,6.928,0,0,0-.1,1.471Z" transform="translate(0)" style="fill:#fff"/><path d="M103.664,5.548V4.474h1.16V5.548Zm0,4.981V6.143h1.16V10.53Z" transform="translate(0)" style="fill:#fff"/><path d="M107.221,10.53l-1.768-4.387h1.218l.826,2.239.24.747c.063-.189.1-.315.119-.376.039-.124.08-.247.124-.371l.835-2.239h1.193l-1.743,4.387Z" transform="translate(0)" style="fill:#fff"/><path d="M113.116,9.134l1.157.193a1.9,1.9,0,0,1-.705.969,2.067,2.067,0,0,1-1.2.333,1.961,1.961,0,0,1-1.693-.748,2.513,2.513,0,0,1-.434-1.512,2.421,2.421,0,0,1,.57-1.708,1.876,1.876,0,0,1,1.441-.618,1.948,1.948,0,0,1,1.545.646,2.865,2.865,0,0,1,.541,1.981h-2.908a1.171,1.171,0,0,0,.281.8.875.875,0,0,0,.669.287.71.71,0,0,0,.459-.148A.916.916,0,0,0,113.116,9.134Zm.066-1.174a1.115,1.115,0,0,0-.261-.766.8.8,0,0,0-.6-.263.8.8,0,0,0-.628.276,1.072,1.072,0,0,0-.244.752Z" transform="translate(0)" style="fill:#fff"/><path d="M119.279,10.53H118.2V9.885a1.75,1.75,0,0,1-.635.561,1.63,1.63,0,0,1-.737.184,1.671,1.671,0,0,1-1.295-.609,2.479,2.479,0,0,1-.539-1.7,2.445,2.445,0,0,1,.525-1.7,1.71,1.71,0,0,1,1.325-.581,1.641,1.641,0,0,1,1.272.612V4.474h1.161Zm-3.1-2.288a2.012,2.012,0,0,0,.194,1.016.877.877,0,0,0,.785.455.857.857,0,0,0,.682-.341,1.572,1.572,0,0,0,.28-1.019,1.724,1.724,0,0,0-.272-1.089.862.862,0,0,0-.7-.332.871.871,0,0,0-.691.328A1.486,1.486,0,0,0,116.18,8.242Z" transform="translate(0)" style="fill:#fff"/></g></g><g style="clip-path:url(#clip-path-5)"><g style="clip-path:url(#clip-path-2)"><path d="M86.165,17.742l-1.054-.19a1.644,1.644,0,0,1,.612-.942,2.241,2.241,0,0,1,1.288-.306,2.773,2.773,0,0,1,1.157.185,1.148,1.148,0,0,1,.534.467,2.386,2.386,0,0,1,.155,1.039l-.013,1.354a4.7,4.7,0,0,0,.056.853,2.538,2.538,0,0,0,.209.589H87.962q-.045-.116-.111-.343c-.02-.068-.033-.114-.041-.136a2.109,2.109,0,0,1-.637.434,1.833,1.833,0,0,1-.723.145,1.492,1.492,0,0,1-1.067-.368,1.22,1.22,0,0,1-.391-.929,1.239,1.239,0,0,1,.178-.663,1.161,1.161,0,0,1,.5-.446,3.889,3.889,0,0,1,.924-.271,6.434,6.434,0,0,0,1.128-.285v-.116a.6.6,0,0,0-.166-.477.988.988,0,0,0-.623-.143.83.83,0,0,0-.483.122A.84.84,0,0,0,86.165,17.742Zm1.554.941c-.149.05-.385.108-.707.178a2.108,2.108,0,0,0-.632.2.485.485,0,0,0-.228.409.566.566,0,0,0,.183.421.629.629,0,0,0,.462.178,1.006,1.006,0,0,0,.6-.206.731.731,0,0,0,.276-.385,2.278,2.278,0,0,0,.046-.565Z" transform="translate(0)" style="fill:#fff"/><path d="M92.006,16.4v.926h-.793V19.1a4.341,4.341,0,0,0,.022.626.253.253,0,0,0,.1.146.331.331,0,0,0,.2.058A1.506,1.506,0,0,0,92,19.815l.1.9a2.3,2.3,0,0,1-.917.174,1.451,1.451,0,0,1-.565-.105.822.822,0,0,1-.37-.272,1.082,1.082,0,0,1-.163-.452,5.557,5.557,0,0,1-.037-.818V17.329h-.533V16.4h.533v-.872l1.165-.677V16.4Z" transform="translate(0)" style="fill:#fff"/><path d="M94.815,16.4v.926h-.793V19.1a4.341,4.341,0,0,0,.022.626.253.253,0,0,0,.1.146.331.331,0,0,0,.2.058,1.506,1.506,0,0,0,.467-.111l.1.9a2.3,2.3,0,0,1-.917.174,1.451,1.451,0,0,1-.565-.105.822.822,0,0,1-.37-.272,1.082,1.082,0,0,1-.163-.452,5.557,5.557,0,0,1-.037-.818V17.329h-.533V16.4h.533v-.872l1.165-.677V16.4Z" transform="translate(0)" style="fill:#fff"/><path d="M96.723,20.789H95.562V16.4H96.64v.624a1.876,1.876,0,0,1,.5-.583.915.915,0,0,1,.5-.141,1.469,1.469,0,0,1,.764.22l-.359,1.012a1.016,1.016,0,0,0-.545-.19.642.642,0,0,0-.413.135.914.914,0,0,0-.267.485,6.928,6.928,0,0,0-.1,1.471Z" transform="translate(0)" style="fill:#fff"/><path d="M98.9,15.808V14.734h1.16v1.074Zm0,4.981V16.4h1.16v4.387Z" transform="translate(0)" style="fill:#fff"/><path d="M101.2,20.789V14.734h1.161v2.182a1.641,1.641,0,0,1,1.272-.612,1.71,1.71,0,0,1,1.325.581,2.4,2.4,0,0,1,.525,1.667,2.537,2.537,0,0,1-.535,1.73,1.672,1.672,0,0,1-1.3.607,1.6,1.6,0,0,1-.741-.188,1.779,1.779,0,0,1-.63-.556v.645Zm1.152-2.288a1.872,1.872,0,0,0,.215,1.008.919.919,0,0,0,.8.463.818.818,0,0,0,.654-.329,1.612,1.612,0,0,0,.271-1.034,1.717,1.717,0,0,0-.272-1.085.862.862,0,0,0-.7-.332.874.874,0,0,0-.693.324A1.489,1.489,0,0,0,102.348,18.5Z" transform="translate(0)" style="fill:#fff"/><path d="M109.3,20.789v-.656a1.7,1.7,0,0,1-.63.553,1.759,1.759,0,0,1-.824.2,1.62,1.62,0,0,1-.794-.194,1.152,1.152,0,0,1-.508-.545,2.436,2.436,0,0,1-.157-.971V16.4h1.161v2.016a5.547,5.547,0,0,0,.064,1.134.611.611,0,0,0,.233.331.717.717,0,0,0,.43.122.908.908,0,0,0,.532-.164.825.825,0,0,0,.322-.4,4.708,4.708,0,0,0,.087-1.184V16.4h1.161v4.387Z" transform="translate(0)" style="fill:#fff"/><path d="M113.594,16.4v.926H112.8V19.1a4.341,4.341,0,0,0,.022.626.253.253,0,0,0,.1.146.331.331,0,0,0,.2.058,1.506,1.506,0,0,0,.467-.111l.1.9a2.3,2.3,0,0,1-.917.174,1.451,1.451,0,0,1-.565-.105.822.822,0,0,1-.37-.272,1.082,1.082,0,0,1-.163-.452,5.557,5.557,0,0,1-.037-.818V17.329H111.1V16.4h.533v-.872l1.165-.677V16.4Z" transform="translate(0)" style="fill:#fff"/><path d="M116.93,19.394l1.157.193a1.9,1.9,0,0,1-.705.969,2.067,2.067,0,0,1-1.2.333,1.961,1.961,0,0,1-1.693-.748,2.513,2.513,0,0,1-.434-1.512,2.421,2.421,0,0,1,.57-1.708,1.876,1.876,0,0,1,1.441-.618,1.948,1.948,0,0,1,1.545.646,2.865,2.865,0,0,1,.541,1.981h-2.908a1.171,1.171,0,0,0,.281.8.875.875,0,0,0,.669.287.71.71,0,0,0,.459-.148A.916.916,0,0,0,116.93,19.394ZM117,18.22a1.115,1.115,0,0,0-.261-.766.8.8,0,0,0-.6-.263.8.8,0,0,0-.628.276,1.072,1.072,0,0,0-.244.752Z" transform="translate(0)" style="fill:#fff"/><path d="M118.678,19.538l1.165-.178a.855.855,0,0,0,.3.514,1.017,1.017,0,0,0,.636.176,1.149,1.149,0,0,0,.678-.165.37.37,0,0,0,.152-.31.308.308,0,0,0-.082-.22.932.932,0,0,0-.389-.152,6.269,6.269,0,0,1-1.78-.566,1.13,1.13,0,0,1-.521-.987,1.217,1.217,0,0,1,.45-.958,2.1,2.1,0,0,1,1.4-.389,2.435,2.435,0,0,1,1.338.294,1.5,1.5,0,0,1,.6.867l-1.095.2a.677.677,0,0,0-.267-.392.967.967,0,0,0-.56-.137,1.269,1.269,0,0,0-.657.128.275.275,0,0,0-.132.235.256.256,0,0,0,.115.211,4.388,4.388,0,0,0,1.085.326,3.226,3.226,0,0,1,1.295.517,1.073,1.073,0,0,1,.363.863,1.325,1.325,0,0,1-.5,1.037,2.231,2.231,0,0,1-1.491.434,2.449,2.449,0,0,1-1.419-.363A1.679,1.679,0,0,1,118.678,19.538Z" transform="translate(0)" style="fill:#fff"/></g></g><path d="M102.57,63.87c0,7.02-14.22,12.72-31.8,12.72-17.52,0-31.74-5.7-31.74-12.72S53.25,51.15,70.77,51.15c17.58,0,31.8,5.7,31.8,12.72" transform="translate(0)" style="fill:#928788;fill-rule:evenodd"/><path d="M102.51,63.87c0,7.02-14.16,12.66-31.74,12.66-17.52,0-31.74-5.64-31.74-12.66S53.25,51.15,70.77,51.15C88.35,51.15,102.51,56.85,102.51,63.87Z" transform="translate(0)" style="fill:none;stroke:#928788;stroke-linecap:round;stroke-miterlimit:10;stroke-width:0.660000026226044px"/><path d="M100.77,62.07c0,7.02-14.22,12.72-31.8,12.72-17.52,0-31.74-5.7-31.74-12.72S51.45,49.35,68.97,49.35c17.58,0,31.8,5.7,31.8,12.72" transform="translate(0)" style="fill-rule:evenodd;fill:url(#linear-gradient-3)"/><path d="M100.71,62.07c0,7.02-14.16,12.66-31.74,12.66-17.52,0-31.74-5.64-31.74-12.66S51.45,49.35,68.97,49.35C86.55,49.35,100.71,55.05,100.71,62.07Z" transform="translate(0)" style="fill:none;stroke:#5053a4;stroke-linecap:round;stroke-miterlimit:10;stroke-width:0.660000026226044px"/><g style="clip-path:url(#clip-path-7)"><g style="clip-path:url(#clip-path-2)"><path d="M53.868,64.951V58.895h2.574a4.386,4.386,0,0,1,1.41.163,1.389,1.389,0,0,1,.705.58,1.749,1.749,0,0,1,.264.954,1.62,1.62,0,0,1-.4,1.126,1.928,1.928,0,0,1-1.2.56,2.866,2.866,0,0,1,.655.508,6.881,6.881,0,0,1,.7.983l.74,1.182H57.85l-.884-1.318a8.328,8.328,0,0,0-.645-.89.927.927,0,0,0-.367-.252,2.005,2.005,0,0,0-.616-.068h-.247v2.528Zm1.224-3.5H56a4.654,4.654,0,0,0,1.1-.074.655.655,0,0,0,.343-.256.786.786,0,0,0,.124-.455.727.727,0,0,0-.163-.493.751.751,0,0,0-.461-.237c-.1-.014-.4-.021-.892-.021h-.954Z" transform="translate(0)" style="fill:#fff"/><path d="M62.5,63.554l1.157.194a1.9,1.9,0,0,1-.705.969,2.067,2.067,0,0,1-1.2.332,1.963,1.963,0,0,1-1.693-.747,2.514,2.514,0,0,1-.434-1.513,2.424,2.424,0,0,1,.57-1.708,1.878,1.878,0,0,1,1.441-.617,1.948,1.948,0,0,1,1.545.646,2.86,2.86,0,0,1,.541,1.98H60.808a1.174,1.174,0,0,0,.281.8.878.878,0,0,0,.669.287.715.715,0,0,0,.459-.148A.92.92,0,0,0,62.5,63.554Zm.066-1.173a1.117,1.117,0,0,0-.261-.767.836.836,0,0,0-1.23.015,1.071,1.071,0,0,0-.244.752Z" transform="translate(0)" style="fill:#fff"/><path d="M65.521,61.9l-1.054-.19a1.642,1.642,0,0,1,.612-.941,2.234,2.234,0,0,1,1.288-.306,2.791,2.791,0,0,1,1.157.184,1.154,1.154,0,0,1,.534.467,2.389,2.389,0,0,1,.155,1.039L68.2,63.508a4.721,4.721,0,0,0,.056.854,2.554,2.554,0,0,0,.209.589H67.318q-.045-.116-.111-.343c-.02-.069-.033-.114-.041-.137a2.091,2.091,0,0,1-.637.434,1.816,1.816,0,0,1-.723.145,1.492,1.492,0,0,1-1.067-.367,1.22,1.22,0,0,1-.391-.93,1.241,1.241,0,0,1,.178-.663,1.161,1.161,0,0,1,.5-.446,3.936,3.936,0,0,1,.924-.271,6.259,6.259,0,0,0,1.128-.285v-.115a.6.6,0,0,0-.166-.478.988.988,0,0,0-.623-.143.83.83,0,0,0-.483.122A.84.84,0,0,0,65.521,61.9Zm1.554.941a7.112,7.112,0,0,1-.707.178,2.13,2.13,0,0,0-.632.2.484.484,0,0,0-.228.408.567.567,0,0,0,.183.422.633.633,0,0,0,.462.178,1.007,1.007,0,0,0,.6-.207.729.729,0,0,0,.276-.384,2.293,2.293,0,0,0,.046-.566Z" transform="translate(0)" style="fill:#fff"/><path d="M68.941,63.7l1.165-.178a.857.857,0,0,0,.3.515,1.017,1.017,0,0,0,.636.176,1.148,1.148,0,0,0,.678-.166.368.368,0,0,0,.152-.31.306.306,0,0,0-.082-.219.93.93,0,0,0-.389-.153,6.246,6.246,0,0,1-1.78-.565,1.132,1.132,0,0,1-.521-.987,1.217,1.217,0,0,1,.45-.958,2.1,2.1,0,0,1,1.4-.389,2.436,2.436,0,0,1,1.338.293,1.5,1.5,0,0,1,.6.868l-1.095.2a.677.677,0,0,0-.267-.393.974.974,0,0,0-.56-.137,1.257,1.257,0,0,0-.657.129.275.275,0,0,0-.132.235.255.255,0,0,0,.115.21,4.37,4.37,0,0,0,1.085.327,3.227,3.227,0,0,1,1.295.516,1.075,1.075,0,0,1,.363.863,1.325,1.325,0,0,1-.5,1.037,2.231,2.231,0,0,1-1.491.434,2.449,2.449,0,0,1-1.419-.363A1.673,1.673,0,0,1,68.941,63.7Z" transform="translate(0)" style="fill:#fff"/><path d="M73.778,62.695a2.365,2.365,0,0,1,.285-1.119,1.945,1.945,0,0,1,.808-.826,2.39,2.39,0,0,1,1.167-.285,2.194,2.194,0,0,1,1.632.646,2.234,2.234,0,0,1,.636,1.634,2.258,2.258,0,0,1-.643,1.65,2.169,2.169,0,0,1-1.617.654,2.549,2.549,0,0,1-1.15-.272,1.866,1.866,0,0,1-.832-.8A2.662,2.662,0,0,1,73.778,62.695Zm1.189.063a1.455,1.455,0,0,0,.31,1,1.012,1.012,0,0,0,1.526,0,1.474,1.474,0,0,0,.308-1.008,1.446,1.446,0,0,0-.308-.991,1.013,1.013,0,0,0-1.526,0A1.456,1.456,0,0,0,74.968,62.757Z" transform="translate(0)" style="fill:#fff"/><path d="M83.2,64.951H82.035V62.711a3.449,3.449,0,0,0-.074-.919.648.648,0,0,0-.241-.324.691.691,0,0,0-.4-.116.93.93,0,0,0-.541.166.833.833,0,0,0-.328.438,3.767,3.767,0,0,0-.089,1.008v1.987H79.2V60.563h1.078v.645a1.759,1.759,0,0,1,1.446-.743,1.733,1.733,0,0,1,.7.139,1.183,1.183,0,0,1,.481.353,1.276,1.276,0,0,1,.227.487,3.612,3.612,0,0,1,.064.781Z" transform="translate(0)" style="fill:#fff"/></g></g></svg>