<svg id="Layer_1" data-name="Layer 1" xmlns="http://www.w3.org/2000/svg" xmlns:xlink="http://www.w3.org/1999/xlink" viewBox="0 0 65.94 27.84"><defs><linearGradient id="linear-gradient" x1="32.1" y1="0.33" x2="32.1" y2="25.77" gradientUnits="userSpaceOnUse"><stop offset="0" stop-color="#f48180"/><stop offset="1" stop-color="#ed2224"/></linearGradient><clipPath id="clip-path"><polyline points="17.55 8.01 17.55 17.49 45.75 17.49 45.75 12.75 48.15 12.75 48.15 8.01" style="fill:none;clip-rule:evenodd"/></clipPath><clipPath id="clip-path-2"><rect x="-327.24" y="-214.77" width="792" height="612" style="fill:none"/></clipPath></defs><title>secure</title><path d="M65.67,14.85c0,7.02-14.22,12.72-31.8,12.72-17.52,0-31.74-5.7-31.74-12.72S16.35,2.13,33.87,2.13c17.58,0,31.8,5.7,31.8,12.72" style="fill:#928788;fill-rule:evenodd"/><path d="M65.61,14.85c0,7.02-14.16,12.66-31.74,12.66-17.52,0-31.74-5.64-31.74-12.66S16.35,2.13,33.87,2.13C51.45,2.13,65.61,7.83,65.61,14.85Z" style="fill:none;stroke:#928788;stroke-linecap:round;stroke-miterlimit:10;stroke-width:0.6600000262260437px"/><path d="M63.87,13.05c0,7.02-14.22,12.72-31.8,12.72C14.55,25.77.33,20.07.33,13.05S14.55.33,32.07.33c17.58,0,31.8,5.7,31.8,12.72" style="fill-rule:evenodd;fill:url(#linear-gradient)"/><path d="M63.81,13.05c0,7.02-14.16,12.66-31.74,12.66C14.55,25.71.33,20.07.33,13.05S14.55.33,32.07.33C49.65.33,63.81,6.03,63.81,13.05Z" style="fill:none;stroke:#5053a4;stroke-linecap:round;stroke-miterlimit:10;stroke-width:0.6600000262260437px"/><g style="clip-path:url(#clip-path)"><g style="clip-path:url(#clip-path-2)"><path d="M17.856,13.9l1.19-.115a1.451,1.451,0,0,0,.436.88,1.316,1.316,0,0,0,.886.28,1.366,1.366,0,0,0,.89-.249.745.745,0,0,0,.3-.585.55.55,0,0,0-.126-.365,1,1,0,0,0-.44-.263q-.215-.075-.979-.265a3.309,3.309,0,0,1-1.379-.6,1.575,1.575,0,0,1-.558-1.219,1.553,1.553,0,0,1,.263-.865,1.642,1.642,0,0,1,.756-.613,3.026,3.026,0,0,1,1.192-.211,2.558,2.558,0,0,1,1.716.5,1.765,1.765,0,0,1,.6,1.334l-1.223.054a1.036,1.036,0,0,0-.337-.671,1.229,1.229,0,0,0-.774-.205,1.394,1.394,0,0,0-.834.22.441.441,0,0,0-.194.376.465.465,0,0,0,.182.367,3.208,3.208,0,0,0,1.124.405,5.879,5.879,0,0,1,1.32.436,1.7,1.7,0,0,1,.669.615,1.8,1.8,0,0,1,.242.965,1.782,1.782,0,0,1-.289.975,1.736,1.736,0,0,1-.818.676,3.427,3.427,0,0,1-1.318.221,2.619,2.619,0,0,1-1.764-.531A2.307,2.307,0,0,1,17.856,13.9Z" style="fill:#fff"/><path d="M26.34,14.473l1.156.194a1.9,1.9,0,0,1-.7.969,2.069,2.069,0,0,1-1.2.333,1.964,1.964,0,0,1-1.694-.748,2.513,2.513,0,0,1-.434-1.512A2.421,2.421,0,0,1,24.031,12a1.878,1.878,0,0,1,1.442-.618,1.948,1.948,0,0,1,1.545.646,2.861,2.861,0,0,1,.541,1.98H24.65a1.174,1.174,0,0,0,.281.8.878.878,0,0,0,.669.287.714.714,0,0,0,.458-.148A.92.92,0,0,0,26.34,14.473Zm.066-1.173a1.12,1.12,0,0,0-.26-.767.839.839,0,0,0-1.231.015,1.07,1.07,0,0,0-.244.752Z" style="fill:#fff"/><path d="M32.322,12.78l-1.145.206a.828.828,0,0,0-.262-.516.79.79,0,0,0-.531-.174.866.866,0,0,0-.692.3,1.532,1.532,0,0,0-.258,1,1.776,1.776,0,0,0,.262,1.1.861.861,0,0,0,.7.322.78.78,0,0,0,.541-.188,1.127,1.127,0,0,0,.3-.646l1.14.194a2.022,2.022,0,0,1-.682,1.186,2.107,2.107,0,0,1-1.351.4,2.01,2.01,0,0,1-1.535-.607,2.357,2.357,0,0,1-.572-1.682,2.358,2.358,0,0,1,.574-1.691,2.04,2.04,0,0,1,1.553-.605,2.123,2.123,0,0,1,1.274.345A1.917,1.917,0,0,1,32.322,12.78Z" style="fill:#fff"/><path d="M36.081,15.87v-.657a1.686,1.686,0,0,1-.63.554,1.77,1.77,0,0,1-.824.2,1.617,1.617,0,0,1-.793-.194,1.149,1.149,0,0,1-.508-.546,2.434,2.434,0,0,1-.157-.971V11.483h1.161V13.5a5.6,5.6,0,0,0,.064,1.134.623.623,0,0,0,.233.331.719.719,0,0,0,.43.121.908.908,0,0,0,.533-.163.825.825,0,0,0,.322-.4A4.683,4.683,0,0,0,36,13.334V11.483h1.161V15.87Z" style="fill:#fff"/><path d="M39.472,15.87H38.311V11.483h1.078v.623a1.882,1.882,0,0,1,.5-.582.913.913,0,0,1,.5-.141,1.478,1.478,0,0,1,.765.219l-.359,1.013a1.018,1.018,0,0,0-.545-.19.642.642,0,0,0-.413.135.916.916,0,0,0-.267.485,6.9,6.9,0,0,0-.1,1.471Z" style="fill:#fff"/><path d="M44.185,14.473l1.156.194a1.9,1.9,0,0,1-.7.969,2.069,2.069,0,0,1-1.2.333,1.964,1.964,0,0,1-1.694-.748,2.513,2.513,0,0,1-.434-1.512A2.421,2.421,0,0,1,41.876,12a1.878,1.878,0,0,1,1.442-.618,1.948,1.948,0,0,1,1.545.646,2.861,2.861,0,0,1,.541,1.98H42.5a1.174,1.174,0,0,0,.281.8.878.878,0,0,0,.669.287.714.714,0,0,0,.458-.148A.92.92,0,0,0,44.185,14.473Zm.066-1.173a1.12,1.12,0,0,0-.26-.767.839.839,0,0,0-1.231.015,1.07,1.07,0,0,0-.244.752Z" style="fill:#fff"/></g></g></svg>