<svg id="Layer_1" data-name="Layer 1" xmlns="http://www.w3.org/2000/svg" xmlns:xlink="http://www.w3.org/1999/xlink" viewBox="0 0 207.51 75.6"><defs><linearGradient id="linear-gradient" x1="102.9" y1="0.03" x2="102.9" y2="26.07" gradientUnits="userSpaceOnUse"><stop offset="0" stop-color="#457cbf"/><stop offset="1" stop-color="#3a53a4"/></linearGradient><clipPath id="clip-path"><polyline points="82.29 8.07 82.29 17.55 122.73 17.55 122.73 12.81 125.13 12.81 125.13 8.07" style="fill:none;clip-rule:evenodd"/></clipPath><clipPath id="clip-path-2"><rect x="-71.34" y="-310.35" width="792" height="612" style="fill:none"/></clipPath><linearGradient id="linear-gradient-2" x1="173.64" y1="0.03" x2="173.64" y2="26.07" xlink:href="#linear-gradient"/><clipPath id="clip-path-3"><polyline points="153.09 8.07 153.09 17.55 193.05 17.55 193.05 12.81 195.45 12.81 195.45 8.07" style="fill:none;clip-rule:evenodd"/></clipPath><linearGradient id="linear-gradient-3" x1="103.5" y1="48.09" x2="103.5" y2="73.53" gradientUnits="userSpaceOnUse"><stop offset="0" stop-color="#f48180"/><stop offset="1" stop-color="#ed2224"/></linearGradient><clipPath id="clip-path-5"><polyline points="84.69 55.83 84.69 65.31 121.83 65.31 121.83 60.57 124.23 60.57 124.23 55.83" style="fill:none;clip-rule:evenodd"/></clipPath><linearGradient id="linear-gradient-4" x1="32.1" y1="0.03" x2="32.1" y2="26.07" xlink:href="#linear-gradient"/><clipPath id="clip-path-7"><polyline points="13.95 8.07 13.95 17.55 49.23 17.55 49.23 12.81 51.63 12.81 51.63 8.07" style="fill:none;clip-rule:evenodd"/></clipPath></defs><title>sub.id.attr.corr</title><rect x="72.63" y="1.83" width="64.14" height="26.04" style="fill:#928788"/><path d="M72.93,2.13m0,25.38V2.13h63.48V27.51Z" style="fill:none;stroke:#928788;stroke-linecap:round;stroke-miterlimit:10;stroke-width:0.6600000262260437px"/><rect x="70.83" y="0.03" width="64.14" height="26.04" style="fill:url(#linear-gradient)"/><path d="M71.13.33m0,25.38V.33h63.48V25.71Z" style="fill:none;stroke:#5053a4;stroke-linecap:round;stroke-miterlimit:10;stroke-width:0.6600000262260437px"/><g style="clip-path:url(#clip-path)"><g style="clip-path:url(#clip-path-2)"><path d="M82.869,15.93V9.875h1.223V15.93Z" style="fill:#fff"/><path d="M89.273,15.93H88.194v-.645a1.738,1.738,0,0,1-.635.56,1.619,1.619,0,0,1-.737.185,1.671,1.671,0,0,1-1.295-.609,2.48,2.48,0,0,1-.539-1.7,2.445,2.445,0,0,1,.525-1.7,1.707,1.707,0,0,1,1.325-.581,1.643,1.643,0,0,1,1.272.611V9.875h1.161Zm-3.1-2.288a2.012,2.012,0,0,0,.194,1.016.878.878,0,0,0,.785.454.855.855,0,0,0,.682-.341,1.569,1.569,0,0,0,.28-1.018,1.724,1.724,0,0,0-.272-1.089.862.862,0,0,0-.7-.332.871.871,0,0,0-.691.328A1.486,1.486,0,0,0,86.174,13.642Z" style="fill:#fff"/><path d="M92.957,14.534l1.157.194a1.9,1.9,0,0,1-.705.969,2.067,2.067,0,0,1-1.2.333,1.964,1.964,0,0,1-1.693-.748,2.513,2.513,0,0,1-.434-1.512,2.421,2.421,0,0,1,.57-1.708,1.876,1.876,0,0,1,1.441-.618,1.948,1.948,0,0,1,1.545.646,2.863,2.863,0,0,1,.541,1.98H91.268a1.174,1.174,0,0,0,.281.8.878.878,0,0,0,.669.287.715.715,0,0,0,.459-.148A.92.92,0,0,0,92.957,14.534Zm.066-1.173a1.117,1.117,0,0,0-.261-.767.838.838,0,0,0-1.23.015,1.072,1.072,0,0,0-.244.752Z" style="fill:#fff"/><path d="M99.1,15.93H97.943V13.691a3.454,3.454,0,0,0-.074-.919.648.648,0,0,0-.241-.324.691.691,0,0,0-.4-.115.929.929,0,0,0-.541.165.837.837,0,0,0-.328.438,3.767,3.767,0,0,0-.089,1.008V15.93H95.1V11.544h1.078v.645a1.757,1.757,0,0,1,1.446-.744,1.733,1.733,0,0,1,.7.139,1.176,1.176,0,0,1,.481.354,1.27,1.27,0,0,1,.227.487,3.6,3.6,0,0,1,.064.78Z" style="fill:#fff"/><path d="M102.293,11.544v.925H101.5v1.769a4.351,4.351,0,0,0,.022.626.256.256,0,0,0,.1.146.331.331,0,0,0,.2.058,1.506,1.506,0,0,0,.467-.111l.1.9a2.312,2.312,0,0,1-.917.174,1.451,1.451,0,0,1-.565-.105.816.816,0,0,1-.37-.273,1.077,1.077,0,0,1-.163-.452,5.532,5.532,0,0,1-.037-.817V12.468H99.8v-.925h.533v-.872l1.165-.678v1.55Z" style="fill:#fff"/><path d="M103.09,10.949V9.875h1.16v1.074Zm0,4.981V11.544h1.16V15.93Z" style="fill:#fff"/><path d="M104.933,11.544h.644v-.331a2.2,2.2,0,0,1,.118-.826.926.926,0,0,1,.434-.443,1.667,1.667,0,0,1,.8-.172,3.252,3.252,0,0,1,.971.148l-.157.81a2.3,2.3,0,0,0-.533-.065.477.477,0,0,0-.361.117.682.682,0,0,0-.109.452v.311h.867v.913h-.867V15.93h-1.161V12.457h-.644Z" style="fill:#fff"/><path d="M108.249,10.949V9.875h1.16v1.074Zm0,4.981V11.544h1.16V15.93Z" style="fill:#fff"/><path d="M113.14,14.534l1.157.194a1.9,1.9,0,0,1-.705.969,2.067,2.067,0,0,1-1.2.333,1.964,1.964,0,0,1-1.693-.748,2.513,2.513,0,0,1-.434-1.512,2.421,2.421,0,0,1,.57-1.708,1.876,1.876,0,0,1,1.441-.618,1.948,1.948,0,0,1,1.545.646,2.863,2.863,0,0,1,.541,1.98H111.45a1.174,1.174,0,0,0,.281.8.878.878,0,0,0,.669.287.715.715,0,0,0,.459-.148A.92.92,0,0,0,113.14,14.534Zm.066-1.173a1.117,1.117,0,0,0-.261-.767.838.838,0,0,0-1.23.015,1.072,1.072,0,0,0-.244.752Z" style="fill:#fff"/><path d="M116.407,15.93h-1.161V11.544h1.078v.623a1.882,1.882,0,0,1,.5-.582.915.915,0,0,1,.5-.141,1.477,1.477,0,0,1,.764.219l-.359,1.013a1.016,1.016,0,0,0-.545-.19.642.642,0,0,0-.413.135.91.91,0,0,0-.267.485,6.915,6.915,0,0,0-.1,1.471Z" style="fill:#fff"/><path d="M118.171,14.678l1.165-.178a.855.855,0,0,0,.3.515,1.017,1.017,0,0,0,.636.176,1.156,1.156,0,0,0,.678-.165.37.37,0,0,0,.152-.311.306.306,0,0,0-.082-.219.932.932,0,0,0-.389-.152,6.269,6.269,0,0,1-1.78-.566,1.13,1.13,0,0,1-.521-.987,1.217,1.217,0,0,1,.45-.958,2.1,2.1,0,0,1,1.4-.389,2.426,2.426,0,0,1,1.338.294,1.5,1.5,0,0,1,.6.867l-1.095.2a.677.677,0,0,0-.267-.393.975.975,0,0,0-.56-.136,1.259,1.259,0,0,0-.657.128.275.275,0,0,0-.132.235.257.257,0,0,0,.115.211,4.388,4.388,0,0,0,1.085.326,3.226,3.226,0,0,1,1.295.517,1.073,1.073,0,0,1,.363.863,1.325,1.325,0,0,1-.5,1.036,2.231,2.231,0,0,1-1.491.435,2.449,2.449,0,0,1-1.419-.364A1.673,1.673,0,0,1,118.171,14.678Z" style="fill:#fff"/></g></g><rect x="143.37" y="1.83" width="64.14" height="26.04" style="fill:#928788"/><path d="M143.67,2.13m0,25.38V2.13h63.48V27.51Z" style="fill:none;stroke:#928788;stroke-linecap:round;stroke-miterlimit:10;stroke-width:0.6600000262260437px"/><rect x="141.57" y="0.03" width="64.14" height="26.04" style="fill:url(#linear-gradient-2)"/><path d="M141.87.33m0,25.38V.33h63.48V25.71Z" style="fill:none;stroke:#5053a4;stroke-linecap:round;stroke-miterlimit:10;stroke-width:0.6600000262260437px"/><g style="clip-path:url(#clip-path-3)"><g style="clip-path:url(#clip-path-2)"><path d="M159.166,15.93h-1.33l-.528-1.376h-2.421l-.5,1.376h-1.3l2.358-6.056h1.293Zm-2.251-2.4-.834-2.248-.818,2.248Z" style="fill:#fff"/><path d="M161.59,11.544v.925H160.8v1.769a4.351,4.351,0,0,0,.022.626.256.256,0,0,0,.1.146.331.331,0,0,0,.2.058,1.506,1.506,0,0,0,.467-.111l.1.9a2.312,2.312,0,0,1-.917.174,1.451,1.451,0,0,1-.565-.105.816.816,0,0,1-.37-.273,1.077,1.077,0,0,1-.163-.452,5.532,5.532,0,0,1-.037-.817V12.468H159.1v-.925h.533v-.872l1.165-.678v1.55Z" style="fill:#fff"/><path d="M164.407,11.544v.925h-.793v1.769a4.351,4.351,0,0,0,.022.626.256.256,0,0,0,.1.146.331.331,0,0,0,.2.058,1.506,1.506,0,0,0,.467-.111l.1.9a2.312,2.312,0,0,1-.917.174,1.451,1.451,0,0,1-.565-.105.816.816,0,0,1-.37-.273,1.077,1.077,0,0,1-.163-.452,5.532,5.532,0,0,1-.037-.817V12.468h-.533v-.925h.533v-.872l1.165-.678v1.55Z" style="fill:#fff"/><path d="M166.324,15.93h-1.161V11.544h1.078v.623a1.882,1.882,0,0,1,.5-.582.915.915,0,0,1,.5-.141,1.477,1.477,0,0,1,.764.219l-.359,1.013a1.016,1.016,0,0,0-.545-.19.642.642,0,0,0-.413.135.91.91,0,0,0-.267.485,6.915,6.915,0,0,0-.1,1.471Z" style="fill:#fff"/><path d="M168.505,10.949V9.875h1.16v1.074Zm0,4.981V11.544h1.16V15.93Z" style="fill:#fff"/><path d="M170.806,15.93V9.875h1.161v2.181a1.643,1.643,0,0,1,1.272-.611,1.707,1.707,0,0,1,1.325.581,2.4,2.4,0,0,1,.525,1.666,2.54,2.54,0,0,1-.535,1.731,1.672,1.672,0,0,1-1.3.607,1.613,1.613,0,0,1-.741-.188,1.779,1.779,0,0,1-.63-.556v.645Zm1.152-2.288a1.872,1.872,0,0,0,.215,1.008.918.918,0,0,0,.8.462.82.82,0,0,0,.654-.328,1.612,1.612,0,0,0,.271-1.034,1.715,1.715,0,0,0-.272-1.085.862.862,0,0,0-.7-.332.871.871,0,0,0-.693.324A1.487,1.487,0,0,0,171.958,13.642Z" style="fill:#fff"/><path d="M178.911,15.93v-.657a1.694,1.694,0,0,1-.63.554,1.771,1.771,0,0,1-.824.2,1.62,1.62,0,0,1-.794-.194,1.15,1.15,0,0,1-.508-.546,2.433,2.433,0,0,1-.157-.971V11.544h1.161v2.016a5.547,5.547,0,0,0,.064,1.134.615.615,0,0,0,.233.331.717.717,0,0,0,.43.121.908.908,0,0,0,.532-.163.825.825,0,0,0,.322-.4,4.708,4.708,0,0,0,.087-1.184V11.544h1.161V15.93Z" style="fill:#fff"/><path d="M183.2,11.544v.925h-.793v1.769a4.351,4.351,0,0,0,.022.626.256.256,0,0,0,.1.146.331.331,0,0,0,.2.058,1.506,1.506,0,0,0,.467-.111l.1.9a2.312,2.312,0,0,1-.917.174,1.451,1.451,0,0,1-.565-.105.816.816,0,0,1-.37-.273,1.077,1.077,0,0,1-.163-.452,5.532,5.532,0,0,1-.037-.817V12.468h-.533v-.925h.533v-.872l1.165-.678v1.55Z" style="fill:#fff"/><path d="M186.548,14.534l1.157.194A1.9,1.9,0,0,1,187,15.7a2.067,2.067,0,0,1-1.2.333,1.964,1.964,0,0,1-1.693-.748,2.513,2.513,0,0,1-.434-1.512,2.421,2.421,0,0,1,.57-1.708,1.876,1.876,0,0,1,1.441-.618,1.948,1.948,0,0,1,1.545.646,2.863,2.863,0,0,1,.541,1.98h-2.908a1.174,1.174,0,0,0,.281.8.878.878,0,0,0,.669.287.715.715,0,0,0,.459-.148A.92.92,0,0,0,186.548,14.534Zm.066-1.173a1.117,1.117,0,0,0-.261-.767.838.838,0,0,0-1.23.015,1.072,1.072,0,0,0-.244.752Z" style="fill:#fff"/><path d="M188.3,14.678l1.165-.178a.855.855,0,0,0,.3.515,1.017,1.017,0,0,0,.636.176,1.156,1.156,0,0,0,.678-.165.37.37,0,0,0,.152-.311.306.306,0,0,0-.082-.219.932.932,0,0,0-.389-.152,6.269,6.269,0,0,1-1.78-.566,1.13,1.13,0,0,1-.521-.987,1.217,1.217,0,0,1,.45-.958,2.1,2.1,0,0,1,1.4-.389,2.426,2.426,0,0,1,1.338.294,1.5,1.5,0,0,1,.6.867l-1.095.2a.677.677,0,0,0-.267-.393.975.975,0,0,0-.56-.136,1.259,1.259,0,0,0-.657.128.275.275,0,0,0-.132.235.257.257,0,0,0,.115.211,4.388,4.388,0,0,0,1.085.326,3.226,3.226,0,0,1,1.295.517,1.073,1.073,0,0,1,.363.863,1.325,1.325,0,0,1-.5,1.036,2.231,2.231,0,0,1-1.491.435,2.449,2.449,0,0,1-1.419-.364A1.673,1.673,0,0,1,188.3,14.678Z" style="fill:#fff"/></g></g><path d="M137.07,62.61c0,7.02-14.22,12.72-31.8,12.72-17.52,0-31.74-5.7-31.74-12.72s14.22-12.72,31.74-12.72c17.58,0,31.8,5.7,31.8,12.72" style="fill:#928788;fill-rule:evenodd"/><path d="M137.01,62.61c0,7.02-14.16,12.66-31.74,12.66-17.52,0-31.74-5.64-31.74-12.66s14.22-12.72,31.74-12.72C122.85,49.89,137.01,55.59,137.01,62.61Z" style="fill:none;stroke:#928788;stroke-linecap:round;stroke-miterlimit:10;stroke-width:0.6600000262260437px"/><path d="M135.27,60.81c0,7.02-14.22,12.72-31.8,12.72-17.52,0-31.74-5.7-31.74-12.72s14.22-12.72,31.74-12.72c17.58,0,31.8,5.7,31.8,12.72" style="fill-rule:evenodd;fill:url(#linear-gradient-3)"/><path d="M135.21,60.81c0,7.02-14.16,12.66-31.74,12.66-17.52,0-31.74-5.64-31.74-12.66s14.22-12.72,31.74-12.72C121.05,48.09,135.21,53.79,135.21,60.81Z" style="fill:none;stroke:#5053a4;stroke-linecap:round;stroke-miterlimit:10;stroke-width:0.6600000262260437px"/><g style="clip-path:url(#clip-path-5)"><g style="clip-path:url(#clip-path-2)"><path d="M89.18,61.463l1.186.376a2.664,2.664,0,0,1-.906,1.473,2.853,2.853,0,0,1-3.592-.343,3.152,3.152,0,0,1-.777-2.254,3.309,3.309,0,0,1,.781-2.348,2.676,2.676,0,0,1,2.053-.837,2.517,2.517,0,0,1,1.806.657,2.384,2.384,0,0,1,.619,1.115l-1.21.289a1.251,1.251,0,0,0-1.276-1.017,1.377,1.377,0,0,0-1.093.483,2.371,2.371,0,0,0-.42,1.565,2.538,2.538,0,0,0,.413,1.636,1.342,1.342,0,0,0,1.074.488,1.224,1.224,0,0,0,.839-.311A1.793,1.793,0,0,0,89.18,61.463Z" style="fill:#fff"/><path d="M91.138,61.434a2.371,2.371,0,0,1,.285-1.119,1.956,1.956,0,0,1,.808-.826A2.4,2.4,0,0,1,93.4,59.2a2.194,2.194,0,0,1,1.632.646,2.235,2.235,0,0,1,.636,1.634,2.258,2.258,0,0,1-.643,1.65,2.17,2.17,0,0,1-1.617.655,2.55,2.55,0,0,1-1.15-.273,1.866,1.866,0,0,1-.832-.8A2.662,2.662,0,0,1,91.138,61.434Zm1.189.063a1.458,1.458,0,0,0,.31,1,1.013,1.013,0,0,0,1.526,0,1.475,1.475,0,0,0,.308-1.009,1.446,1.446,0,0,0-.308-.991,1.013,1.013,0,0,0-1.526,0A1.456,1.456,0,0,0,92.327,61.5Z" style="fill:#fff"/><path d="M97.686,63.69H96.525V59.3H97.6v.623a1.882,1.882,0,0,1,.5-.582.915.915,0,0,1,.5-.141,1.477,1.477,0,0,1,.764.219l-.359,1.013a1.016,1.016,0,0,0-.545-.19.642.642,0,0,0-.413.135.91.91,0,0,0-.267.485,6.915,6.915,0,0,0-.1,1.471Z" style="fill:#fff"/><path d="M100.978,63.69H99.817V59.3h1.078v.623a1.882,1.882,0,0,1,.5-.582.915.915,0,0,1,.5-.141,1.477,1.477,0,0,1,.764.219l-.359,1.013a1.016,1.016,0,0,0-.545-.19.642.642,0,0,0-.413.135.91.91,0,0,0-.267.485,6.915,6.915,0,0,0-.1,1.471Z" style="fill:#fff"/><path d="M105.7,62.294l1.157.194a1.9,1.9,0,0,1-.705.969,2.067,2.067,0,0,1-1.2.333,1.964,1.964,0,0,1-1.693-.748,2.513,2.513,0,0,1-.434-1.512,2.421,2.421,0,0,1,.57-1.708,1.876,1.876,0,0,1,1.441-.618,1.948,1.948,0,0,1,1.545.646,2.863,2.863,0,0,1,.541,1.98H104.01a1.174,1.174,0,0,0,.281.8.878.878,0,0,0,.669.287.715.715,0,0,0,.459-.148A.92.92,0,0,0,105.7,62.294Zm.066-1.173a1.117,1.117,0,0,0-.261-.767.838.838,0,0,0-1.23.015,1.072,1.072,0,0,0-.244.752Z" style="fill:#fff"/><path d="M107.864,63.69V57.634h1.16V63.69Z" style="fill:#fff"/><path d="M111.081,60.641l-1.054-.189a1.641,1.641,0,0,1,.612-.942,2.241,2.241,0,0,1,1.288-.306,2.791,2.791,0,0,1,1.157.184,1.154,1.154,0,0,1,.534.467,2.392,2.392,0,0,1,.155,1.039l-.013,1.355a4.7,4.7,0,0,0,.056.853,2.538,2.538,0,0,0,.209.589h-1.148q-.045-.116-.111-.343c-.02-.069-.033-.114-.041-.137a2.074,2.074,0,0,1-.637.434,1.816,1.816,0,0,1-.723.146,1.492,1.492,0,0,1-1.067-.368,1.22,1.22,0,0,1-.391-.93,1.244,1.244,0,0,1,.178-.663,1.159,1.159,0,0,1,.5-.445,3.883,3.883,0,0,1,.924-.271,6.367,6.367,0,0,0,1.128-.284v-.116a.6.6,0,0,0-.166-.477.982.982,0,0,0-.623-.143.831.831,0,0,0-.483.121A.849.849,0,0,0,111.081,60.641Zm1.554.942q-.224.073-.707.178a2.108,2.108,0,0,0-.632.2.484.484,0,0,0-.228.409.566.566,0,0,0,.183.421.633.633,0,0,0,.462.178,1,1,0,0,0,.6-.207.729.729,0,0,0,.276-.384,2.283,2.283,0,0,0,.046-.565Z" style="fill:#fff"/><path d="M116.931,59.3v.925h-.793V62a4.351,4.351,0,0,0,.022.626.256.256,0,0,0,.1.146.331.331,0,0,0,.2.058,1.506,1.506,0,0,0,.467-.111l.1.9a2.312,2.312,0,0,1-.917.174,1.451,1.451,0,0,1-.565-.105.816.816,0,0,1-.37-.273,1.077,1.077,0,0,1-.163-.452,5.532,5.532,0,0,1-.037-.817V60.228h-.533V59.3h.533v-.872l1.165-.678V59.3Z" style="fill:#fff"/><path d="M120.276,62.294l1.157.194a1.9,1.9,0,0,1-.705.969,2.067,2.067,0,0,1-1.2.333,1.964,1.964,0,0,1-1.693-.748,2.513,2.513,0,0,1-.434-1.512,2.421,2.421,0,0,1,.57-1.708,1.876,1.876,0,0,1,1.441-.618,1.948,1.948,0,0,1,1.545.646,2.863,2.863,0,0,1,.541,1.98h-2.908a1.174,1.174,0,0,0,.281.8.878.878,0,0,0,.669.287.715.715,0,0,0,.459-.148A.92.92,0,0,0,120.276,62.294Zm.066-1.173a1.117,1.117,0,0,0-.261-.767.838.838,0,0,0-1.23.015,1.072,1.072,0,0,0-.244.752Z" style="fill:#fff"/></g></g><rect x="1.83" y="1.83" width="64.14" height="26.04" style="fill:#928788"/><path d="M2.13,2.13m0,25.38V2.13H65.61V27.51Z" style="fill:none;stroke:#928788;stroke-linecap:round;stroke-miterlimit:10;stroke-width:0.6600000262260437px"/><rect x="0.03" y="0.03" width="64.14" height="26.04" style="fill:url(#linear-gradient-4)"/><path d="M.33.33m0,25.38V.33H63.81V25.71Z" style="fill:none;stroke:#5053a4;stroke-linecap:round;stroke-miterlimit:10;stroke-width:0.6600000262260437px"/><g style="clip-path:url(#clip-path-7)"><g style="clip-path:url(#clip-path-2)"><path d="M14.255,13.959l1.189-.115a1.452,1.452,0,0,0,.437.88,1.314,1.314,0,0,0,.886.28,1.363,1.363,0,0,0,.89-.249.744.744,0,0,0,.3-.585.55.55,0,0,0-.126-.365,1,1,0,0,0-.439-.263q-.215-.075-.979-.265a3.314,3.314,0,0,1-1.38-.6,1.577,1.577,0,0,1-.558-1.219,1.557,1.557,0,0,1,.263-.865,1.642,1.642,0,0,1,.756-.613,3.027,3.027,0,0,1,1.191-.211,2.559,2.559,0,0,1,1.717.5,1.767,1.767,0,0,1,.605,1.334l-1.224.054a1.036,1.036,0,0,0-.336-.671,1.232,1.232,0,0,0-.774-.205,1.4,1.4,0,0,0-.835.22.443.443,0,0,0-.194.376.465.465,0,0,0,.182.367,3.212,3.212,0,0,0,1.124.405,5.856,5.856,0,0,1,1.319.436,1.707,1.707,0,0,1,.67.615,1.908,1.908,0,0,1-.048,1.939,1.737,1.737,0,0,1-.817.676,3.43,3.43,0,0,1-1.318.221,2.619,2.619,0,0,1-1.764-.531A2.309,2.309,0,0,1,14.255,13.959Z" style="fill:#fff"/><path d="M23.079,15.929v-.657a1.694,1.694,0,0,1-.63.554,1.771,1.771,0,0,1-.824.2,1.62,1.62,0,0,1-.794-.194,1.15,1.15,0,0,1-.508-.546,2.433,2.433,0,0,1-.157-.971V11.543h1.161v2.016a5.547,5.547,0,0,0,.064,1.134.615.615,0,0,0,.233.331.717.717,0,0,0,.43.121.908.908,0,0,0,.532-.163.825.825,0,0,0,.322-.4A4.708,4.708,0,0,0,23,13.393V11.543h1.161v4.387Z" style="fill:#fff"/><path d="M25.3,15.929V9.874h1.161v2.181a1.643,1.643,0,0,1,1.272-.611,1.707,1.707,0,0,1,1.325.581,2.4,2.4,0,0,1,.525,1.666,2.54,2.54,0,0,1-.535,1.731,1.672,1.672,0,0,1-1.3.607,1.613,1.613,0,0,1-.741-.188,1.779,1.779,0,0,1-.63-.556v.645Zm1.152-2.288a1.872,1.872,0,0,0,.215,1.008.918.918,0,0,0,.8.462.82.82,0,0,0,.654-.328,1.612,1.612,0,0,0,.271-1.034,1.715,1.715,0,0,0-.272-1.085.862.862,0,0,0-.7-.332.871.871,0,0,0-.693.324A1.487,1.487,0,0,0,26.453,13.641Z" style="fill:#fff"/><path d="M31.646,11.543v4.25a4.392,4.392,0,0,1-.109,1.184.96.96,0,0,1-.421.539,1.481,1.481,0,0,1-.8.194,2.364,2.364,0,0,1-.374-.031,3.936,3.936,0,0,1-.432-.093l.2-.991c.055.011.106.02.154.027a.962.962,0,0,0,.135.01.514.514,0,0,0,.291-.076.368.368,0,0,0,.15-.184,2.978,2.978,0,0,0,.037-.645V11.543Zm-1.161-.595V9.874h1.161v1.074Z" style="fill:#fff"/><path d="M35.392,14.533l1.157.194a1.9,1.9,0,0,1-.705.969,2.067,2.067,0,0,1-1.2.333,1.964,1.964,0,0,1-1.693-.748,2.513,2.513,0,0,1-.434-1.512,2.421,2.421,0,0,1,.57-1.708,1.876,1.876,0,0,1,1.441-.618,1.948,1.948,0,0,1,1.545.646,2.863,2.863,0,0,1,.541,1.98H33.7a1.174,1.174,0,0,0,.281.8.878.878,0,0,0,.669.287.715.715,0,0,0,.459-.148A.92.92,0,0,0,35.392,14.533Zm.066-1.173a1.117,1.117,0,0,0-.261-.767.838.838,0,0,0-1.23.015,1.072,1.072,0,0,0-.244.752Z" style="fill:#fff"/><path d="M41.373,12.839l-1.145.206a.823.823,0,0,0-.263-.516.787.787,0,0,0-.53-.174.868.868,0,0,0-.692.3,1.535,1.535,0,0,0-.258,1,1.776,1.776,0,0,0,.263,1.1.86.86,0,0,0,.7.322.78.78,0,0,0,.541-.188,1.133,1.133,0,0,0,.3-.646l1.14.194a2.02,2.02,0,0,1-.682,1.186,2.107,2.107,0,0,1-1.351.4,2.012,2.012,0,0,1-1.535-.607,2.358,2.358,0,0,1-.571-1.682,2.358,2.358,0,0,1,.574-1.691,2.038,2.038,0,0,1,1.553-.605,2.123,2.123,0,0,1,1.274.345A1.915,1.915,0,0,1,41.373,12.839Z" style="fill:#fff"/><path d="M44.256,11.543v.925h-.793v1.769a4.351,4.351,0,0,0,.022.626.256.256,0,0,0,.1.146.331.331,0,0,0,.2.058,1.506,1.506,0,0,0,.467-.111l.1.9a2.312,2.312,0,0,1-.917.174,1.451,1.451,0,0,1-.565-.105.816.816,0,0,1-.37-.273,1.077,1.077,0,0,1-.163-.452,5.532,5.532,0,0,1-.037-.817V12.467h-.533v-.925H42.3v-.872l1.165-.678v1.55Z" style="fill:#fff"/><path d="M44.645,14.677,45.81,14.5a.855.855,0,0,0,.3.515,1.017,1.017,0,0,0,.636.176,1.156,1.156,0,0,0,.678-.165.37.37,0,0,0,.152-.311A.306.306,0,0,0,47.5,14.5a.932.932,0,0,0-.389-.152,6.269,6.269,0,0,1-1.78-.566,1.13,1.13,0,0,1-.521-.987,1.217,1.217,0,0,1,.45-.958,2.1,2.1,0,0,1,1.4-.389,2.426,2.426,0,0,1,1.338.294,1.5,1.5,0,0,1,.6.867l-1.095.2a.677.677,0,0,0-.267-.393.975.975,0,0,0-.56-.136,1.259,1.259,0,0,0-.657.128.275.275,0,0,0-.132.235.257.257,0,0,0,.115.211,4.388,4.388,0,0,0,1.085.326,3.226,3.226,0,0,1,1.295.517,1.073,1.073,0,0,1,.363.863,1.325,1.325,0,0,1-.5,1.036,2.231,2.231,0,0,1-1.491.435,2.449,2.449,0,0,1-1.419-.364A1.673,1.673,0,0,1,44.645,14.677Z" style="fill:#fff"/></g></g></svg>